<?xml version="1.0" encoding="utf-8" standalone="no"?>
<!DOCTYPE svg PUBLIC "-//W3C//DTD SVG 1.1//EN"
  "http://www.w3.org/Graphics/SVG/1.1/DTD/svg11.dtd">
<!-- Created with matplotlib (https://matplotlib.org/) -->
<svg height="345.6pt" version="1.1" viewBox="0 0 460.8 345.6" width="460.8pt" xmlns="http://www.w3.org/2000/svg" xmlns:xlink="http://www.w3.org/1999/xlink">
 <defs>
  <style type="text/css">
*{stroke-linecap:butt;stroke-linejoin:round;}
  </style>
 </defs>
 <g id="figure_1">
  <g id="patch_1">
   <path d="M 0 345.6 
L 460.8 345.6 
L 460.8 0 
L 0 0 
z
" style="fill:#ffffff;"/>
  </g>
  <g id="axes_1">
   <g id="patch_2">
    <path d="M 57.6 307.584 
L 414.72 307.584 
L 414.72 41.472 
L 57.6 41.472 
z
" style="fill:#ffffff;"/>
   </g>
   <g id="matplotlib.axis_1">
    <g id="xtick_1">
     <g id="line2d_1">
      <path clip-path="url(#pf6ce808c78)" d="M 57.6 307.584 
L 57.6 41.472 
" style="fill:none;stroke:#cccccc;stroke-linecap:round;stroke-width:0.8;"/>
     </g>
     <g id="text_1">
      <!-- 0 -->
      <defs>
       <path d="M 4.15625 35.296875 
Q 4.15625 48 6.765625 55.734375 
Q 9.375 63.484375 14.515625 67.671875 
Q 19.671875 71.875 27.484375 71.875 
Q 33.25 71.875 37.59375 69.546875 
Q 41.9375 67.234375 44.765625 62.859375 
Q 47.609375 58.5 49.21875 52.21875 
Q 50.828125 45.953125 50.828125 35.296875 
Q 50.828125 22.703125 48.234375 14.96875 
Q 45.65625 7.234375 40.5 3 
Q 35.359375 -1.21875 27.484375 -1.21875 
Q 17.140625 -1.21875 11.234375 6.203125 
Q 4.15625 15.140625 4.15625 35.296875 
z
M 13.1875 35.296875 
Q 13.1875 17.671875 17.3125 11.828125 
Q 21.4375 6 27.484375 6 
Q 33.546875 6 37.671875 11.859375 
Q 41.796875 17.71875 41.796875 35.296875 
Q 41.796875 52.984375 37.671875 58.78125 
Q 33.546875 64.59375 27.390625 64.59375 
Q 21.34375 64.59375 17.71875 59.46875 
Q 13.1875 52.9375 13.1875 35.296875 
z
" id="ArialMT-48"/>
      </defs>
      <g style="fill:#262626;" transform="translate(54.819531 321.741812)scale(0.1 -0.1)">
       <use xlink:href="#ArialMT-48"/>
      </g>
     </g>
    </g>
    <g id="xtick_2">
     <g id="line2d_2">
      <path clip-path="url(#pf6ce808c78)" d="M 108.617143 307.584 
L 108.617143 41.472 
" style="fill:none;stroke:#cccccc;stroke-linecap:round;stroke-width:0.8;"/>
     </g>
     <g id="text_2">
      <!-- 5 -->
      <defs>
       <path d="M 4.15625 18.75 
L 13.375 19.53125 
Q 14.40625 12.796875 18.140625 9.390625 
Q 21.875 6 27.15625 6 
Q 33.5 6 37.890625 10.78125 
Q 42.28125 15.578125 42.28125 23.484375 
Q 42.28125 31 38.0625 35.34375 
Q 33.84375 39.703125 27 39.703125 
Q 22.75 39.703125 19.328125 37.765625 
Q 15.921875 35.84375 13.96875 32.765625 
L 5.71875 33.84375 
L 12.640625 70.609375 
L 48.25 70.609375 
L 48.25 62.203125 
L 19.671875 62.203125 
L 15.828125 42.96875 
Q 22.265625 47.46875 29.34375 47.46875 
Q 38.71875 47.46875 45.15625 40.96875 
Q 51.609375 34.46875 51.609375 24.265625 
Q 51.609375 14.546875 45.953125 7.46875 
Q 39.0625 -1.21875 27.15625 -1.21875 
Q 17.390625 -1.21875 11.203125 4.25 
Q 5.03125 9.71875 4.15625 18.75 
z
" id="ArialMT-53"/>
      </defs>
      <g style="fill:#262626;" transform="translate(105.836674 321.741812)scale(0.1 -0.1)">
       <use xlink:href="#ArialMT-53"/>
      </g>
     </g>
    </g>
    <g id="xtick_3">
     <g id="line2d_3">
      <path clip-path="url(#pf6ce808c78)" d="M 159.634286 307.584 
L 159.634286 41.472 
" style="fill:none;stroke:#cccccc;stroke-linecap:round;stroke-width:0.8;"/>
     </g>
     <g id="text_3">
      <!-- 10 -->
      <defs>
       <path d="M 37.25 0 
L 28.46875 0 
L 28.46875 56 
Q 25.296875 52.984375 20.140625 49.953125 
Q 14.984375 46.921875 10.890625 45.40625 
L 10.890625 53.90625 
Q 18.265625 57.375 23.78125 62.296875 
Q 29.296875 67.234375 31.59375 71.875 
L 37.25 71.875 
z
" id="ArialMT-49"/>
      </defs>
      <g style="fill:#262626;" transform="translate(154.073348 321.741812)scale(0.1 -0.1)">
       <use xlink:href="#ArialMT-49"/>
       <use x="55.615234" xlink:href="#ArialMT-48"/>
      </g>
     </g>
    </g>
    <g id="xtick_4">
     <g id="line2d_4">
      <path clip-path="url(#pf6ce808c78)" d="M 210.651429 307.584 
L 210.651429 41.472 
" style="fill:none;stroke:#cccccc;stroke-linecap:round;stroke-width:0.8;"/>
     </g>
     <g id="text_4">
      <!-- 15 -->
      <g style="fill:#262626;" transform="translate(205.090491 321.741812)scale(0.1 -0.1)">
       <use xlink:href="#ArialMT-49"/>
       <use x="55.615234" xlink:href="#ArialMT-53"/>
      </g>
     </g>
    </g>
    <g id="xtick_5">
     <g id="line2d_5">
      <path clip-path="url(#pf6ce808c78)" d="M 261.668571 307.584 
L 261.668571 41.472 
" style="fill:none;stroke:#cccccc;stroke-linecap:round;stroke-width:0.8;"/>
     </g>
     <g id="text_5">
      <!-- 20 -->
      <defs>
       <path d="M 50.34375 8.453125 
L 50.34375 0 
L 3.03125 0 
Q 2.9375 3.171875 4.046875 6.109375 
Q 5.859375 10.9375 9.828125 15.625 
Q 13.8125 20.3125 21.34375 26.46875 
Q 33.015625 36.03125 37.109375 41.625 
Q 41.21875 47.21875 41.21875 52.203125 
Q 41.21875 57.421875 37.46875 61 
Q 33.734375 64.59375 27.734375 64.59375 
Q 21.390625 64.59375 17.578125 60.78125 
Q 13.765625 56.984375 13.71875 50.25 
L 4.6875 51.171875 
Q 5.609375 61.28125 11.65625 66.578125 
Q 17.71875 71.875 27.9375 71.875 
Q 38.234375 71.875 44.234375 66.15625 
Q 50.25 60.453125 50.25 52 
Q 50.25 47.703125 48.484375 43.546875 
Q 46.734375 39.40625 42.65625 34.8125 
Q 38.578125 30.21875 29.109375 22.21875 
Q 21.1875 15.578125 18.9375 13.203125 
Q 16.703125 10.84375 15.234375 8.453125 
z
" id="ArialMT-50"/>
      </defs>
      <g style="fill:#262626;" transform="translate(256.107634 321.741812)scale(0.1 -0.1)">
       <use xlink:href="#ArialMT-50"/>
       <use x="55.615234" xlink:href="#ArialMT-48"/>
      </g>
     </g>
    </g>
    <g id="xtick_6">
     <g id="line2d_6">
      <path clip-path="url(#pf6ce808c78)" d="M 312.685714 307.584 
L 312.685714 41.472 
" style="fill:none;stroke:#cccccc;stroke-linecap:round;stroke-width:0.8;"/>
     </g>
     <g id="text_6">
      <!-- 25 -->
      <g style="fill:#262626;" transform="translate(307.124777 321.741812)scale(0.1 -0.1)">
       <use xlink:href="#ArialMT-50"/>
       <use x="55.615234" xlink:href="#ArialMT-53"/>
      </g>
     </g>
    </g>
    <g id="xtick_7">
     <g id="line2d_7">
      <path clip-path="url(#pf6ce808c78)" d="M 363.702857 307.584 
L 363.702857 41.472 
" style="fill:none;stroke:#cccccc;stroke-linecap:round;stroke-width:0.8;"/>
     </g>
     <g id="text_7">
      <!-- 30 -->
      <defs>
       <path d="M 4.203125 18.890625 
L 12.984375 20.0625 
Q 14.5 12.59375 18.140625 9.296875 
Q 21.78125 6 27 6 
Q 33.203125 6 37.46875 10.296875 
Q 41.75 14.59375 41.75 20.953125 
Q 41.75 27 37.796875 30.921875 
Q 33.84375 34.859375 27.734375 34.859375 
Q 25.25 34.859375 21.53125 33.890625 
L 22.515625 41.609375 
Q 23.390625 41.5 23.921875 41.5 
Q 29.546875 41.5 34.03125 44.421875 
Q 38.53125 47.359375 38.53125 53.46875 
Q 38.53125 58.296875 35.25 61.46875 
Q 31.984375 64.65625 26.8125 64.65625 
Q 21.6875 64.65625 18.265625 61.421875 
Q 14.84375 58.203125 13.875 51.765625 
L 5.078125 53.328125 
Q 6.6875 62.15625 12.390625 67.015625 
Q 18.109375 71.875 26.609375 71.875 
Q 32.46875 71.875 37.390625 69.359375 
Q 42.328125 66.84375 44.9375 62.5 
Q 47.5625 58.15625 47.5625 53.265625 
Q 47.5625 48.640625 45.0625 44.828125 
Q 42.578125 41.015625 37.703125 38.765625 
Q 44.046875 37.3125 47.5625 32.6875 
Q 51.078125 28.078125 51.078125 21.140625 
Q 51.078125 11.765625 44.234375 5.25 
Q 37.40625 -1.265625 26.953125 -1.265625 
Q 17.53125 -1.265625 11.296875 4.34375 
Q 5.078125 9.96875 4.203125 18.890625 
z
" id="ArialMT-51"/>
      </defs>
      <g style="fill:#262626;" transform="translate(358.14192 321.741812)scale(0.1 -0.1)">
       <use xlink:href="#ArialMT-51"/>
       <use x="55.615234" xlink:href="#ArialMT-48"/>
      </g>
     </g>
    </g>
    <g id="xtick_8">
     <g id="line2d_8">
      <path clip-path="url(#pf6ce808c78)" d="M 414.72 307.584 
L 414.72 41.472 
" style="fill:none;stroke:#cccccc;stroke-linecap:round;stroke-width:0.8;"/>
     </g>
     <g id="text_8">
      <!-- 35 -->
      <g style="fill:#262626;" transform="translate(409.159063 321.741812)scale(0.1 -0.1)">
       <use xlink:href="#ArialMT-51"/>
       <use x="55.615234" xlink:href="#ArialMT-53"/>
      </g>
     </g>
    </g>
    <g id="text_9">
     <!-- Velocity (m/s) -->
     <defs>
      <path d="M 71 66.21875 
L 71 64.40625 
Q 67.484375 63.765625 65.671875 62.15625 
Q 63.09375 59.765625 61.078125 54.828125 
L 37.984375 -1.515625 
L 36.1875 -1.515625 
L 11.375 55.5625 
Q 9.46875 59.96875 8.6875 60.9375 
Q 7.46875 62.453125 5.6875 63.296875 
Q 3.90625 64.15625 0.875 64.40625 
L 0.875 66.21875 
L 27.9375 66.21875 
L 27.9375 64.40625 
Q 23.34375 63.96875 21.96875 62.84375 
Q 20.609375 61.71875 20.609375 59.96875 
Q 20.609375 57.515625 22.859375 52.34375 
L 39.703125 13.53125 
L 55.328125 51.859375 
Q 57.625 57.515625 57.625 59.71875 
Q 57.625 61.140625 56.203125 62.421875 
Q 54.78125 63.71875 51.421875 64.265625 
Q 51.171875 64.3125 50.59375 64.40625 
L 50.59375 66.21875 
z
" id="TimesNewRomanPSMT-86"/>
      <path d="M 10.640625 27.875 
Q 10.59375 17.921875 15.484375 12.25 
Q 20.359375 6.59375 26.953125 6.59375 
Q 31.34375 6.59375 34.59375 9 
Q 37.84375 11.421875 40.046875 17.28125 
L 41.546875 16.3125 
Q 40.53125 9.625 35.59375 4.125 
Q 30.671875 -1.375 23.25 -1.375 
Q 15.1875 -1.375 9.453125 4.90625 
Q 3.71875 11.1875 3.71875 21.78125 
Q 3.71875 33.25 9.59375 39.671875 
Q 15.484375 46.09375 24.359375 46.09375 
Q 31.890625 46.09375 36.71875 41.140625 
Q 41.546875 36.1875 41.546875 27.875 
z
M 10.640625 30.71875 
L 31.34375 30.71875 
Q 31.109375 35.015625 30.328125 36.765625 
Q 29.109375 39.5 26.6875 41.0625 
Q 24.265625 42.625 21.625 42.625 
Q 17.578125 42.625 14.375 39.46875 
Q 11.1875 36.328125 10.640625 30.71875 
z
" id="TimesNewRomanPSMT-101"/>
      <path d="M 18.5 69.4375 
L 18.5 10.109375 
Q 18.5 5.90625 19.109375 4.53125 
Q 19.734375 3.171875 21 2.46875 
Q 22.265625 1.765625 25.734375 1.765625 
L 25.734375 0 
L 3.8125 0 
L 3.8125 1.765625 
Q 6.890625 1.765625 8 2.390625 
Q 9.125 3.03125 9.765625 4.484375 
Q 10.40625 5.953125 10.40625 10.109375 
L 10.40625 50.734375 
Q 10.40625 58.296875 10.0625 60.03125 
Q 9.71875 61.765625 8.953125 62.390625 
Q 8.203125 63.03125 7.03125 63.03125 
Q 5.765625 63.03125 3.8125 62.25 
L 2.984375 63.96875 
L 16.3125 69.4375 
z
" id="TimesNewRomanPSMT-108"/>
      <path d="M 25 46.046875 
Q 35.15625 46.046875 41.3125 38.328125 
Q 46.53125 31.734375 46.53125 23.1875 
Q 46.53125 17.1875 43.640625 11.03125 
Q 40.765625 4.890625 35.71875 1.75 
Q 30.671875 -1.375 24.46875 -1.375 
Q 14.359375 -1.375 8.40625 6.6875 
Q 3.375 13.484375 3.375 21.921875 
Q 3.375 28.078125 6.421875 34.15625 
Q 9.46875 40.234375 14.453125 43.140625 
Q 19.4375 46.046875 25 46.046875 
z
M 23.484375 42.875 
Q 20.90625 42.875 18.28125 41.328125 
Q 15.671875 39.796875 14.0625 35.9375 
Q 12.453125 32.078125 12.453125 26.03125 
Q 12.453125 16.265625 16.328125 9.171875 
Q 20.21875 2.09375 26.5625 2.09375 
Q 31.296875 2.09375 34.375 6 
Q 37.453125 9.90625 37.453125 19.4375 
Q 37.453125 31.34375 32.328125 38.1875 
Q 28.859375 42.875 23.484375 42.875 
z
" id="TimesNewRomanPSMT-111"/>
      <path d="M 41.109375 17 
Q 39.3125 8.15625 34.03125 3.390625 
Q 28.765625 -1.375 22.359375 -1.375 
Q 14.75 -1.375 9.078125 5.015625 
Q 3.421875 11.421875 3.421875 22.3125 
Q 3.421875 32.859375 9.6875 39.453125 
Q 15.96875 46.046875 24.75 46.046875 
Q 31.34375 46.046875 35.59375 42.546875 
Q 39.84375 39.0625 39.84375 35.296875 
Q 39.84375 33.453125 38.640625 32.296875 
Q 37.453125 31.15625 35.296875 31.15625 
Q 32.421875 31.15625 30.953125 33.015625 
Q 30.125 34.03125 29.859375 36.90625 
Q 29.59375 39.796875 27.875 41.3125 
Q 26.171875 42.78125 23.140625 42.78125 
Q 18.265625 42.78125 15.28125 39.15625 
Q 11.328125 34.375 11.328125 26.515625 
Q 11.328125 18.5 15.25 12.375 
Q 19.1875 6.25 25.875 6.25 
Q 30.671875 6.25 34.46875 9.515625 
Q 37.15625 11.765625 39.703125 17.671875 
z
" id="TimesNewRomanPSMT-99"/>
      <path d="M 14.5 69.4375 
Q 16.546875 69.4375 17.984375 67.984375 
Q 19.4375 66.546875 19.4375 64.5 
Q 19.4375 62.453125 17.984375 60.984375 
Q 16.546875 59.515625 14.5 59.515625 
Q 12.453125 59.515625 10.984375 60.984375 
Q 9.515625 62.453125 9.515625 64.5 
Q 9.515625 66.546875 10.953125 67.984375 
Q 12.40625 69.4375 14.5 69.4375 
z
M 18.5625 46.046875 
L 18.5625 10.109375 
Q 18.5625 5.90625 19.171875 4.515625 
Q 19.78125 3.125 20.96875 2.4375 
Q 22.171875 1.765625 25.34375 1.765625 
L 25.34375 0 
L 3.609375 0 
L 3.609375 1.765625 
Q 6.890625 1.765625 8 2.390625 
Q 9.125 3.03125 9.78125 4.484375 
Q 10.453125 5.953125 10.453125 10.109375 
L 10.453125 27.34375 
Q 10.453125 34.625 10.015625 36.765625 
Q 9.671875 38.328125 8.9375 38.9375 
Q 8.203125 39.546875 6.9375 39.546875 
Q 5.5625 39.546875 3.609375 38.8125 
L 2.9375 40.578125 
L 16.40625 46.046875 
z
" id="TimesNewRomanPSMT-105"/>
      <path d="M 16.109375 59.421875 
L 16.109375 44.734375 
L 26.5625 44.734375 
L 26.5625 41.3125 
L 16.109375 41.3125 
L 16.109375 12.3125 
Q 16.109375 7.953125 17.359375 6.4375 
Q 18.609375 4.9375 20.5625 4.9375 
Q 22.171875 4.9375 23.6875 5.9375 
Q 25.203125 6.9375 26.03125 8.890625 
L 27.9375 8.890625 
Q 26.21875 4.109375 23.09375 1.6875 
Q 19.96875 -0.734375 16.65625 -0.734375 
Q 14.40625 -0.734375 12.25 0.515625 
Q 10.109375 1.765625 9.078125 4.078125 
Q 8.0625 6.390625 8.0625 11.234375 
L 8.0625 41.3125 
L 0.984375 41.3125 
L 0.984375 42.921875 
Q 3.65625 44 6.46875 46.5625 
Q 9.28125 49.125 11.46875 52.640625 
Q 12.59375 54.5 14.59375 59.421875 
z
" id="TimesNewRomanPSMT-116"/>
      <path d="M 0.59375 44.734375 
L 21.4375 44.734375 
L 21.4375 42.921875 
L 20.40625 42.921875 
Q 18.21875 42.921875 17.109375 41.96875 
Q 16.015625 41.015625 16.015625 39.59375 
Q 16.015625 37.703125 17.625 34.328125 
L 28.515625 11.765625 
L 38.53125 36.46875 
Q 39.359375 38.484375 39.359375 40.4375 
Q 39.359375 41.3125 39.015625 41.75 
Q 38.625 42.28125 37.796875 42.59375 
Q 36.96875 42.921875 34.859375 42.921875 
L 34.859375 44.734375 
L 49.421875 44.734375 
L 49.421875 42.921875 
Q 47.609375 42.71875 46.625 42.125 
Q 45.65625 41.546875 44.484375 39.9375 
Q 44.046875 39.265625 42.828125 36.1875 
L 24.609375 -8.453125 
Q 21.96875 -14.9375 17.6875 -18.25 
Q 13.421875 -21.578125 9.46875 -21.578125 
Q 6.59375 -21.578125 4.734375 -19.921875 
Q 2.875 -18.265625 2.875 -16.109375 
Q 2.875 -14.0625 4.21875 -12.8125 
Q 5.5625 -11.578125 7.90625 -11.578125 
Q 9.515625 -11.578125 12.3125 -12.640625 
Q 14.265625 -13.375 14.75 -13.375 
Q 16.21875 -13.375 17.9375 -11.859375 
Q 19.671875 -10.359375 21.4375 -6 
L 24.609375 1.765625 
L 8.546875 35.5 
Q 7.8125 37.015625 6.203125 39.265625 
Q 4.984375 40.96875 4.203125 41.546875 
Q 3.078125 42.328125 0.59375 42.921875 
z
" id="TimesNewRomanPSMT-121"/>
      <path id="TimesNewRomanPSMT-32"/>
      <path d="M 31.0625 -19.578125 
L 31.0625 -21.390625 
Q 23.6875 -17.671875 18.75 -12.703125 
Q 11.71875 -5.609375 7.90625 4 
Q 4.109375 13.625 4.109375 23.96875 
Q 4.109375 39.109375 11.578125 51.578125 
Q 19.046875 64.0625 31.0625 69.4375 
L 31.0625 67.390625 
Q 25.046875 64.0625 21.1875 58.296875 
Q 17.328125 52.546875 15.421875 43.703125 
Q 13.53125 34.859375 13.53125 25.25 
Q 13.53125 14.796875 15.140625 6.25 
Q 16.40625 -0.484375 18.203125 -4.5625 
Q 20.015625 -8.640625 23.0625 -12.390625 
Q 26.125 -16.15625 31.0625 -19.578125 
z
" id="TimesNewRomanPSMT-40"/>
      <path d="M 16.40625 36.53125 
Q 21.296875 41.40625 22.171875 42.140625 
Q 24.359375 44 26.890625 45.015625 
Q 29.4375 46.046875 31.9375 46.046875 
Q 36.140625 46.046875 39.15625 43.59375 
Q 42.1875 41.15625 43.21875 36.53125 
Q 48.25 42.390625 51.703125 44.21875 
Q 55.171875 46.046875 58.84375 46.046875 
Q 62.40625 46.046875 65.15625 44.21875 
Q 67.921875 42.390625 69.53125 38.234375 
Q 70.609375 35.40625 70.609375 29.34375 
L 70.609375 10.109375 
Q 70.609375 5.90625 71.234375 4.34375 
Q 71.734375 3.265625 73.046875 2.515625 
Q 74.359375 1.765625 77.34375 1.765625 
L 77.34375 0 
L 55.28125 0 
L 55.28125 1.765625 
L 56.203125 1.765625 
Q 59.078125 1.765625 60.6875 2.875 
Q 61.8125 3.65625 62.3125 5.375 
Q 62.5 6.203125 62.5 10.109375 
L 62.5 29.34375 
Q 62.5 34.8125 61.1875 37.0625 
Q 59.28125 40.1875 55.078125 40.1875 
Q 52.484375 40.1875 49.875 38.890625 
Q 47.265625 37.59375 43.5625 34.078125 
L 43.453125 33.546875 
L 43.5625 31.453125 
L 43.5625 10.109375 
Q 43.5625 5.515625 44.0625 4.390625 
Q 44.578125 3.265625 45.984375 2.515625 
Q 47.40625 1.765625 50.828125 1.765625 
L 50.828125 0 
L 28.21875 0 
L 28.21875 1.765625 
Q 31.9375 1.765625 33.328125 2.640625 
Q 34.71875 3.515625 35.25 5.28125 
Q 35.5 6.109375 35.5 10.109375 
L 35.5 29.34375 
Q 35.5 34.8125 33.890625 37.203125 
Q 31.734375 40.328125 27.875 40.328125 
Q 25.25 40.328125 22.65625 38.921875 
Q 18.609375 36.765625 16.40625 34.078125 
L 16.40625 10.109375 
Q 16.40625 5.71875 17.015625 4.390625 
Q 17.625 3.078125 18.8125 2.421875 
Q 20.015625 1.765625 23.6875 1.765625 
L 23.6875 0 
L 1.5625 0 
L 1.5625 1.765625 
Q 4.640625 1.765625 5.859375 2.421875 
Q 7.078125 3.078125 7.703125 4.515625 
Q 8.34375 5.953125 8.34375 10.109375 
L 8.34375 27.203125 
Q 8.34375 34.578125 7.90625 36.71875 
Q 7.5625 38.328125 6.828125 38.9375 
Q 6.109375 39.546875 4.828125 39.546875 
Q 3.46875 39.546875 1.5625 38.8125 
L 0.828125 40.578125 
L 14.3125 46.046875 
L 16.40625 46.046875 
z
" id="TimesNewRomanPSMT-109"/>
      <path d="M 28.03125 69.4375 
L 4.046875 -1.375 
L 0.140625 -1.375 
L 24.125 69.4375 
z
" id="TimesNewRomanPSMT-47"/>
      <path d="M 32.03125 46.046875 
L 32.03125 30.8125 
L 30.421875 30.8125 
Q 28.5625 37.984375 25.65625 40.578125 
Q 22.75 43.171875 18.265625 43.171875 
Q 14.84375 43.171875 12.734375 41.359375 
Q 10.640625 39.546875 10.640625 37.359375 
Q 10.640625 34.625 12.203125 32.671875 
Q 13.71875 30.671875 18.359375 28.421875 
L 25.484375 24.953125 
Q 35.40625 20.125 35.40625 12.203125 
Q 35.40625 6.109375 30.78125 2.359375 
Q 26.171875 -1.375 20.453125 -1.375 
Q 16.359375 -1.375 11.078125 0.09375 
Q 9.46875 0.59375 8.453125 0.59375 
Q 7.328125 0.59375 6.6875 -0.6875 
L 5.078125 -0.6875 
L 5.078125 15.28125 
L 6.6875 15.28125 
Q 8.0625 8.453125 11.90625 4.984375 
Q 15.765625 1.515625 20.5625 1.515625 
Q 23.921875 1.515625 26.046875 3.484375 
Q 28.171875 5.46875 28.171875 8.25 
Q 28.171875 11.625 25.796875 13.921875 
Q 23.4375 16.21875 16.359375 19.734375 
Q 9.28125 23.25 7.078125 26.078125 
Q 4.890625 28.859375 4.890625 33.109375 
Q 4.890625 38.625 8.671875 42.328125 
Q 12.453125 46.046875 18.453125 46.046875 
Q 21.09375 46.046875 24.859375 44.921875 
Q 27.34375 44.1875 28.171875 44.1875 
Q 28.953125 44.1875 29.390625 44.53125 
Q 29.828125 44.875 30.421875 46.046875 
z
" id="TimesNewRomanPSMT-115"/>
      <path d="M 2.25 67.390625 
L 2.25 69.4375 
Q 9.671875 65.765625 14.59375 60.796875 
Q 21.578125 53.65625 25.390625 44.0625 
Q 29.203125 34.46875 29.203125 24.078125 
Q 29.203125 8.9375 21.75 -3.53125 
Q 14.3125 -16.015625 2.25 -21.390625 
L 2.25 -19.578125 
Q 8.25 -16.21875 12.125 -10.46875 
Q 16.015625 -4.734375 17.890625 4.125 
Q 19.78125 12.984375 19.78125 22.609375 
Q 19.78125 33.015625 18.171875 41.609375 
Q 16.9375 48.34375 15.109375 52.390625 
Q 13.28125 56.453125 10.25 60.203125 
Q 7.234375 63.96875 2.25 67.390625 
z
" id="TimesNewRomanPSMT-41"/>
     </defs>
     <g style="fill:#262626;" transform="translate(195.5425 337.450562)scale(0.14 -0.14)">
      <use xlink:href="#TimesNewRomanPSMT-86"/>
      <use x="72.044922" xlink:href="#TimesNewRomanPSMT-101"/>
      <use x="116.429688" xlink:href="#TimesNewRomanPSMT-108"/>
      <use x="144.212891" xlink:href="#TimesNewRomanPSMT-111"/>
      <use x="194.212891" xlink:href="#TimesNewRomanPSMT-99"/>
      <use x="238.597656" xlink:href="#TimesNewRomanPSMT-105"/>
      <use x="266.380859" xlink:href="#TimesNewRomanPSMT-116"/>
      <use x="294.164062" xlink:href="#TimesNewRomanPSMT-121"/>
      <use x="344.164062" xlink:href="#TimesNewRomanPSMT-32"/>
      <use x="369.164062" xlink:href="#TimesNewRomanPSMT-40"/>
      <use x="402.464844" xlink:href="#TimesNewRomanPSMT-109"/>
      <use x="480.248047" xlink:href="#TimesNewRomanPSMT-47"/>
      <use x="508.03125" xlink:href="#TimesNewRomanPSMT-115"/>
      <use x="546.947266" xlink:href="#TimesNewRomanPSMT-41"/>
     </g>
    </g>
   </g>
   <g id="matplotlib.axis_2">
    <g id="ytick_1">
     <g id="line2d_9">
      <path clip-path="url(#pf6ce808c78)" d="M 57.6 307.584 
L 414.72 307.584 
" style="fill:none;stroke:#cccccc;stroke-linecap:round;stroke-width:0.8;"/>
     </g>
     <g id="text_10">
      <!-- −7 -->
      <defs>
       <path d="M 52.828125 31.203125 
L 5.5625 31.203125 
L 5.5625 39.40625 
L 52.828125 39.40625 
z
" id="ArialMT-8722"/>
       <path d="M 4.734375 62.203125 
L 4.734375 70.65625 
L 51.078125 70.65625 
L 51.078125 63.8125 
Q 44.234375 56.546875 37.515625 44.484375 
Q 30.8125 32.421875 27.15625 19.671875 
Q 24.515625 10.6875 23.78125 0 
L 14.75 0 
Q 14.890625 8.453125 18.0625 20.40625 
Q 21.234375 32.375 27.171875 43.484375 
Q 33.109375 54.59375 39.796875 62.203125 
z
" id="ArialMT-55"/>
      </defs>
      <g style="fill:#262626;" transform="translate(39.198437 311.162906)scale(0.1 -0.1)">
       <use xlink:href="#ArialMT-8722"/>
       <use x="58.398438" xlink:href="#ArialMT-55"/>
      </g>
     </g>
    </g>
    <g id="ytick_2">
     <g id="line2d_10">
      <path clip-path="url(#pf6ce808c78)" d="M 57.6 288.576 
L 414.72 288.576 
" style="fill:none;stroke:#cccccc;stroke-linecap:round;stroke-width:0.8;"/>
     </g>
     <g id="text_11">
      <!-- −6 -->
      <defs>
       <path d="M 49.75 54.046875 
L 41.015625 53.375 
Q 39.84375 58.546875 37.703125 60.890625 
Q 34.125 64.65625 28.90625 64.65625 
Q 24.703125 64.65625 21.53125 62.3125 
Q 17.390625 59.28125 14.984375 53.46875 
Q 12.59375 47.65625 12.5 36.921875 
Q 15.671875 41.75 20.265625 44.09375 
Q 24.859375 46.4375 29.890625 46.4375 
Q 38.671875 46.4375 44.84375 39.96875 
Q 51.03125 33.5 51.03125 23.25 
Q 51.03125 16.5 48.125 10.71875 
Q 45.21875 4.9375 40.140625 1.859375 
Q 35.0625 -1.21875 28.609375 -1.21875 
Q 17.625 -1.21875 10.6875 6.859375 
Q 3.765625 14.9375 3.765625 33.5 
Q 3.765625 54.25 11.421875 63.671875 
Q 18.109375 71.875 29.4375 71.875 
Q 37.890625 71.875 43.28125 67.140625 
Q 48.6875 62.40625 49.75 54.046875 
z
M 13.875 23.1875 
Q 13.875 18.65625 15.796875 14.5 
Q 17.71875 10.359375 21.1875 8.171875 
Q 24.65625 6 28.46875 6 
Q 34.03125 6 38.03125 10.484375 
Q 42.046875 14.984375 42.046875 22.703125 
Q 42.046875 30.125 38.078125 34.390625 
Q 34.125 38.671875 28.125 38.671875 
Q 22.171875 38.671875 18.015625 34.390625 
Q 13.875 30.125 13.875 23.1875 
z
" id="ArialMT-54"/>
      </defs>
      <g style="fill:#262626;" transform="translate(39.198437 292.154906)scale(0.1 -0.1)">
       <use xlink:href="#ArialMT-8722"/>
       <use x="58.398438" xlink:href="#ArialMT-54"/>
      </g>
     </g>
    </g>
    <g id="ytick_3">
     <g id="line2d_11">
      <path clip-path="url(#pf6ce808c78)" d="M 57.6 269.568 
L 414.72 269.568 
" style="fill:none;stroke:#cccccc;stroke-linecap:round;stroke-width:0.8;"/>
     </g>
     <g id="text_12">
      <!-- −5 -->
      <g style="fill:#262626;" transform="translate(39.198437 273.146906)scale(0.1 -0.1)">
       <use xlink:href="#ArialMT-8722"/>
       <use x="58.398438" xlink:href="#ArialMT-53"/>
      </g>
     </g>
    </g>
    <g id="ytick_4">
     <g id="line2d_12">
      <path clip-path="url(#pf6ce808c78)" d="M 57.6 250.56 
L 414.72 250.56 
" style="fill:none;stroke:#cccccc;stroke-linecap:round;stroke-width:0.8;"/>
     </g>
     <g id="text_13">
      <!-- −4 -->
      <defs>
       <path d="M 32.328125 0 
L 32.328125 17.140625 
L 1.265625 17.140625 
L 1.265625 25.203125 
L 33.9375 71.578125 
L 41.109375 71.578125 
L 41.109375 25.203125 
L 50.78125 25.203125 
L 50.78125 17.140625 
L 41.109375 17.140625 
L 41.109375 0 
z
M 32.328125 25.203125 
L 32.328125 57.46875 
L 9.90625 25.203125 
z
" id="ArialMT-52"/>
      </defs>
      <g style="fill:#262626;" transform="translate(39.198437 254.138906)scale(0.1 -0.1)">
       <use xlink:href="#ArialMT-8722"/>
       <use x="58.398438" xlink:href="#ArialMT-52"/>
      </g>
     </g>
    </g>
    <g id="ytick_5">
     <g id="line2d_13">
      <path clip-path="url(#pf6ce808c78)" d="M 57.6 231.552 
L 414.72 231.552 
" style="fill:none;stroke:#cccccc;stroke-linecap:round;stroke-width:0.8;"/>
     </g>
     <g id="text_14">
      <!-- −3 -->
      <g style="fill:#262626;" transform="translate(39.198437 235.130906)scale(0.1 -0.1)">
       <use xlink:href="#ArialMT-8722"/>
       <use x="58.398438" xlink:href="#ArialMT-51"/>
      </g>
     </g>
    </g>
    <g id="ytick_6">
     <g id="line2d_14">
      <path clip-path="url(#pf6ce808c78)" d="M 57.6 212.544 
L 414.72 212.544 
" style="fill:none;stroke:#cccccc;stroke-linecap:round;stroke-width:0.8;"/>
     </g>
     <g id="text_15">
      <!-- −2 -->
      <g style="fill:#262626;" transform="translate(39.198437 216.122906)scale(0.1 -0.1)">
       <use xlink:href="#ArialMT-8722"/>
       <use x="58.398438" xlink:href="#ArialMT-50"/>
      </g>
     </g>
    </g>
    <g id="ytick_7">
     <g id="line2d_15">
      <path clip-path="url(#pf6ce808c78)" d="M 57.6 193.536 
L 414.72 193.536 
" style="fill:none;stroke:#cccccc;stroke-linecap:round;stroke-width:0.8;"/>
     </g>
     <g id="text_16">
      <!-- −1 -->
      <g style="fill:#262626;" transform="translate(39.198437 197.114906)scale(0.1 -0.1)">
       <use xlink:href="#ArialMT-8722"/>
       <use x="58.398438" xlink:href="#ArialMT-49"/>
      </g>
     </g>
    </g>
    <g id="ytick_8">
     <g id="line2d_16">
      <path clip-path="url(#pf6ce808c78)" d="M 57.6 174.528 
L 414.72 174.528 
" style="fill:none;stroke:#cccccc;stroke-linecap:round;stroke-width:0.8;"/>
     </g>
     <g id="text_17">
      <!-- 0 -->
      <g style="fill:#262626;" transform="translate(45.039062 178.106906)scale(0.1 -0.1)">
       <use xlink:href="#ArialMT-48"/>
      </g>
     </g>
    </g>
    <g id="ytick_9">
     <g id="line2d_17">
      <path clip-path="url(#pf6ce808c78)" d="M 57.6 155.52 
L 414.72 155.52 
" style="fill:none;stroke:#cccccc;stroke-linecap:round;stroke-width:0.8;"/>
     </g>
     <g id="text_18">
      <!-- 1 -->
      <g style="fill:#262626;" transform="translate(45.039062 159.098906)scale(0.1 -0.1)">
       <use xlink:href="#ArialMT-49"/>
      </g>
     </g>
    </g>
    <g id="ytick_10">
     <g id="line2d_18">
      <path clip-path="url(#pf6ce808c78)" d="M 57.6 136.512 
L 414.72 136.512 
" style="fill:none;stroke:#cccccc;stroke-linecap:round;stroke-width:0.8;"/>
     </g>
     <g id="text_19">
      <!-- 2 -->
      <g style="fill:#262626;" transform="translate(45.039062 140.090906)scale(0.1 -0.1)">
       <use xlink:href="#ArialMT-50"/>
      </g>
     </g>
    </g>
    <g id="ytick_11">
     <g id="line2d_19">
      <path clip-path="url(#pf6ce808c78)" d="M 57.6 117.504 
L 414.72 117.504 
" style="fill:none;stroke:#cccccc;stroke-linecap:round;stroke-width:0.8;"/>
     </g>
     <g id="text_20">
      <!-- 3 -->
      <g style="fill:#262626;" transform="translate(45.039062 121.082906)scale(0.1 -0.1)">
       <use xlink:href="#ArialMT-51"/>
      </g>
     </g>
    </g>
    <g id="ytick_12">
     <g id="line2d_20">
      <path clip-path="url(#pf6ce808c78)" d="M 57.6 98.496 
L 414.72 98.496 
" style="fill:none;stroke:#cccccc;stroke-linecap:round;stroke-width:0.8;"/>
     </g>
     <g id="text_21">
      <!-- 4 -->
      <g style="fill:#262626;" transform="translate(45.039062 102.074906)scale(0.1 -0.1)">
       <use xlink:href="#ArialMT-52"/>
      </g>
     </g>
    </g>
    <g id="ytick_13">
     <g id="line2d_21">
      <path clip-path="url(#pf6ce808c78)" d="M 57.6 79.488 
L 414.72 79.488 
" style="fill:none;stroke:#cccccc;stroke-linecap:round;stroke-width:0.8;"/>
     </g>
     <g id="text_22">
      <!-- 5 -->
      <g style="fill:#262626;" transform="translate(45.039062 83.066906)scale(0.1 -0.1)">
       <use xlink:href="#ArialMT-53"/>
      </g>
     </g>
    </g>
    <g id="ytick_14">
     <g id="line2d_22">
      <path clip-path="url(#pf6ce808c78)" d="M 57.6 60.48 
L 414.72 60.48 
" style="fill:none;stroke:#cccccc;stroke-linecap:round;stroke-width:0.8;"/>
     </g>
     <g id="text_23">
      <!-- 6 -->
      <g style="fill:#262626;" transform="translate(45.039062 64.058906)scale(0.1 -0.1)">
       <use xlink:href="#ArialMT-54"/>
      </g>
     </g>
    </g>
    <g id="text_24">
     <!-- Load Factor (n) -->
     <defs>
      <path d="M 57.328125 18.3125 
L 58.9375 17.96875 
L 53.265625 0 
L 2 0 
L 2 1.8125 
L 4.5 1.8125 
Q 8.6875 1.8125 10.5 4.546875 
Q 11.53125 6.109375 11.53125 11.765625 
L 11.53125 54.5 
Q 11.53125 60.6875 10.15625 62.25 
Q 8.25 64.40625 4.5 64.40625 
L 2 64.40625 
L 2 66.21875 
L 31.984375 66.21875 
L 31.984375 64.40625 
Q 26.703125 64.453125 24.578125 63.421875 
Q 22.46875 62.40625 21.6875 60.84375 
Q 20.90625 59.28125 20.90625 53.375 
L 20.90625 11.765625 
Q 20.90625 7.71875 21.6875 6.203125 
Q 22.265625 5.171875 23.484375 4.6875 
Q 24.703125 4.203125 31.109375 4.203125 
L 35.9375 4.203125 
Q 43.5625 4.203125 46.625 5.328125 
Q 49.703125 6.453125 52.234375 9.296875 
Q 54.78125 12.15625 57.328125 18.3125 
z
" id="TimesNewRomanPSMT-76"/>
      <path d="M 28.46875 6.453125 
Q 21.578125 1.125 19.828125 0.296875 
Q 17.1875 -0.921875 14.203125 -0.921875 
Q 9.578125 -0.921875 6.5625 2.25 
Q 3.5625 5.421875 3.5625 10.59375 
Q 3.5625 13.875 5.03125 16.265625 
Q 7.03125 19.578125 11.984375 22.5 
Q 16.9375 25.4375 28.46875 29.640625 
L 28.46875 31.390625 
Q 28.46875 38.09375 26.34375 40.578125 
Q 24.21875 43.0625 20.171875 43.0625 
Q 17.09375 43.0625 15.28125 41.40625 
Q 13.421875 39.75 13.421875 37.59375 
L 13.53125 34.765625 
Q 13.53125 32.515625 12.375 31.296875 
Q 11.234375 30.078125 9.375 30.078125 
Q 7.5625 30.078125 6.421875 31.34375 
Q 5.28125 32.625 5.28125 34.8125 
Q 5.28125 39.015625 9.578125 42.53125 
Q 13.875 46.046875 21.625 46.046875 
Q 27.59375 46.046875 31.390625 44.046875 
Q 34.28125 42.53125 35.640625 39.3125 
Q 36.53125 37.203125 36.53125 30.71875 
L 36.53125 15.53125 
Q 36.53125 9.125 36.765625 7.6875 
Q 37.015625 6.25 37.578125 5.765625 
Q 38.140625 5.28125 38.875 5.28125 
Q 39.65625 5.28125 40.234375 5.609375 
Q 41.265625 6.25 44.1875 9.1875 
L 44.1875 6.453125 
Q 38.71875 -0.875 33.734375 -0.875 
Q 31.34375 -0.875 29.921875 0.78125 
Q 28.515625 2.4375 28.46875 6.453125 
z
M 28.46875 9.625 
L 28.46875 26.65625 
Q 21.09375 23.734375 18.953125 22.515625 
Q 15.09375 20.359375 13.421875 18.015625 
Q 11.765625 15.671875 11.765625 12.890625 
Q 11.765625 9.375 13.859375 7.046875 
Q 15.96875 4.734375 18.703125 4.734375 
Q 22.40625 4.734375 28.46875 9.625 
z
" id="TimesNewRomanPSMT-97"/>
      <path d="M 34.71875 5.03125 
Q 31.453125 1.609375 28.328125 0.109375 
Q 25.203125 -1.375 21.578125 -1.375 
Q 14.265625 -1.375 8.796875 4.75 
Q 3.328125 10.890625 3.328125 20.515625 
Q 3.328125 30.125 9.375 38.109375 
Q 15.4375 46.09375 24.953125 46.09375 
Q 30.859375 46.09375 34.71875 42.328125 
L 34.71875 50.59375 
Q 34.71875 58.25 34.34375 60 
Q 33.984375 61.765625 33.203125 62.390625 
Q 32.421875 63.03125 31.25 63.03125 
Q 29.984375 63.03125 27.875 62.25 
L 27.25 63.96875 
L 40.578125 69.4375 
L 42.78125 69.4375 
L 42.78125 17.71875 
Q 42.78125 9.859375 43.140625 8.125 
Q 43.5 6.390625 44.3125 5.703125 
Q 45.125 5.03125 46.1875 5.03125 
Q 47.515625 5.03125 49.703125 5.859375 
L 50.25 4.15625 
L 36.96875 -1.375 
L 34.71875 -1.375 
z
M 34.71875 8.453125 
L 34.71875 31.5 
Q 34.421875 34.8125 32.953125 37.546875 
Q 31.5 40.28125 29.078125 41.671875 
Q 26.65625 43.0625 24.359375 43.0625 
Q 20.0625 43.0625 16.703125 39.203125 
Q 12.25 34.125 12.25 24.359375 
Q 12.25 14.5 16.546875 9.25 
Q 20.84375 4 26.125 4 
Q 30.5625 4 34.71875 8.453125 
z
" id="TimesNewRomanPSMT-100"/>
      <path d="M 20.453125 62.59375 
L 20.453125 36.578125 
L 32.515625 36.578125 
Q 36.671875 36.578125 38.59375 38.40625 
Q 40.53125 40.234375 41.15625 45.65625 
L 42.96875 45.65625 
L 42.96875 23.25 
L 41.15625 23.25 
Q 41.109375 27.09375 40.15625 28.90625 
Q 39.203125 30.71875 37.515625 31.609375 
Q 35.84375 32.515625 32.515625 32.515625 
L 20.453125 32.515625 
L 20.453125 11.71875 
Q 20.453125 6.6875 21.09375 5.078125 
Q 21.578125 3.859375 23.140625 2.984375 
Q 25.296875 1.8125 27.640625 1.8125 
L 30.03125 1.8125 
L 30.03125 0 
L 1.609375 0 
L 1.609375 1.8125 
L 3.953125 1.8125 
Q 8.0625 1.8125 9.90625 4.203125 
Q 11.078125 5.765625 11.078125 11.71875 
L 11.078125 54.5 
Q 11.078125 59.515625 10.453125 61.140625 
Q 9.96875 62.359375 8.453125 63.234375 
Q 6.34375 64.40625 3.953125 64.40625 
L 1.609375 64.40625 
L 1.609375 66.21875 
L 50.875 66.21875 
L 51.515625 51.65625 
L 49.8125 51.65625 
Q 48.53125 56.296875 46.84375 58.46875 
Q 45.171875 60.640625 42.703125 61.609375 
Q 40.234375 62.59375 35.0625 62.59375 
z
" id="TimesNewRomanPSMT-70"/>
      <path d="M 16.21875 46.046875 
L 16.21875 35.984375 
Q 21.828125 46.046875 27.734375 46.046875 
Q 30.421875 46.046875 32.171875 44.40625 
Q 33.9375 42.78125 33.9375 40.625 
Q 33.9375 38.71875 32.65625 37.390625 
Q 31.390625 36.078125 29.640625 36.078125 
Q 27.9375 36.078125 25.8125 37.765625 
Q 23.6875 39.453125 22.65625 39.453125 
Q 21.78125 39.453125 20.75 38.484375 
Q 18.5625 36.46875 16.21875 31.890625 
L 16.21875 10.453125 
Q 16.21875 6.734375 17.140625 4.828125 
Q 17.78125 3.515625 19.390625 2.640625 
Q 21 1.765625 24.03125 1.765625 
L 24.03125 0 
L 1.125 0 
L 1.125 1.765625 
Q 4.546875 1.765625 6.203125 2.828125 
Q 7.421875 3.609375 7.90625 5.328125 
Q 8.15625 6.15625 8.15625 10.0625 
L 8.15625 27.390625 
Q 8.15625 35.203125 7.828125 36.6875 
Q 7.515625 38.1875 6.65625 38.859375 
Q 5.8125 39.546875 4.546875 39.546875 
Q 3.03125 39.546875 1.125 38.8125 
L 0.640625 40.578125 
L 14.15625 46.046875 
z
" id="TimesNewRomanPSMT-114"/>
      <path d="M 16.15625 36.578125 
Q 24.03125 46.046875 31.15625 46.046875 
Q 34.8125 46.046875 37.453125 44.21875 
Q 40.09375 42.390625 41.65625 38.1875 
Q 42.71875 35.25 42.71875 29.203125 
L 42.71875 10.109375 
Q 42.71875 5.859375 43.40625 4.34375 
Q 43.953125 3.125 45.140625 2.4375 
Q 46.34375 1.765625 49.5625 1.765625 
L 49.5625 0 
L 27.4375 0 
L 27.4375 1.765625 
L 28.375 1.765625 
Q 31.5 1.765625 32.734375 2.703125 
Q 33.984375 3.65625 34.46875 5.515625 
Q 34.671875 6.25 34.671875 10.109375 
L 34.671875 28.421875 
Q 34.671875 34.515625 33.078125 37.28125 
Q 31.5 40.046875 27.734375 40.046875 
Q 21.921875 40.046875 16.15625 33.6875 
L 16.15625 10.109375 
Q 16.15625 5.5625 16.703125 4.5 
Q 17.390625 3.078125 18.578125 2.421875 
Q 19.78125 1.765625 23.4375 1.765625 
L 23.4375 0 
L 1.3125 0 
L 1.3125 1.765625 
L 2.296875 1.765625 
Q 5.71875 1.765625 6.90625 3.484375 
Q 8.109375 5.21875 8.109375 10.109375 
L 8.109375 26.703125 
Q 8.109375 34.765625 7.734375 36.515625 
Q 7.375 38.28125 6.609375 38.90625 
Q 5.859375 39.546875 4.59375 39.546875 
Q 3.21875 39.546875 1.3125 38.8125 
L 0.59375 40.578125 
L 14.0625 46.046875 
L 16.15625 46.046875 
z
" id="TimesNewRomanPSMT-110"/>
     </defs>
     <g style="fill:#262626;" transform="translate(32.20375 218.455187)rotate(-90)scale(0.14 -0.14)">
      <use xlink:href="#TimesNewRomanPSMT-76"/>
      <use x="61.083984" xlink:href="#TimesNewRomanPSMT-111"/>
      <use x="111.083984" xlink:href="#TimesNewRomanPSMT-97"/>
      <use x="155.46875" xlink:href="#TimesNewRomanPSMT-100"/>
      <use x="205.46875" xlink:href="#TimesNewRomanPSMT-32"/>
      <use x="230.46875" xlink:href="#TimesNewRomanPSMT-70"/>
      <use x="286.083984" xlink:href="#TimesNewRomanPSMT-97"/>
      <use x="330.46875" xlink:href="#TimesNewRomanPSMT-99"/>
      <use x="374.853516" xlink:href="#TimesNewRomanPSMT-116"/>
      <use x="402.636719" xlink:href="#TimesNewRomanPSMT-111"/>
      <use x="452.636719" xlink:href="#TimesNewRomanPSMT-114"/>
      <use x="485.9375" xlink:href="#TimesNewRomanPSMT-32"/>
      <use x="510.9375" xlink:href="#TimesNewRomanPSMT-40"/>
      <use x="544.238281" xlink:href="#TimesNewRomanPSMT-110"/>
      <use x="594.238281" xlink:href="#TimesNewRomanPSMT-41"/>
     </g>
    </g>
   </g>
   <g id="PolyCollection_1">
    <defs>
     <path d="M 114.930301 -151.518833 
L 114.930301 -190.625167 
L 116.124682 -191.448369 
L 117.319064 -192.288544 
L 118.513445 -193.145693 
L 119.707826 -194.019814 
L 120.902207 -194.910909 
L 122.096589 -195.818977 
L 123.29097 -196.744019 
L 124.485351 -197.686033 
L 125.679732 -198.645021 
L 126.874114 -199.620982 
L 128.068495 -200.613916 
L 129.262876 -201.623824 
L 130.457258 -202.650704 
L 131.651639 -203.694558 
L 132.84602 -204.755386 
L 134.040401 -205.833186 
L 135.234783 -206.92796 
L 136.429164 -208.039707 
L 137.623545 -209.168427 
L 138.817926 -210.31412 
L 140.012308 -211.476787 
L 141.206689 -212.656427 
L 142.40107 -213.85304 
L 143.595452 -215.066626 
L 144.789833 -216.297186 
L 145.984214 -217.544718 
L 147.178595 -218.809225 
L 148.372977 -220.090704 
L 149.567358 -221.389156 
L 150.761739 -222.704582 
L 151.95612 -224.036981 
L 153.150502 -225.386353 
L 154.344883 -226.752699 
L 155.539264 -228.136017 
L 156.733645 -229.536309 
L 157.928027 -230.953574 
L 159.122408 -232.387813 
L 160.316789 -233.839024 
L 161.511171 -235.307209 
L 162.705552 -236.792367 
L 163.899933 -238.294499 
L 165.094314 -239.813603 
L 166.288696 -241.349681 
L 167.483077 -242.902732 
L 168.677458 -244.472756 
L 169.871839 -246.059754 
L 171.066221 -247.663725 
L 172.260602 -249.284669 
L 173.454983 -250.922586 
L 174.649365 -252.577476 
L 175.843746 -254.24934 
L 177.038127 -255.938177 
L 178.232508 -257.643987 
L 179.42689 -259.36677 
L 180.621271 -261.106527 
L 181.815652 -262.863257 
L 183.010033 -264.63696 
L 184.204415 -266.112 
L 185.398796 -266.112 
L 186.593177 -266.112 
L 187.787559 -266.112 
L 188.98194 -266.112 
L 190.176321 -266.112 
L 191.370702 -266.112 
L 192.565084 -266.112 
L 193.759465 -266.112 
L 194.953846 -266.112 
L 196.148227 -266.112 
L 197.342609 -266.112 
L 198.53699 -266.112 
L 199.731371 -266.112 
L 200.925753 -266.112 
L 202.120134 -266.112 
L 203.314515 -266.112 
L 204.508896 -266.112 
L 205.703278 -266.112 
L 206.897659 -266.112 
L 208.09204 -266.112 
L 209.286421 -266.112 
L 210.480803 -266.112 
L 211.675184 -266.112 
L 212.869565 -266.112 
L 214.063946 -266.112 
L 215.258328 -266.112 
L 216.452709 -266.112 
L 217.64709 -266.112 
L 218.841472 -266.112 
L 220.035853 -266.112 
L 221.230234 -266.112 
L 222.424615 -266.112 
L 223.618997 -266.112 
L 224.813378 -266.112 
L 226.007759 -266.112 
L 227.20214 -266.112 
L 228.396522 -266.112 
L 229.590903 -266.112 
L 230.785284 -266.112 
L 231.979666 -266.112 
L 233.174047 -266.112 
L 234.368428 -266.112 
L 235.562809 -266.112 
L 236.757191 -266.112 
L 237.951572 -266.112 
L 239.145953 -266.112 
L 240.340334 -266.112 
L 241.534716 -266.112 
L 242.729097 -266.112 
L 243.923478 -266.112 
L 245.11786 -266.112 
L 246.312241 -266.112 
L 247.506622 -266.112 
L 248.701003 -266.112 
L 249.895385 -266.112 
L 251.089766 -266.112 
L 252.284147 -266.112 
L 253.478528 -266.112 
L 254.67291 -266.112 
L 255.867291 -266.112 
L 257.061672 -266.112 
L 258.256054 -266.112 
L 259.450435 -266.112 
L 260.644816 -266.112 
L 261.839197 -266.112 
L 263.033579 -266.112 
L 264.22796 -266.112 
L 265.422341 -266.112 
L 266.616722 -266.112 
L 267.811104 -266.112 
L 269.005485 -266.112 
L 270.199866 -266.112 
L 271.394247 -266.112 
L 272.588629 -266.112 
L 273.78301 -266.112 
L 274.977391 -266.112 
L 276.171773 -266.112 
L 277.366154 -266.112 
L 278.560535 -266.112 
L 279.754916 -266.112 
L 280.949298 -266.112 
L 282.143679 -266.112 
L 283.33806 -266.112 
L 284.532441 -266.112 
L 285.726823 -266.112 
L 286.921204 -266.112 
L 288.115585 -266.112 
L 289.309967 -266.112 
L 290.504348 -266.112 
L 291.698729 -266.112 
L 292.89311 -266.112 
L 294.087492 -266.112 
L 295.281873 -266.112 
L 296.476254 -266.112 
L 297.670635 -266.112 
L 298.865017 -266.112 
L 300.059398 -266.112 
L 301.253779 -266.112 
L 302.448161 -266.112 
L 303.642542 -266.112 
L 304.836923 -266.112 
L 306.031304 -266.112 
L 307.225686 -266.112 
L 308.420067 -266.112 
L 309.614448 -266.112 
L 310.808829 -266.112 
L 312.003211 -266.112 
L 313.197592 -266.112 
L 314.391973 -266.112 
L 315.586355 -266.112 
L 316.780736 -266.112 
L 317.975117 -266.112 
L 319.169498 -266.112 
L 320.36388 -266.112 
L 321.558261 -266.112 
L 322.752642 -266.112 
L 323.947023 -266.112 
L 325.141405 -266.112 
L 326.335786 -266.112 
L 327.530167 -266.112 
L 328.724548 -266.112 
L 329.91893 -266.112 
L 331.113311 -266.112 
L 332.307692 -266.112 
L 333.502074 -266.112 
L 334.696455 -266.112 
L 335.890836 -266.112 
L 337.085217 -266.112 
L 338.279599 -266.112 
L 339.47398 -266.112 
L 340.668361 -266.112 
L 341.862742 -266.112 
L 343.057124 -266.112 
L 344.251505 -266.112 
L 345.445886 -266.112 
L 346.640268 -266.112 
L 347.834649 -266.112 
L 349.02903 -266.112 
L 350.223411 -266.112 
L 351.417793 -266.112 
L 352.612174 -266.112 
L 353.806555 -266.112 
L 355.000936 -266.112 
L 356.195318 -266.112 
L 357.389699 -266.112 
L 358.58408 -266.112 
L 359.778462 -266.112 
L 360.972843 -266.112 
L 362.167224 -266.112 
L 363.361605 -266.112 
L 363.361605 -76.032 
L 363.361605 -76.032 
L 362.167224 -76.032 
L 360.972843 -76.032 
L 359.778462 -76.032 
L 358.58408 -76.032 
L 357.389699 -76.032 
L 356.195318 -76.032 
L 355.000936 -76.032 
L 353.806555 -76.032 
L 352.612174 -76.032 
L 351.417793 -76.032 
L 350.223411 -76.032 
L 349.02903 -76.032 
L 347.834649 -76.032 
L 346.640268 -76.032 
L 345.445886 -76.032 
L 344.251505 -76.032 
L 343.057124 -76.032 
L 341.862742 -76.032 
L 340.668361 -76.032 
L 339.47398 -76.032 
L 338.279599 -76.032 
L 337.085217 -76.032 
L 335.890836 -76.032 
L 334.696455 -76.032 
L 333.502074 -76.032 
L 332.307692 -76.032 
L 331.113311 -76.032 
L 329.91893 -76.032 
L 328.724548 -76.032 
L 327.530167 -76.032 
L 326.335786 -76.032 
L 325.141405 -76.032 
L 323.947023 -76.032 
L 322.752642 -76.032 
L 321.558261 -76.032 
L 320.36388 -76.032 
L 319.169498 -76.032 
L 317.975117 -76.032 
L 316.780736 -76.032 
L 315.586355 -76.032 
L 314.391973 -76.032 
L 313.197592 -76.032 
L 312.003211 -76.032 
L 310.808829 -76.032 
L 309.614448 -76.032 
L 308.420067 -76.032 
L 307.225686 -76.032 
L 306.031304 -76.032 
L 304.836923 -76.032 
L 303.642542 -76.032 
L 302.448161 -76.032 
L 301.253779 -76.032 
L 300.059398 -76.032 
L 298.865017 -76.032 
L 297.670635 -76.032 
L 296.476254 -76.032 
L 295.281873 -76.032 
L 294.087492 -76.032 
L 292.89311 -76.032 
L 291.698729 -76.032 
L 290.504348 -76.032 
L 289.309967 -76.032 
L 288.115585 -76.032 
L 286.921204 -76.032 
L 285.726823 -76.032 
L 284.532441 -76.032 
L 283.33806 -76.032 
L 282.143679 -76.032 
L 280.949298 -76.032 
L 279.754916 -76.032 
L 278.560535 -76.032 
L 277.366154 -76.032 
L 276.171773 -76.032 
L 274.977391 -76.032 
L 273.78301 -76.032 
L 272.588629 -76.032 
L 271.394247 -76.032 
L 270.199866 -76.032 
L 269.005485 -76.032 
L 267.811104 -76.032 
L 266.616722 -76.032 
L 265.422341 -76.032 
L 264.22796 -76.032 
L 263.033579 -76.032 
L 261.839197 -76.032 
L 260.644816 -76.032 
L 259.450435 -76.032 
L 258.256054 -76.032 
L 257.061672 -76.032 
L 255.867291 -76.032 
L 254.67291 -76.032 
L 253.478528 -76.032 
L 252.284147 -76.032 
L 251.089766 -76.032 
L 249.895385 -76.032 
L 248.701003 -76.032 
L 247.506622 -76.032 
L 246.312241 -76.032 
L 245.11786 -76.032 
L 243.923478 -76.032 
L 242.729097 -76.032 
L 241.534716 -76.032 
L 240.340334 -76.032 
L 239.145953 -76.032 
L 237.951572 -76.032 
L 236.757191 -76.032 
L 235.562809 -76.032 
L 234.368428 -76.032 
L 233.174047 -76.032 
L 231.979666 -76.032 
L 230.785284 -76.032 
L 229.590903 -76.032 
L 228.396522 -76.032 
L 227.20214 -76.032 
L 226.007759 -76.032 
L 224.813378 -76.032 
L 223.618997 -76.032 
L 222.424615 -76.032 
L 221.230234 -76.032 
L 220.035853 -76.032 
L 218.841472 -76.032 
L 217.64709 -76.032 
L 216.452709 -76.032 
L 215.258328 -76.032 
L 214.063946 -76.032 
L 212.869565 -76.032 
L 211.675184 -76.032 
L 210.480803 -76.032 
L 209.286421 -76.032 
L 208.09204 -76.032 
L 206.897659 -76.032 
L 205.703278 -76.032 
L 204.508896 -76.032 
L 203.314515 -76.032 
L 202.120134 -76.032 
L 200.925753 -76.032 
L 199.731371 -76.032 
L 198.53699 -76.032 
L 197.342609 -76.032 
L 196.148227 -76.032 
L 194.953846 -76.032 
L 193.759465 -76.032 
L 192.565084 -76.032 
L 191.370702 -76.032 
L 190.176321 -76.032 
L 188.98194 -76.032 
L 187.787559 -76.032 
L 186.593177 -76.032 
L 185.398796 -76.032 
L 184.204415 -76.032 
L 183.010033 -77.50704 
L 181.815652 -79.280743 
L 180.621271 -81.037473 
L 179.42689 -82.77723 
L 178.232508 -84.500013 
L 177.038127 -86.205823 
L 175.843746 -87.89466 
L 174.649365 -89.566524 
L 173.454983 -91.221414 
L 172.260602 -92.859331 
L 171.066221 -94.480275 
L 169.871839 -96.084246 
L 168.677458 -97.671244 
L 167.483077 -99.241268 
L 166.288696 -100.794319 
L 165.094314 -102.330397 
L 163.899933 -103.849501 
L 162.705552 -105.351633 
L 161.511171 -106.836791 
L 160.316789 -108.304976 
L 159.122408 -109.756187 
L 157.928027 -111.190426 
L 156.733645 -112.607691 
L 155.539264 -114.007983 
L 154.344883 -115.391301 
L 153.150502 -116.757647 
L 151.95612 -118.107019 
L 150.761739 -119.439418 
L 149.567358 -120.754844 
L 148.372977 -122.053296 
L 147.178595 -123.334775 
L 145.984214 -124.599282 
L 144.789833 -125.846814 
L 143.595452 -127.077374 
L 142.40107 -128.29096 
L 141.206689 -129.487573 
L 140.012308 -130.667213 
L 138.817926 -131.82988 
L 137.623545 -132.975573 
L 136.429164 -134.104293 
L 135.234783 -135.21604 
L 134.040401 -136.310814 
L 132.84602 -137.388614 
L 131.651639 -138.449442 
L 130.457258 -139.493296 
L 129.262876 -140.520176 
L 128.068495 -141.530084 
L 126.874114 -142.523018 
L 125.679732 -143.498979 
L 124.485351 -144.457967 
L 123.29097 -145.399981 
L 122.096589 -146.325023 
L 120.902207 -147.233091 
L 119.707826 -148.124186 
L 118.513445 -148.998307 
L 117.319064 -149.855456 
L 116.124682 -150.695631 
L 114.930301 -151.518833 
z
" id="m1a77b27f2f" style="stroke:#008000;stroke-opacity:0.1;"/>
    </defs>
    <g clip-path="url(#pf6ce808c78)">
     <use style="fill:#008000;fill-opacity:0.1;stroke:#008000;stroke-opacity:0.1;" x="0" xlink:href="#m1a77b27f2f" y="345.6"/>
    </g>
   </g>
   <g id="PolyCollection_2">
    <defs>
     <path d="M 364.555987 -76.032 
L 364.555987 -266.112 
L 365.750368 -266.112 
L 366.944749 -266.112 
L 368.13913 -266.112 
L 369.333512 -266.112 
L 370.527893 -266.112 
L 371.722274 -266.112 
L 372.916656 -266.112 
L 374.111037 -266.112 
L 375.305418 -266.112 
L 376.499799 -266.112 
L 377.694181 -266.112 
L 378.888562 -266.112 
L 380.082943 -266.112 
L 381.277324 -266.112 
L 382.471706 -266.112 
L 383.666087 -266.112 
L 384.860468 -266.112 
L 386.054849 -266.112 
L 387.249231 -266.112 
L 388.443612 -266.112 
L 389.637993 -266.112 
L 390.832375 -266.112 
L 392.026756 -266.112 
L 393.221137 -266.112 
L 394.415518 -266.112 
L 395.6099 -266.112 
L 396.804281 -266.112 
L 397.998662 -266.112 
L 399.193043 -266.112 
L 400.387425 -266.112 
L 401.581806 -266.112 
L 402.776187 -266.112 
L 403.970569 -266.112 
L 405.16495 -266.112 
L 406.359331 -266.112 
L 407.553712 -266.112 
L 408.748094 -266.112 
L 409.942475 -266.112 
L 411.136856 -266.112 
L 412.331237 -266.112 
L 413.525619 -266.112 
L 414.72 -266.112 
L 414.72 -76.032 
L 414.72 -76.032 
L 413.525619 -76.032 
L 412.331237 -76.032 
L 411.136856 -76.032 
L 409.942475 -76.032 
L 408.748094 -76.032 
L 407.553712 -76.032 
L 406.359331 -76.032 
L 405.16495 -76.032 
L 403.970569 -76.032 
L 402.776187 -76.032 
L 401.581806 -76.032 
L 400.387425 -76.032 
L 399.193043 -76.032 
L 397.998662 -76.032 
L 396.804281 -76.032 
L 395.6099 -76.032 
L 394.415518 -76.032 
L 393.221137 -76.032 
L 392.026756 -76.032 
L 390.832375 -76.032 
L 389.637993 -76.032 
L 388.443612 -76.032 
L 387.249231 -76.032 
L 386.054849 -76.032 
L 384.860468 -76.032 
L 383.666087 -76.032 
L 382.471706 -76.032 
L 381.277324 -76.032 
L 380.082943 -76.032 
L 378.888562 -76.032 
L 377.694181 -76.032 
L 376.499799 -76.032 
L 375.305418 -76.032 
L 374.111037 -76.032 
L 372.916656 -76.032 
L 371.722274 -76.032 
L 370.527893 -76.032 
L 369.333512 -76.032 
L 368.13913 -76.032 
L 366.944749 -76.032 
L 365.750368 -76.032 
L 364.555987 -76.032 
z
" id="m4b458d7103" style="stroke:#ff0000;stroke-opacity:0.1;"/>
    </defs>
    <g clip-path="url(#pf6ce808c78)">
     <use style="fill:#ff0000;fill-opacity:0.1;stroke:#ff0000;stroke-opacity:0.1;" x="0" xlink:href="#m4b458d7103" y="345.6"/>
    </g>
   </g>
   <g id="PolyCollection_3">
    <defs>
     <path d="M 57.6 -304.128 
L 57.6 -171.072 
L 58.794381 -171.080487 
L 59.988763 -171.105946 
L 61.183144 -171.14838 
L 62.377525 -171.207786 
L 63.571906 -171.284165 
L 64.766288 -171.377518 
L 65.960669 -171.487844 
L 67.15505 -171.615144 
L 68.349431 -171.759416 
L 69.543813 -171.920662 
L 70.738194 -172.098881 
L 71.932575 -172.294073 
L 73.126957 -172.506238 
L 74.321338 -172.735377 
L 75.515719 -172.981489 
L 76.7101 -173.244574 
L 77.904482 -173.524633 
L 79.098863 -173.821664 
L 80.293244 -174.135669 
L 81.487625 -174.466647 
L 82.682007 -174.814598 
L 83.876388 -175.179523 
L 85.070769 -175.561421 
L 86.265151 -175.960292 
L 87.459532 -176.376136 
L 88.653913 -176.808954 
L 89.848294 -177.258744 
L 91.042676 -177.725508 
L 92.237057 -178.209245 
L 93.431438 -178.709956 
L 94.625819 -179.22764 
L 95.820201 -179.762297 
L 97.014582 -180.313927 
L 98.208963 -180.88253 
L 99.403344 -181.468107 
L 100.597726 -182.070657 
L 101.792107 -182.69018 
L 102.986488 -183.326676 
L 104.18087 -183.980146 
L 105.375251 -184.650588 
L 106.569632 -185.338004 
L 107.764013 -186.042394 
L 108.958395 -186.763756 
L 110.152776 -187.502092 
L 111.347157 -188.257401 
L 112.541538 -189.029683 
L 113.73592 -189.818938 
L 114.930301 -190.625167 
L 116.124682 -191.448369 
L 117.319064 -192.288544 
L 118.513445 -193.145693 
L 119.707826 -194.019814 
L 120.902207 -194.910909 
L 122.096589 -195.818977 
L 123.29097 -196.744019 
L 124.485351 -197.686033 
L 125.679732 -198.645021 
L 126.874114 -199.620982 
L 128.068495 -200.613916 
L 129.262876 -201.623824 
L 130.457258 -202.650704 
L 131.651639 -203.694558 
L 132.84602 -204.755386 
L 134.040401 -205.833186 
L 135.234783 -206.92796 
L 136.429164 -208.039707 
L 137.623545 -209.168427 
L 138.817926 -210.31412 
L 140.012308 -211.476787 
L 141.206689 -212.656427 
L 142.40107 -213.85304 
L 143.595452 -215.066626 
L 144.789833 -216.297186 
L 145.984214 -217.544718 
L 147.178595 -218.809225 
L 148.372977 -220.090704 
L 149.567358 -221.389156 
L 150.761739 -222.704582 
L 151.95612 -224.036981 
L 153.150502 -225.386353 
L 154.344883 -226.752699 
L 155.539264 -228.136017 
L 156.733645 -229.536309 
L 157.928027 -230.953574 
L 159.122408 -232.387813 
L 160.316789 -233.839024 
L 161.511171 -235.307209 
L 162.705552 -236.792367 
L 163.899933 -238.294499 
L 165.094314 -239.813603 
L 166.288696 -241.349681 
L 167.483077 -242.902732 
L 168.677458 -244.472756 
L 169.871839 -246.059754 
L 171.066221 -247.663725 
L 172.260602 -249.284669 
L 173.454983 -250.922586 
L 174.649365 -252.577476 
L 175.843746 -254.24934 
L 177.038127 -255.938177 
L 178.232508 -257.643987 
L 179.42689 -259.36677 
L 180.621271 -261.106527 
L 181.815652 -262.863257 
L 183.010033 -264.63696 
L 184.204415 -266.112 
L 185.398796 -266.112 
L 186.593177 -266.112 
L 187.787559 -266.112 
L 188.98194 -266.112 
L 190.176321 -266.112 
L 191.370702 -266.112 
L 192.565084 -266.112 
L 193.759465 -266.112 
L 194.953846 -266.112 
L 196.148227 -266.112 
L 197.342609 -266.112 
L 198.53699 -266.112 
L 199.731371 -266.112 
L 200.925753 -266.112 
L 202.120134 -266.112 
L 203.314515 -266.112 
L 204.508896 -266.112 
L 205.703278 -266.112 
L 206.897659 -266.112 
L 208.09204 -266.112 
L 209.286421 -266.112 
L 210.480803 -266.112 
L 211.675184 -266.112 
L 212.869565 -266.112 
L 214.063946 -266.112 
L 215.258328 -266.112 
L 216.452709 -266.112 
L 217.64709 -266.112 
L 218.841472 -266.112 
L 220.035853 -266.112 
L 221.230234 -266.112 
L 222.424615 -266.112 
L 223.618997 -266.112 
L 224.813378 -266.112 
L 226.007759 -266.112 
L 227.20214 -266.112 
L 228.396522 -266.112 
L 229.590903 -266.112 
L 230.785284 -266.112 
L 231.979666 -266.112 
L 233.174047 -266.112 
L 234.368428 -266.112 
L 235.562809 -266.112 
L 236.757191 -266.112 
L 237.951572 -266.112 
L 239.145953 -266.112 
L 240.340334 -266.112 
L 241.534716 -266.112 
L 242.729097 -266.112 
L 243.923478 -266.112 
L 245.11786 -266.112 
L 246.312241 -266.112 
L 247.506622 -266.112 
L 248.701003 -266.112 
L 249.895385 -266.112 
L 251.089766 -266.112 
L 252.284147 -266.112 
L 253.478528 -266.112 
L 254.67291 -266.112 
L 255.867291 -266.112 
L 257.061672 -266.112 
L 258.256054 -266.112 
L 259.450435 -266.112 
L 260.644816 -266.112 
L 261.839197 -266.112 
L 263.033579 -266.112 
L 264.22796 -266.112 
L 265.422341 -266.112 
L 266.616722 -266.112 
L 267.811104 -266.112 
L 269.005485 -266.112 
L 270.199866 -266.112 
L 271.394247 -266.112 
L 272.588629 -266.112 
L 273.78301 -266.112 
L 274.977391 -266.112 
L 276.171773 -266.112 
L 277.366154 -266.112 
L 278.560535 -266.112 
L 279.754916 -266.112 
L 280.949298 -266.112 
L 282.143679 -266.112 
L 283.33806 -266.112 
L 284.532441 -266.112 
L 285.726823 -266.112 
L 286.921204 -266.112 
L 288.115585 -266.112 
L 289.309967 -266.112 
L 290.504348 -266.112 
L 291.698729 -266.112 
L 292.89311 -266.112 
L 294.087492 -266.112 
L 295.281873 -266.112 
L 296.476254 -266.112 
L 297.670635 -266.112 
L 298.865017 -266.112 
L 300.059398 -266.112 
L 301.253779 -266.112 
L 302.448161 -266.112 
L 303.642542 -266.112 
L 304.836923 -266.112 
L 306.031304 -266.112 
L 307.225686 -266.112 
L 308.420067 -266.112 
L 309.614448 -266.112 
L 310.808829 -266.112 
L 312.003211 -266.112 
L 313.197592 -266.112 
L 314.391973 -266.112 
L 315.586355 -266.112 
L 316.780736 -266.112 
L 317.975117 -266.112 
L 319.169498 -266.112 
L 320.36388 -266.112 
L 321.558261 -266.112 
L 322.752642 -266.112 
L 323.947023 -266.112 
L 325.141405 -266.112 
L 326.335786 -266.112 
L 327.530167 -266.112 
L 328.724548 -266.112 
L 329.91893 -266.112 
L 331.113311 -266.112 
L 332.307692 -266.112 
L 333.502074 -266.112 
L 334.696455 -266.112 
L 335.890836 -266.112 
L 337.085217 -266.112 
L 338.279599 -266.112 
L 339.47398 -266.112 
L 340.668361 -266.112 
L 341.862742 -266.112 
L 343.057124 -266.112 
L 344.251505 -266.112 
L 345.445886 -266.112 
L 346.640268 -266.112 
L 347.834649 -266.112 
L 349.02903 -266.112 
L 350.223411 -266.112 
L 351.417793 -266.112 
L 352.612174 -266.112 
L 353.806555 -266.112 
L 355.000936 -266.112 
L 356.195318 -266.112 
L 357.389699 -266.112 
L 358.58408 -266.112 
L 359.778462 -266.112 
L 360.972843 -266.112 
L 362.167224 -266.112 
L 363.361605 -266.112 
L 364.555987 -266.112 
L 365.750368 -266.112 
L 366.944749 -266.112 
L 368.13913 -266.112 
L 369.333512 -266.112 
L 370.527893 -266.112 
L 371.722274 -266.112 
L 372.916656 -266.112 
L 374.111037 -266.112 
L 375.305418 -266.112 
L 376.499799 -266.112 
L 377.694181 -266.112 
L 378.888562 -266.112 
L 380.082943 -266.112 
L 381.277324 -266.112 
L 382.471706 -266.112 
L 383.666087 -266.112 
L 384.860468 -266.112 
L 386.054849 -266.112 
L 387.249231 -266.112 
L 388.443612 -266.112 
L 389.637993 -266.112 
L 390.832375 -266.112 
L 392.026756 -266.112 
L 393.221137 -266.112 
L 394.415518 -266.112 
L 395.6099 -266.112 
L 396.804281 -266.112 
L 397.998662 -266.112 
L 399.193043 -266.112 
L 400.387425 -266.112 
L 401.581806 -266.112 
L 402.776187 -266.112 
L 403.970569 -266.112 
L 405.16495 -266.112 
L 406.359331 -266.112 
L 407.553712 -266.112 
L 408.748094 -266.112 
L 409.942475 -266.112 
L 411.136856 -266.112 
L 412.331237 -266.112 
L 413.525619 -266.112 
L 414.72 -266.112 
L 414.72 -304.128 
L 414.72 -304.128 
L 413.525619 -304.128 
L 412.331237 -304.128 
L 411.136856 -304.128 
L 409.942475 -304.128 
L 408.748094 -304.128 
L 407.553712 -304.128 
L 406.359331 -304.128 
L 405.16495 -304.128 
L 403.970569 -304.128 
L 402.776187 -304.128 
L 401.581806 -304.128 
L 400.387425 -304.128 
L 399.193043 -304.128 
L 397.998662 -304.128 
L 396.804281 -304.128 
L 395.6099 -304.128 
L 394.415518 -304.128 
L 393.221137 -304.128 
L 392.026756 -304.128 
L 390.832375 -304.128 
L 389.637993 -304.128 
L 388.443612 -304.128 
L 387.249231 -304.128 
L 386.054849 -304.128 
L 384.860468 -304.128 
L 383.666087 -304.128 
L 382.471706 -304.128 
L 381.277324 -304.128 
L 380.082943 -304.128 
L 378.888562 -304.128 
L 377.694181 -304.128 
L 376.499799 -304.128 
L 375.305418 -304.128 
L 374.111037 -304.128 
L 372.916656 -304.128 
L 371.722274 -304.128 
L 370.527893 -304.128 
L 369.333512 -304.128 
L 368.13913 -304.128 
L 366.944749 -304.128 
L 365.750368 -304.128 
L 364.555987 -304.128 
L 363.361605 -304.128 
L 362.167224 -304.128 
L 360.972843 -304.128 
L 359.778462 -304.128 
L 358.58408 -304.128 
L 357.389699 -304.128 
L 356.195318 -304.128 
L 355.000936 -304.128 
L 353.806555 -304.128 
L 352.612174 -304.128 
L 351.417793 -304.128 
L 350.223411 -304.128 
L 349.02903 -304.128 
L 347.834649 -304.128 
L 346.640268 -304.128 
L 345.445886 -304.128 
L 344.251505 -304.128 
L 343.057124 -304.128 
L 341.862742 -304.128 
L 340.668361 -304.128 
L 339.47398 -304.128 
L 338.279599 -304.128 
L 337.085217 -304.128 
L 335.890836 -304.128 
L 334.696455 -304.128 
L 333.502074 -304.128 
L 332.307692 -304.128 
L 331.113311 -304.128 
L 329.91893 -304.128 
L 328.724548 -304.128 
L 327.530167 -304.128 
L 326.335786 -304.128 
L 325.141405 -304.128 
L 323.947023 -304.128 
L 322.752642 -304.128 
L 321.558261 -304.128 
L 320.36388 -304.128 
L 319.169498 -304.128 
L 317.975117 -304.128 
L 316.780736 -304.128 
L 315.586355 -304.128 
L 314.391973 -304.128 
L 313.197592 -304.128 
L 312.003211 -304.128 
L 310.808829 -304.128 
L 309.614448 -304.128 
L 308.420067 -304.128 
L 307.225686 -304.128 
L 306.031304 -304.128 
L 304.836923 -304.128 
L 303.642542 -304.128 
L 302.448161 -304.128 
L 301.253779 -304.128 
L 300.059398 -304.128 
L 298.865017 -304.128 
L 297.670635 -304.128 
L 296.476254 -304.128 
L 295.281873 -304.128 
L 294.087492 -304.128 
L 292.89311 -304.128 
L 291.698729 -304.128 
L 290.504348 -304.128 
L 289.309967 -304.128 
L 288.115585 -304.128 
L 286.921204 -304.128 
L 285.726823 -304.128 
L 284.532441 -304.128 
L 283.33806 -304.128 
L 282.143679 -304.128 
L 280.949298 -304.128 
L 279.754916 -304.128 
L 278.560535 -304.128 
L 277.366154 -304.128 
L 276.171773 -304.128 
L 274.977391 -304.128 
L 273.78301 -304.128 
L 272.588629 -304.128 
L 271.394247 -304.128 
L 270.199866 -304.128 
L 269.005485 -304.128 
L 267.811104 -304.128 
L 266.616722 -304.128 
L 265.422341 -304.128 
L 264.22796 -304.128 
L 263.033579 -304.128 
L 261.839197 -304.128 
L 260.644816 -304.128 
L 259.450435 -304.128 
L 258.256054 -304.128 
L 257.061672 -304.128 
L 255.867291 -304.128 
L 254.67291 -304.128 
L 253.478528 -304.128 
L 252.284147 -304.128 
L 251.089766 -304.128 
L 249.895385 -304.128 
L 248.701003 -304.128 
L 247.506622 -304.128 
L 246.312241 -304.128 
L 245.11786 -304.128 
L 243.923478 -304.128 
L 242.729097 -304.128 
L 241.534716 -304.128 
L 240.340334 -304.128 
L 239.145953 -304.128 
L 237.951572 -304.128 
L 236.757191 -304.128 
L 235.562809 -304.128 
L 234.368428 -304.128 
L 233.174047 -304.128 
L 231.979666 -304.128 
L 230.785284 -304.128 
L 229.590903 -304.128 
L 228.396522 -304.128 
L 227.20214 -304.128 
L 226.007759 -304.128 
L 224.813378 -304.128 
L 223.618997 -304.128 
L 222.424615 -304.128 
L 221.230234 -304.128 
L 220.035853 -304.128 
L 218.841472 -304.128 
L 217.64709 -304.128 
L 216.452709 -304.128 
L 215.258328 -304.128 
L 214.063946 -304.128 
L 212.869565 -304.128 
L 211.675184 -304.128 
L 210.480803 -304.128 
L 209.286421 -304.128 
L 208.09204 -304.128 
L 206.897659 -304.128 
L 205.703278 -304.128 
L 204.508896 -304.128 
L 203.314515 -304.128 
L 202.120134 -304.128 
L 200.925753 -304.128 
L 199.731371 -304.128 
L 198.53699 -304.128 
L 197.342609 -304.128 
L 196.148227 -304.128 
L 194.953846 -304.128 
L 193.759465 -304.128 
L 192.565084 -304.128 
L 191.370702 -304.128 
L 190.176321 -304.128 
L 188.98194 -304.128 
L 187.787559 -304.128 
L 186.593177 -304.128 
L 185.398796 -304.128 
L 184.204415 -304.128 
L 183.010033 -304.128 
L 181.815652 -304.128 
L 180.621271 -304.128 
L 179.42689 -304.128 
L 178.232508 -304.128 
L 177.038127 -304.128 
L 175.843746 -304.128 
L 174.649365 -304.128 
L 173.454983 -304.128 
L 172.260602 -304.128 
L 171.066221 -304.128 
L 169.871839 -304.128 
L 168.677458 -304.128 
L 167.483077 -304.128 
L 166.288696 -304.128 
L 165.094314 -304.128 
L 163.899933 -304.128 
L 162.705552 -304.128 
L 161.511171 -304.128 
L 160.316789 -304.128 
L 159.122408 -304.128 
L 157.928027 -304.128 
L 156.733645 -304.128 
L 155.539264 -304.128 
L 154.344883 -304.128 
L 153.150502 -304.128 
L 151.95612 -304.128 
L 150.761739 -304.128 
L 149.567358 -304.128 
L 148.372977 -304.128 
L 147.178595 -304.128 
L 145.984214 -304.128 
L 144.789833 -304.128 
L 143.595452 -304.128 
L 142.40107 -304.128 
L 141.206689 -304.128 
L 140.012308 -304.128 
L 138.817926 -304.128 
L 137.623545 -304.128 
L 136.429164 -304.128 
L 135.234783 -304.128 
L 134.040401 -304.128 
L 132.84602 -304.128 
L 131.651639 -304.128 
L 130.457258 -304.128 
L 129.262876 -304.128 
L 128.068495 -304.128 
L 126.874114 -304.128 
L 125.679732 -304.128 
L 124.485351 -304.128 
L 123.29097 -304.128 
L 122.096589 -304.128 
L 120.902207 -304.128 
L 119.707826 -304.128 
L 118.513445 -304.128 
L 117.319064 -304.128 
L 116.124682 -304.128 
L 114.930301 -304.128 
L 113.73592 -304.128 
L 112.541538 -304.128 
L 111.347157 -304.128 
L 110.152776 -304.128 
L 108.958395 -304.128 
L 107.764013 -304.128 
L 106.569632 -304.128 
L 105.375251 -304.128 
L 104.18087 -304.128 
L 102.986488 -304.128 
L 101.792107 -304.128 
L 100.597726 -304.128 
L 99.403344 -304.128 
L 98.208963 -304.128 
L 97.014582 -304.128 
L 95.820201 -304.128 
L 94.625819 -304.128 
L 93.431438 -304.128 
L 92.237057 -304.128 
L 91.042676 -304.128 
L 89.848294 -304.128 
L 88.653913 -304.128 
L 87.459532 -304.128 
L 86.265151 -304.128 
L 85.070769 -304.128 
L 83.876388 -304.128 
L 82.682007 -304.128 
L 81.487625 -304.128 
L 80.293244 -304.128 
L 79.098863 -304.128 
L 77.904482 -304.128 
L 76.7101 -304.128 
L 75.515719 -304.128 
L 74.321338 -304.128 
L 73.126957 -304.128 
L 71.932575 -304.128 
L 70.738194 -304.128 
L 69.543813 -304.128 
L 68.349431 -304.128 
L 67.15505 -304.128 
L 65.960669 -304.128 
L 64.766288 -304.128 
L 63.571906 -304.128 
L 62.377525 -304.128 
L 61.183144 -304.128 
L 59.988763 -304.128 
L 58.794381 -304.128 
L 57.6 -304.128 
z
" id="m8cf972fefc" style="stroke:#ff0000;stroke-opacity:0.1;"/>
    </defs>
    <g clip-path="url(#pf6ce808c78)">
     <use style="fill:#ff0000;fill-opacity:0.1;stroke:#ff0000;stroke-opacity:0.1;" x="0" xlink:href="#m8cf972fefc" y="345.6"/>
    </g>
   </g>
   <g id="PolyCollection_4">
    <defs>
     <path d="M 57.6 -38.016 
L 57.6 -171.072 
L 58.794381 -171.063513 
L 59.988763 -171.038054 
L 61.183144 -170.99562 
L 62.377525 -170.936214 
L 63.571906 -170.859835 
L 64.766288 -170.766482 
L 65.960669 -170.656156 
L 67.15505 -170.528856 
L 68.349431 -170.384584 
L 69.543813 -170.223338 
L 70.738194 -170.045119 
L 71.932575 -169.849927 
L 73.126957 -169.637762 
L 74.321338 -169.408623 
L 75.515719 -169.162511 
L 76.7101 -168.899426 
L 77.904482 -168.619367 
L 79.098863 -168.322336 
L 80.293244 -168.008331 
L 81.487625 -167.677353 
L 82.682007 -167.329402 
L 83.876388 -166.964477 
L 85.070769 -166.582579 
L 86.265151 -166.183708 
L 87.459532 -165.767864 
L 88.653913 -165.335046 
L 89.848294 -164.885256 
L 91.042676 -164.418492 
L 92.237057 -163.934755 
L 93.431438 -163.434044 
L 94.625819 -162.91636 
L 95.820201 -162.381703 
L 97.014582 -161.830073 
L 98.208963 -161.26147 
L 99.403344 -160.675893 
L 100.597726 -160.073343 
L 101.792107 -159.45382 
L 102.986488 -158.817324 
L 104.18087 -158.163854 
L 105.375251 -157.493412 
L 106.569632 -156.805996 
L 107.764013 -156.101606 
L 108.958395 -155.380244 
L 110.152776 -154.641908 
L 111.347157 -153.886599 
L 112.541538 -153.114317 
L 113.73592 -152.325062 
L 114.930301 -151.518833 
L 116.124682 -150.695631 
L 117.319064 -149.855456 
L 118.513445 -148.998307 
L 119.707826 -148.124186 
L 120.902207 -147.233091 
L 122.096589 -146.325023 
L 123.29097 -145.399981 
L 124.485351 -144.457967 
L 125.679732 -143.498979 
L 126.874114 -142.523018 
L 128.068495 -141.530084 
L 129.262876 -140.520176 
L 130.457258 -139.493296 
L 131.651639 -138.449442 
L 132.84602 -137.388614 
L 134.040401 -136.310814 
L 135.234783 -135.21604 
L 136.429164 -134.104293 
L 137.623545 -132.975573 
L 138.817926 -131.82988 
L 140.012308 -130.667213 
L 141.206689 -129.487573 
L 142.40107 -128.29096 
L 143.595452 -127.077374 
L 144.789833 -125.846814 
L 145.984214 -124.599282 
L 147.178595 -123.334775 
L 148.372977 -122.053296 
L 149.567358 -120.754844 
L 150.761739 -119.439418 
L 151.95612 -118.107019 
L 153.150502 -116.757647 
L 154.344883 -115.391301 
L 155.539264 -114.007983 
L 156.733645 -112.607691 
L 157.928027 -111.190426 
L 159.122408 -109.756187 
L 160.316789 -108.304976 
L 161.511171 -106.836791 
L 162.705552 -105.351633 
L 163.899933 -103.849501 
L 165.094314 -102.330397 
L 166.288696 -100.794319 
L 167.483077 -99.241268 
L 168.677458 -97.671244 
L 169.871839 -96.084246 
L 171.066221 -94.480275 
L 172.260602 -92.859331 
L 173.454983 -91.221414 
L 174.649365 -89.566524 
L 175.843746 -87.89466 
L 177.038127 -86.205823 
L 178.232508 -84.500013 
L 179.42689 -82.77723 
L 180.621271 -81.037473 
L 181.815652 -79.280743 
L 183.010033 -77.50704 
L 184.204415 -76.032 
L 185.398796 -76.032 
L 186.593177 -76.032 
L 187.787559 -76.032 
L 188.98194 -76.032 
L 190.176321 -76.032 
L 191.370702 -76.032 
L 192.565084 -76.032 
L 193.759465 -76.032 
L 194.953846 -76.032 
L 196.148227 -76.032 
L 197.342609 -76.032 
L 198.53699 -76.032 
L 199.731371 -76.032 
L 200.925753 -76.032 
L 202.120134 -76.032 
L 203.314515 -76.032 
L 204.508896 -76.032 
L 205.703278 -76.032 
L 206.897659 -76.032 
L 208.09204 -76.032 
L 209.286421 -76.032 
L 210.480803 -76.032 
L 211.675184 -76.032 
L 212.869565 -76.032 
L 214.063946 -76.032 
L 215.258328 -76.032 
L 216.452709 -76.032 
L 217.64709 -76.032 
L 218.841472 -76.032 
L 220.035853 -76.032 
L 221.230234 -76.032 
L 222.424615 -76.032 
L 223.618997 -76.032 
L 224.813378 -76.032 
L 226.007759 -76.032 
L 227.20214 -76.032 
L 228.396522 -76.032 
L 229.590903 -76.032 
L 230.785284 -76.032 
L 231.979666 -76.032 
L 233.174047 -76.032 
L 234.368428 -76.032 
L 235.562809 -76.032 
L 236.757191 -76.032 
L 237.951572 -76.032 
L 239.145953 -76.032 
L 240.340334 -76.032 
L 241.534716 -76.032 
L 242.729097 -76.032 
L 243.923478 -76.032 
L 245.11786 -76.032 
L 246.312241 -76.032 
L 247.506622 -76.032 
L 248.701003 -76.032 
L 249.895385 -76.032 
L 251.089766 -76.032 
L 252.284147 -76.032 
L 253.478528 -76.032 
L 254.67291 -76.032 
L 255.867291 -76.032 
L 257.061672 -76.032 
L 258.256054 -76.032 
L 259.450435 -76.032 
L 260.644816 -76.032 
L 261.839197 -76.032 
L 263.033579 -76.032 
L 264.22796 -76.032 
L 265.422341 -76.032 
L 266.616722 -76.032 
L 267.811104 -76.032 
L 269.005485 -76.032 
L 270.199866 -76.032 
L 271.394247 -76.032 
L 272.588629 -76.032 
L 273.78301 -76.032 
L 274.977391 -76.032 
L 276.171773 -76.032 
L 277.366154 -76.032 
L 278.560535 -76.032 
L 279.754916 -76.032 
L 280.949298 -76.032 
L 282.143679 -76.032 
L 283.33806 -76.032 
L 284.532441 -76.032 
L 285.726823 -76.032 
L 286.921204 -76.032 
L 288.115585 -76.032 
L 289.309967 -76.032 
L 290.504348 -76.032 
L 291.698729 -76.032 
L 292.89311 -76.032 
L 294.087492 -76.032 
L 295.281873 -76.032 
L 296.476254 -76.032 
L 297.670635 -76.032 
L 298.865017 -76.032 
L 300.059398 -76.032 
L 301.253779 -76.032 
L 302.448161 -76.032 
L 303.642542 -76.032 
L 304.836923 -76.032 
L 306.031304 -76.032 
L 307.225686 -76.032 
L 308.420067 -76.032 
L 309.614448 -76.032 
L 310.808829 -76.032 
L 312.003211 -76.032 
L 313.197592 -76.032 
L 314.391973 -76.032 
L 315.586355 -76.032 
L 316.780736 -76.032 
L 317.975117 -76.032 
L 319.169498 -76.032 
L 320.36388 -76.032 
L 321.558261 -76.032 
L 322.752642 -76.032 
L 323.947023 -76.032 
L 325.141405 -76.032 
L 326.335786 -76.032 
L 327.530167 -76.032 
L 328.724548 -76.032 
L 329.91893 -76.032 
L 331.113311 -76.032 
L 332.307692 -76.032 
L 333.502074 -76.032 
L 334.696455 -76.032 
L 335.890836 -76.032 
L 337.085217 -76.032 
L 338.279599 -76.032 
L 339.47398 -76.032 
L 340.668361 -76.032 
L 341.862742 -76.032 
L 343.057124 -76.032 
L 344.251505 -76.032 
L 345.445886 -76.032 
L 346.640268 -76.032 
L 347.834649 -76.032 
L 349.02903 -76.032 
L 350.223411 -76.032 
L 351.417793 -76.032 
L 352.612174 -76.032 
L 353.806555 -76.032 
L 355.000936 -76.032 
L 356.195318 -76.032 
L 357.389699 -76.032 
L 358.58408 -76.032 
L 359.778462 -76.032 
L 360.972843 -76.032 
L 362.167224 -76.032 
L 363.361605 -76.032 
L 364.555987 -76.032 
L 365.750368 -76.032 
L 366.944749 -76.032 
L 368.13913 -76.032 
L 369.333512 -76.032 
L 370.527893 -76.032 
L 371.722274 -76.032 
L 372.916656 -76.032 
L 374.111037 -76.032 
L 375.305418 -76.032 
L 376.499799 -76.032 
L 377.694181 -76.032 
L 378.888562 -76.032 
L 380.082943 -76.032 
L 381.277324 -76.032 
L 382.471706 -76.032 
L 383.666087 -76.032 
L 384.860468 -76.032 
L 386.054849 -76.032 
L 387.249231 -76.032 
L 388.443612 -76.032 
L 389.637993 -76.032 
L 390.832375 -76.032 
L 392.026756 -76.032 
L 393.221137 -76.032 
L 394.415518 -76.032 
L 395.6099 -76.032 
L 396.804281 -76.032 
L 397.998662 -76.032 
L 399.193043 -76.032 
L 400.387425 -76.032 
L 401.581806 -76.032 
L 402.776187 -76.032 
L 403.970569 -76.032 
L 405.16495 -76.032 
L 406.359331 -76.032 
L 407.553712 -76.032 
L 408.748094 -76.032 
L 409.942475 -76.032 
L 411.136856 -76.032 
L 412.331237 -76.032 
L 413.525619 -76.032 
L 414.72 -76.032 
L 414.72 -38.016 
L 414.72 -38.016 
L 413.525619 -38.016 
L 412.331237 -38.016 
L 411.136856 -38.016 
L 409.942475 -38.016 
L 408.748094 -38.016 
L 407.553712 -38.016 
L 406.359331 -38.016 
L 405.16495 -38.016 
L 403.970569 -38.016 
L 402.776187 -38.016 
L 401.581806 -38.016 
L 400.387425 -38.016 
L 399.193043 -38.016 
L 397.998662 -38.016 
L 396.804281 -38.016 
L 395.6099 -38.016 
L 394.415518 -38.016 
L 393.221137 -38.016 
L 392.026756 -38.016 
L 390.832375 -38.016 
L 389.637993 -38.016 
L 388.443612 -38.016 
L 387.249231 -38.016 
L 386.054849 -38.016 
L 384.860468 -38.016 
L 383.666087 -38.016 
L 382.471706 -38.016 
L 381.277324 -38.016 
L 380.082943 -38.016 
L 378.888562 -38.016 
L 377.694181 -38.016 
L 376.499799 -38.016 
L 375.305418 -38.016 
L 374.111037 -38.016 
L 372.916656 -38.016 
L 371.722274 -38.016 
L 370.527893 -38.016 
L 369.333512 -38.016 
L 368.13913 -38.016 
L 366.944749 -38.016 
L 365.750368 -38.016 
L 364.555987 -38.016 
L 363.361605 -38.016 
L 362.167224 -38.016 
L 360.972843 -38.016 
L 359.778462 -38.016 
L 358.58408 -38.016 
L 357.389699 -38.016 
L 356.195318 -38.016 
L 355.000936 -38.016 
L 353.806555 -38.016 
L 352.612174 -38.016 
L 351.417793 -38.016 
L 350.223411 -38.016 
L 349.02903 -38.016 
L 347.834649 -38.016 
L 346.640268 -38.016 
L 345.445886 -38.016 
L 344.251505 -38.016 
L 343.057124 -38.016 
L 341.862742 -38.016 
L 340.668361 -38.016 
L 339.47398 -38.016 
L 338.279599 -38.016 
L 337.085217 -38.016 
L 335.890836 -38.016 
L 334.696455 -38.016 
L 333.502074 -38.016 
L 332.307692 -38.016 
L 331.113311 -38.016 
L 329.91893 -38.016 
L 328.724548 -38.016 
L 327.530167 -38.016 
L 326.335786 -38.016 
L 325.141405 -38.016 
L 323.947023 -38.016 
L 322.752642 -38.016 
L 321.558261 -38.016 
L 320.36388 -38.016 
L 319.169498 -38.016 
L 317.975117 -38.016 
L 316.780736 -38.016 
L 315.586355 -38.016 
L 314.391973 -38.016 
L 313.197592 -38.016 
L 312.003211 -38.016 
L 310.808829 -38.016 
L 309.614448 -38.016 
L 308.420067 -38.016 
L 307.225686 -38.016 
L 306.031304 -38.016 
L 304.836923 -38.016 
L 303.642542 -38.016 
L 302.448161 -38.016 
L 301.253779 -38.016 
L 300.059398 -38.016 
L 298.865017 -38.016 
L 297.670635 -38.016 
L 296.476254 -38.016 
L 295.281873 -38.016 
L 294.087492 -38.016 
L 292.89311 -38.016 
L 291.698729 -38.016 
L 290.504348 -38.016 
L 289.309967 -38.016 
L 288.115585 -38.016 
L 286.921204 -38.016 
L 285.726823 -38.016 
L 284.532441 -38.016 
L 283.33806 -38.016 
L 282.143679 -38.016 
L 280.949298 -38.016 
L 279.754916 -38.016 
L 278.560535 -38.016 
L 277.366154 -38.016 
L 276.171773 -38.016 
L 274.977391 -38.016 
L 273.78301 -38.016 
L 272.588629 -38.016 
L 271.394247 -38.016 
L 270.199866 -38.016 
L 269.005485 -38.016 
L 267.811104 -38.016 
L 266.616722 -38.016 
L 265.422341 -38.016 
L 264.22796 -38.016 
L 263.033579 -38.016 
L 261.839197 -38.016 
L 260.644816 -38.016 
L 259.450435 -38.016 
L 258.256054 -38.016 
L 257.061672 -38.016 
L 255.867291 -38.016 
L 254.67291 -38.016 
L 253.478528 -38.016 
L 252.284147 -38.016 
L 251.089766 -38.016 
L 249.895385 -38.016 
L 248.701003 -38.016 
L 247.506622 -38.016 
L 246.312241 -38.016 
L 245.11786 -38.016 
L 243.923478 -38.016 
L 242.729097 -38.016 
L 241.534716 -38.016 
L 240.340334 -38.016 
L 239.145953 -38.016 
L 237.951572 -38.016 
L 236.757191 -38.016 
L 235.562809 -38.016 
L 234.368428 -38.016 
L 233.174047 -38.016 
L 231.979666 -38.016 
L 230.785284 -38.016 
L 229.590903 -38.016 
L 228.396522 -38.016 
L 227.20214 -38.016 
L 226.007759 -38.016 
L 224.813378 -38.016 
L 223.618997 -38.016 
L 222.424615 -38.016 
L 221.230234 -38.016 
L 220.035853 -38.016 
L 218.841472 -38.016 
L 217.64709 -38.016 
L 216.452709 -38.016 
L 215.258328 -38.016 
L 214.063946 -38.016 
L 212.869565 -38.016 
L 211.675184 -38.016 
L 210.480803 -38.016 
L 209.286421 -38.016 
L 208.09204 -38.016 
L 206.897659 -38.016 
L 205.703278 -38.016 
L 204.508896 -38.016 
L 203.314515 -38.016 
L 202.120134 -38.016 
L 200.925753 -38.016 
L 199.731371 -38.016 
L 198.53699 -38.016 
L 197.342609 -38.016 
L 196.148227 -38.016 
L 194.953846 -38.016 
L 193.759465 -38.016 
L 192.565084 -38.016 
L 191.370702 -38.016 
L 190.176321 -38.016 
L 188.98194 -38.016 
L 187.787559 -38.016 
L 186.593177 -38.016 
L 185.398796 -38.016 
L 184.204415 -38.016 
L 183.010033 -38.016 
L 181.815652 -38.016 
L 180.621271 -38.016 
L 179.42689 -38.016 
L 178.232508 -38.016 
L 177.038127 -38.016 
L 175.843746 -38.016 
L 174.649365 -38.016 
L 173.454983 -38.016 
L 172.260602 -38.016 
L 171.066221 -38.016 
L 169.871839 -38.016 
L 168.677458 -38.016 
L 167.483077 -38.016 
L 166.288696 -38.016 
L 165.094314 -38.016 
L 163.899933 -38.016 
L 162.705552 -38.016 
L 161.511171 -38.016 
L 160.316789 -38.016 
L 159.122408 -38.016 
L 157.928027 -38.016 
L 156.733645 -38.016 
L 155.539264 -38.016 
L 154.344883 -38.016 
L 153.150502 -38.016 
L 151.95612 -38.016 
L 150.761739 -38.016 
L 149.567358 -38.016 
L 148.372977 -38.016 
L 147.178595 -38.016 
L 145.984214 -38.016 
L 144.789833 -38.016 
L 143.595452 -38.016 
L 142.40107 -38.016 
L 141.206689 -38.016 
L 140.012308 -38.016 
L 138.817926 -38.016 
L 137.623545 -38.016 
L 136.429164 -38.016 
L 135.234783 -38.016 
L 134.040401 -38.016 
L 132.84602 -38.016 
L 131.651639 -38.016 
L 130.457258 -38.016 
L 129.262876 -38.016 
L 128.068495 -38.016 
L 126.874114 -38.016 
L 125.679732 -38.016 
L 124.485351 -38.016 
L 123.29097 -38.016 
L 122.096589 -38.016 
L 120.902207 -38.016 
L 119.707826 -38.016 
L 118.513445 -38.016 
L 117.319064 -38.016 
L 116.124682 -38.016 
L 114.930301 -38.016 
L 113.73592 -38.016 
L 112.541538 -38.016 
L 111.347157 -38.016 
L 110.152776 -38.016 
L 108.958395 -38.016 
L 107.764013 -38.016 
L 106.569632 -38.016 
L 105.375251 -38.016 
L 104.18087 -38.016 
L 102.986488 -38.016 
L 101.792107 -38.016 
L 100.597726 -38.016 
L 99.403344 -38.016 
L 98.208963 -38.016 
L 97.014582 -38.016 
L 95.820201 -38.016 
L 94.625819 -38.016 
L 93.431438 -38.016 
L 92.237057 -38.016 
L 91.042676 -38.016 
L 89.848294 -38.016 
L 88.653913 -38.016 
L 87.459532 -38.016 
L 86.265151 -38.016 
L 85.070769 -38.016 
L 83.876388 -38.016 
L 82.682007 -38.016 
L 81.487625 -38.016 
L 80.293244 -38.016 
L 79.098863 -38.016 
L 77.904482 -38.016 
L 76.7101 -38.016 
L 75.515719 -38.016 
L 74.321338 -38.016 
L 73.126957 -38.016 
L 71.932575 -38.016 
L 70.738194 -38.016 
L 69.543813 -38.016 
L 68.349431 -38.016 
L 67.15505 -38.016 
L 65.960669 -38.016 
L 64.766288 -38.016 
L 63.571906 -38.016 
L 62.377525 -38.016 
L 61.183144 -38.016 
L 59.988763 -38.016 
L 58.794381 -38.016 
L 57.6 -38.016 
z
" id="mf5129d171e" style="stroke:#ff0000;stroke-opacity:0.1;"/>
    </defs>
    <g clip-path="url(#pf6ce808c78)">
     <use style="fill:#ff0000;fill-opacity:0.1;stroke:#ff0000;stroke-opacity:0.1;" x="0" xlink:href="#mf5129d171e" y="345.6"/>
    </g>
   </g>
   <g id="LineCollection_1">
    <path clip-path="url(#pf6ce808c78)" d="M 114.12543 155.52 
L 363.702857 155.52 
" style="fill:none;stroke:#008000;stroke-dasharray:3.7,1.6;stroke-dashoffset:0;"/>
   </g>
   <g id="LineCollection_2">
    <path clip-path="url(#pf6ce808c78)" d="M 114.12543 193.536 
L 363.702857 193.536 
" style="fill:none;stroke:#008000;stroke-dasharray:3.7,1.6;stroke-dashoffset:0;"/>
   </g>
   <g id="LineCollection_3">
    <path clip-path="url(#pf6ce808c78)" d="M 114.12543 193.536 
L 114.12543 155.52 
" style="fill:none;stroke:#0000ff;stroke-dasharray:3.7,1.6;stroke-dashoffset:0;stroke-opacity:0.5;"/>
   </g>
   <g id="LineCollection_4">
    <path clip-path="url(#pf6ce808c78)" d="M 363.702857 269.568 
L 363.702857 79.488 
" style="fill:none;stroke:#800080;"/>
   </g>
   <g id="LineCollection_5">
    <path clip-path="url(#pf6ce808c78)" d="M 57.6 174.528 
L 414.72 174.528 
" style="fill:none;stroke:#000000;stroke-width:0.5;"/>
   </g>
   <g id="line2d_23">
    <path clip-path="url(#pf6ce808c78)" d="M 57.6 174.528 
L 62.377525 174.392214 
L 67.15505 173.984856 
L 71.932575 173.305927 
L 76.7101 172.355426 
L 81.487625 171.133353 
L 86.265151 169.639708 
L 91.042676 167.874492 
L 95.820201 165.837703 
L 100.597726 163.529343 
L 105.375251 160.949412 
L 110.152776 158.097908 
L 114.930301 154.974833 
L 119.707826 151.580186 
L 124.485351 147.913967 
L 129.262876 143.976176 
L 134.040401 139.766814 
L 138.817926 135.28588 
L 143.595452 130.533374 
L 148.372977 125.509296 
L 153.150502 120.213647 
L 157.928027 114.646426 
L 163.899933 107.305501 
L 169.871839 99.540246 
L 175.843746 91.35066 
L 181.815652 82.736743 
L 183.010033 80.96304 
L 184.204415 79.488 
L 414.72 79.488 
L 414.72 79.488 
" style="fill:none;stroke:#ff0000;stroke-linecap:round;"/>
   </g>
   <g id="line2d_24">
    <path clip-path="url(#pf6ce808c78)" d="M 57.6 174.528 
L 62.377525 174.663786 
L 67.15505 175.071144 
L 71.932575 175.750073 
L 76.7101 176.700574 
L 81.487625 177.922647 
L 86.265151 179.416292 
L 91.042676 181.181508 
L 95.820201 183.218297 
L 100.597726 185.526657 
L 105.375251 188.106588 
L 110.152776 190.958092 
L 114.930301 194.081167 
L 119.707826 197.475814 
L 124.485351 201.142033 
L 129.262876 205.079824 
L 134.040401 209.289186 
L 138.817926 213.77012 
L 143.595452 218.522626 
L 148.372977 223.546704 
L 153.150502 228.842353 
L 157.928027 234.409574 
L 163.899933 241.750499 
L 169.871839 249.515754 
L 175.843746 257.70534 
L 181.815652 266.319257 
L 183.010033 268.09296 
L 184.204415 269.568 
L 414.72 269.568 
L 414.72 269.568 
" style="fill:none;stroke:#ff0000;stroke-linecap:round;"/>
   </g>
   <g id="patch_3">
    <path d="M 57.6 307.584 
L 57.6 41.472 
" style="fill:none;stroke:#cccccc;stroke-linecap:square;stroke-linejoin:miter;stroke-width:0.8;"/>
   </g>
   <g id="patch_4">
    <path d="M 414.72 307.584 
L 414.72 41.472 
" style="fill:none;stroke:#cccccc;stroke-linecap:square;stroke-linejoin:miter;stroke-width:0.8;"/>
   </g>
   <g id="patch_5">
    <path d="M 57.6 307.584 
L 414.72 307.584 
" style="fill:none;stroke:#cccccc;stroke-linecap:square;stroke-linejoin:miter;stroke-width:0.8;"/>
   </g>
   <g id="patch_6">
    <path d="M 57.6 41.472 
L 414.72 41.472 
" style="fill:none;stroke:#cccccc;stroke-linecap:square;stroke-linejoin:miter;stroke-width:0.8;"/>
   </g>
   <g id="PathCollection_1">
    <defs>
     <path d="M 0 3.535534 
C 0.937635 3.535534 1.836992 3.163008 2.5 2.5 
C 3.163008 1.836992 3.535534 0.937635 3.535534 0 
C 3.535534 -0.937635 3.163008 -1.836992 2.5 -2.5 
C 1.836992 -3.163008 0.937635 -3.535534 0 -3.535534 
C -0.937635 -3.535534 -1.836992 -3.163008 -2.5 -2.5 
C -3.163008 -1.836992 -3.535534 -0.937635 -3.535534 0 
C -3.535534 0.937635 -3.163008 1.836992 -2.5 2.5 
C -1.836992 3.163008 -0.937635 3.535534 0 3.535534 
z
" id="m1dc216b854" style="stroke:#000000;"/>
    </defs>
    <g clip-path="url(#pf6ce808c78)">
     <use style="stroke:#000000;" x="114.12543" xlink:href="#m1dc216b854" y="155.52"/>
    </g>
   </g>
   <g id="text_25">
    <!-- Load Factor vs. Velocity (Experimental data) -->
    <defs>
     <path d="M 0.828125 44.734375 
L 21.875 44.734375 
L 21.875 42.921875 
L 20.515625 42.921875 
Q 18.609375 42.921875 17.609375 41.984375 
Q 16.609375 41.0625 16.609375 39.5 
Q 16.609375 37.796875 17.625 35.453125 
L 28.03125 10.75 
L 38.484375 36.375 
Q 39.59375 39.109375 39.59375 40.53125 
Q 39.59375 41.21875 39.203125 41.65625 
Q 38.671875 42.390625 37.84375 42.65625 
Q 37.015625 42.921875 34.46875 42.921875 
L 34.46875 44.734375 
L 49.078125 44.734375 
L 49.078125 42.921875 
Q 46.53125 42.71875 45.5625 41.890625 
Q 43.84375 40.4375 42.484375 37.015625 
L 26.609375 -1.375 
L 24.609375 -1.375 
L 8.640625 36.375 
Q 7.5625 39.015625 6.578125 40.15625 
Q 5.609375 41.3125 4.109375 42.09375 
Q 3.265625 42.53125 0.828125 42.921875 
z
" id="TimesNewRomanPSMT-118"/>
     <path d="M 12.5 9.46875 
Q 14.796875 9.46875 16.359375 7.875 
Q 17.921875 6.296875 17.921875 4.046875 
Q 17.921875 1.8125 16.328125 0.21875 
Q 14.75 -1.375 12.5 -1.375 
Q 10.25 -1.375 8.65625 0.21875 
Q 7.078125 1.8125 7.078125 4.046875 
Q 7.078125 6.34375 8.65625 7.90625 
Q 10.25 9.46875 12.5 9.46875 
z
" id="TimesNewRomanPSMT-46"/>
     <path d="M 20.90625 62.59375 
L 20.90625 36.421875 
L 35.453125 36.421875 
Q 41.109375 36.421875 43.015625 38.140625 
Q 45.5625 40.375 45.84375 46.046875 
L 47.65625 46.046875 
L 47.65625 23 
L 45.84375 23 
Q 45.171875 27.828125 44.484375 29.203125 
Q 43.609375 30.90625 41.59375 31.875 
Q 39.59375 32.859375 35.453125 32.859375 
L 20.90625 32.859375 
L 20.90625 11.03125 
Q 20.90625 6.640625 21.296875 5.6875 
Q 21.6875 4.734375 22.65625 4.171875 
Q 23.640625 3.609375 26.375 3.609375 
L 37.59375 3.609375 
Q 43.21875 3.609375 45.75 4.390625 
Q 48.296875 5.171875 50.640625 7.46875 
Q 53.65625 10.5 56.84375 16.609375 
L 58.796875 16.609375 
L 53.078125 0 
L 2.046875 0 
L 2.046875 1.8125 
L 4.390625 1.8125 
Q 6.734375 1.8125 8.84375 2.9375 
Q 10.40625 3.71875 10.96875 5.28125 
Q 11.53125 6.84375 11.53125 11.671875 
L 11.53125 54.6875 
Q 11.53125 60.984375 10.25 62.453125 
Q 8.5 64.40625 4.390625 64.40625 
L 2.046875 64.40625 
L 2.046875 66.21875 
L 53.078125 66.21875 
L 53.8125 51.703125 
L 51.90625 51.703125 
Q 50.875 56.9375 49.625 58.890625 
Q 48.390625 60.84375 45.953125 61.859375 
Q 44 62.59375 39.0625 62.59375 
z
" id="TimesNewRomanPSMT-69"/>
     <path d="M 1.3125 44.734375 
L 22.359375 44.734375 
L 22.359375 42.921875 
Q 20.359375 42.921875 19.546875 42.234375 
Q 18.75 41.546875 18.75 40.4375 
Q 18.75 39.265625 20.453125 36.8125 
Q 21 36.03125 22.078125 34.375 
L 25.25 29.296875 
L 28.90625 34.375 
Q 32.421875 39.203125 32.421875 40.484375 
Q 32.421875 41.5 31.59375 42.203125 
Q 30.765625 42.921875 28.90625 42.921875 
L 28.90625 44.734375 
L 44.046875 44.734375 
L 44.046875 42.921875 
Q 41.65625 42.78125 39.890625 41.609375 
Q 37.5 39.9375 33.34375 34.375 
L 27.25 26.21875 
L 38.375 10.203125 
Q 42.484375 4.296875 44.234375 3.09375 
Q 46 1.90625 48.78125 1.765625 
L 48.78125 0 
L 27.6875 0 
L 27.6875 1.765625 
Q 29.890625 1.765625 31.109375 2.734375 
Q 32.03125 3.421875 32.03125 4.546875 
Q 32.03125 5.671875 28.90625 10.203125 
L 22.359375 19.78125 
L 15.1875 10.203125 
Q 11.859375 5.765625 11.859375 4.9375 
Q 11.859375 3.765625 12.953125 2.8125 
Q 14.0625 1.859375 16.265625 1.765625 
L 16.265625 0 
L 1.65625 0 
L 1.65625 1.765625 
Q 3.421875 2 4.734375 2.984375 
Q 6.59375 4.390625 10.984375 10.203125 
L 20.359375 22.65625 
L 11.859375 34.96875 
Q 8.25 40.234375 6.265625 41.578125 
Q 4.296875 42.921875 1.3125 42.921875 
z
" id="TimesNewRomanPSMT-120"/>
     <path d="M -0.09375 40.28125 
L 13.671875 45.84375 
L 15.53125 45.84375 
L 15.53125 35.40625 
Q 19 41.3125 22.484375 43.671875 
Q 25.984375 46.046875 29.828125 46.046875 
Q 36.578125 46.046875 41.0625 40.765625 
Q 46.578125 34.328125 46.578125 23.96875 
Q 46.578125 12.40625 39.9375 4.828125 
Q 34.46875 -1.375 26.171875 -1.375 
Q 22.5625 -1.375 19.921875 -0.34375 
Q 17.96875 0.390625 15.53125 2.59375 
L 15.53125 -11.03125 
Q 15.53125 -15.625 16.09375 -16.859375 
Q 16.65625 -18.109375 18.046875 -18.84375 
Q 19.4375 -19.578125 23.09375 -19.578125 
L 23.09375 -21.390625 
L -0.34375 -21.390625 
L -0.34375 -19.578125 
L 0.875 -19.578125 
Q 3.5625 -19.625 5.46875 -18.5625 
Q 6.390625 -18.015625 6.90625 -16.8125 
Q 7.421875 -15.625 7.421875 -10.75 
L 7.421875 31.546875 
Q 7.421875 35.890625 7.03125 37.0625 
Q 6.640625 38.234375 5.78125 38.8125 
Q 4.9375 39.40625 3.46875 39.40625 
Q 2.296875 39.40625 0.484375 38.71875 
z
M 15.53125 32.515625 
L 15.53125 15.828125 
Q 15.53125 10.40625 15.96875 8.6875 
Q 16.65625 5.859375 19.3125 3.703125 
Q 21.96875 1.5625 26.03125 1.5625 
Q 30.90625 1.5625 33.9375 5.375 
Q 37.890625 10.359375 37.890625 19.390625 
Q 37.890625 29.640625 33.40625 35.15625 
Q 30.28125 38.96875 25.984375 38.96875 
Q 23.640625 38.96875 21.34375 37.796875 
Q 19.578125 36.921875 15.53125 32.515625 
z
" id="TimesNewRomanPSMT-112"/>
    </defs>
    <g style="fill:#262626;" transform="translate(90.8925 35.472)scale(0.16 -0.16)">
     <use xlink:href="#TimesNewRomanPSMT-76"/>
     <use x="61.083984" xlink:href="#TimesNewRomanPSMT-111"/>
     <use x="111.083984" xlink:href="#TimesNewRomanPSMT-97"/>
     <use x="155.46875" xlink:href="#TimesNewRomanPSMT-100"/>
     <use x="205.46875" xlink:href="#TimesNewRomanPSMT-32"/>
     <use x="230.46875" xlink:href="#TimesNewRomanPSMT-70"/>
     <use x="286.083984" xlink:href="#TimesNewRomanPSMT-97"/>
     <use x="330.46875" xlink:href="#TimesNewRomanPSMT-99"/>
     <use x="374.853516" xlink:href="#TimesNewRomanPSMT-116"/>
     <use x="402.636719" xlink:href="#TimesNewRomanPSMT-111"/>
     <use x="452.636719" xlink:href="#TimesNewRomanPSMT-114"/>
     <use x="485.9375" xlink:href="#TimesNewRomanPSMT-32"/>
     <use x="510.9375" xlink:href="#TimesNewRomanPSMT-118"/>
     <use x="560.9375" xlink:href="#TimesNewRomanPSMT-115"/>
     <use x="599.853516" xlink:href="#TimesNewRomanPSMT-46"/>
     <use x="624.853516" xlink:href="#TimesNewRomanPSMT-32"/>
     <use x="649.837891" xlink:href="#TimesNewRomanPSMT-86"/>
     <use x="721.882812" xlink:href="#TimesNewRomanPSMT-101"/>
     <use x="766.267578" xlink:href="#TimesNewRomanPSMT-108"/>
     <use x="794.050781" xlink:href="#TimesNewRomanPSMT-111"/>
     <use x="844.050781" xlink:href="#TimesNewRomanPSMT-99"/>
     <use x="888.435547" xlink:href="#TimesNewRomanPSMT-105"/>
     <use x="916.21875" xlink:href="#TimesNewRomanPSMT-116"/>
     <use x="944.001953" xlink:href="#TimesNewRomanPSMT-121"/>
     <use x="994.001953" xlink:href="#TimesNewRomanPSMT-32"/>
     <use x="1019.001953" xlink:href="#TimesNewRomanPSMT-40"/>
     <use x="1052.302734" xlink:href="#TimesNewRomanPSMT-69"/>
     <use x="1113.386719" xlink:href="#TimesNewRomanPSMT-120"/>
     <use x="1163.386719" xlink:href="#TimesNewRomanPSMT-112"/>
     <use x="1213.386719" xlink:href="#TimesNewRomanPSMT-101"/>
     <use x="1257.771484" xlink:href="#TimesNewRomanPSMT-114"/>
     <use x="1291.072266" xlink:href="#TimesNewRomanPSMT-105"/>
     <use x="1318.855469" xlink:href="#TimesNewRomanPSMT-109"/>
     <use x="1396.638672" xlink:href="#TimesNewRomanPSMT-101"/>
     <use x="1441.023438" xlink:href="#TimesNewRomanPSMT-110"/>
     <use x="1491.023438" xlink:href="#TimesNewRomanPSMT-116"/>
     <use x="1518.806641" xlink:href="#TimesNewRomanPSMT-97"/>
     <use x="1563.191406" xlink:href="#TimesNewRomanPSMT-108"/>
     <use x="1590.974609" xlink:href="#TimesNewRomanPSMT-32"/>
     <use x="1615.974609" xlink:href="#TimesNewRomanPSMT-100"/>
     <use x="1665.974609" xlink:href="#TimesNewRomanPSMT-97"/>
     <use x="1710.359375" xlink:href="#TimesNewRomanPSMT-116"/>
     <use x="1738.142578" xlink:href="#TimesNewRomanPSMT-97"/>
     <use x="1782.527344" xlink:href="#TimesNewRomanPSMT-41"/>
    </g>
   </g>
   <g id="legend_1">
    <g id="patch_7">
     <path d="M 63.431 95.268181 
L 109.9124 95.268181 
Q 111.5784 95.268181 111.5784 93.602181 
L 111.5784 47.303 
Q 111.5784 45.637 109.9124 45.637 
L 63.431 45.637 
Q 61.765 45.637 61.765 47.303 
L 61.765 93.602181 
Q 61.765 95.268181 63.431 95.268181 
z
" style="fill:#ffffff;opacity:0.8;stroke:#cccccc;stroke-linejoin:miter;"/>
    </g>
    <g id="line2d_25">
     <path d="M 65.097 52.015958 
L 81.757 52.015958 
" style="fill:none;stroke:#ff0000;stroke-linecap:round;"/>
    </g>
    <g id="line2d_26"/>
    <g id="text_26">
     <!-- $n_{Max}$ -->
     <defs>
      <path d="M 55.71875 33.015625 
L 49.3125 0 
L 40.28125 0 
L 46.6875 32.671875 
Q 47.125 34.96875 47.359375 36.71875 
Q 47.609375 38.484375 47.609375 39.5 
Q 47.609375 43.609375 45.015625 45.890625 
Q 42.4375 48.1875 37.796875 48.1875 
Q 30.5625 48.1875 25.34375 43.375 
Q 20.125 38.578125 18.5 30.328125 
L 12.5 0 
L 3.515625 0 
L 14.109375 54.6875 
L 23.09375 54.6875 
L 21.296875 46.09375 
Q 25.046875 50.828125 30.3125 53.40625 
Q 35.59375 56 41.40625 56 
Q 48.640625 56 52.609375 52.09375 
Q 56.59375 48.1875 56.59375 41.109375 
Q 56.59375 39.359375 56.375 37.359375 
Q 56.15625 35.359375 55.71875 33.015625 
z
" id="DejaVuSans-Oblique-110"/>
      <path d="M 16.890625 72.90625 
L 31.6875 72.90625 
L 40.1875 23.78125 
L 68.40625 72.90625 
L 83.59375 72.90625 
L 69.390625 0 
L 59.8125 0 
L 72.21875 63.921875 
L 43.609375 14.015625 
L 33.984375 14.015625 
L 24.703125 64.109375 
L 12.3125 0 
L 2.6875 0 
z
" id="DejaVuSans-Oblique-77"/>
      <path d="M 53.71875 31.203125 
L 47.609375 0 
L 38.625 0 
L 40.28125 8.296875 
Q 36.328125 3.421875 31.265625 1 
Q 26.21875 -1.421875 20.015625 -1.421875 
Q 13.03125 -1.421875 8.5625 2.84375 
Q 4.109375 7.125 4.109375 13.8125 
Q 4.109375 23.390625 11.75 28.953125 
Q 19.390625 34.515625 32.8125 34.515625 
L 45.3125 34.515625 
L 45.796875 36.921875 
Q 45.90625 37.3125 45.953125 37.765625 
Q 46 38.234375 46 39.203125 
Q 46 43.5625 42.453125 45.96875 
Q 38.921875 48.390625 32.515625 48.390625 
Q 28.125 48.390625 23.5 47.265625 
Q 18.890625 46.140625 14.015625 43.890625 
L 15.578125 52.203125 
Q 20.65625 54.109375 25.515625 55.046875 
Q 30.375 56 34.90625 56 
Q 44.578125 56 49.625 51.796875 
Q 54.6875 47.609375 54.6875 39.59375 
Q 54.6875 37.984375 54.4375 35.8125 
Q 54.203125 33.640625 53.71875 31.203125 
z
M 44 27.484375 
L 35.015625 27.484375 
Q 23.96875 27.484375 18.671875 24.53125 
Q 13.375 21.578125 13.375 15.375 
Q 13.375 11.078125 16.078125 8.640625 
Q 18.796875 6.203125 23.578125 6.203125 
Q 30.90625 6.203125 36.375 11.453125 
Q 41.84375 16.703125 43.609375 25.484375 
z
" id="DejaVuSans-Oblique-97"/>
      <path d="M 60.015625 54.6875 
L 34.90625 27.875 
L 50.296875 0 
L 39.984375 0 
L 28.421875 21.6875 
L 8.296875 0 
L -2.59375 0 
L 24.3125 28.8125 
L 10.015625 54.6875 
L 20.3125 54.6875 
L 30.8125 34.90625 
L 49.125 54.6875 
z
" id="DejaVuSans-Oblique-120"/>
     </defs>
     <g style="fill:#262626;" transform="translate(88.421 54.931458)scale(0.0833 -0.0833)">
      <use xlink:href="#DejaVuSans-Oblique-110"/>
      <use transform="translate(63.378906 -16.40625)scale(0.7)" xlink:href="#DejaVuSans-Oblique-77"/>
      <use transform="translate(123.774414 -16.40625)scale(0.7)" xlink:href="#DejaVuSans-Oblique-97"/>
      <use transform="translate(166.669922 -16.40625)scale(0.7)" xlink:href="#DejaVuSans-Oblique-120"/>
     </g>
    </g>
    <g id="line2d_27">
     <path d="M 65.097 63.799003 
L 81.757 63.799003 
" style="fill:none;stroke:#008000;stroke-dasharray:3.7,1.6;stroke-dashoffset:0;"/>
    </g>
    <g id="text_27">
     <!-- $V_{level}$ -->
     <defs>
      <path d="M 20.609375 0 
L 7.8125 72.90625 
L 17.484375 72.90625 
L 28.078125 10.203125 
L 63.484375 72.90625 
L 74.21875 72.90625 
L 32.078125 0 
z
" id="DejaVuSans-Oblique-86"/>
      <path d="M 18.3125 75.984375 
L 27.296875 75.984375 
L 12.5 0 
L 3.515625 0 
z
" id="DejaVuSans-Oblique-108"/>
      <path d="M 48.09375 32.234375 
Q 48.25 33.015625 48.3125 33.84375 
Q 48.390625 34.671875 48.390625 35.5 
Q 48.390625 41.453125 44.890625 44.921875 
Q 41.40625 48.390625 35.40625 48.390625 
Q 28.71875 48.390625 23.578125 44.15625 
Q 18.453125 39.9375 15.828125 32.171875 
z
M 55.90625 25.203125 
L 14.109375 25.203125 
Q 13.8125 23.34375 13.71875 22.265625 
Q 13.625 21.1875 13.625 20.40625 
Q 13.625 13.625 17.796875 9.90625 
Q 21.96875 6.203125 29.59375 6.203125 
Q 35.453125 6.203125 40.671875 7.515625 
Q 45.90625 8.84375 50.390625 11.375 
L 48.6875 2.484375 
Q 43.84375 0.53125 38.6875 -0.4375 
Q 33.546875 -1.421875 28.21875 -1.421875 
Q 16.84375 -1.421875 10.71875 4.015625 
Q 4.59375 9.46875 4.59375 19.484375 
Q 4.59375 28.03125 7.640625 35.375 
Q 10.6875 42.71875 16.609375 48.484375 
Q 20.40625 52.09375 25.65625 54.046875 
Q 30.90625 56 36.8125 56 
Q 46.09375 56 51.578125 50.4375 
Q 57.078125 44.875 57.078125 35.5 
Q 57.078125 33.25 56.78125 30.6875 
Q 56.5 28.125 55.90625 25.203125 
z
" id="DejaVuSans-Oblique-101"/>
      <path d="M 7.171875 54.6875 
L 16.703125 54.6875 
L 24.703125 8.203125 
L 50.875 54.6875 
L 60.40625 54.6875 
L 29.296875 0 
L 17.1875 0 
z
" id="DejaVuSans-Oblique-118"/>
     </defs>
     <g style="fill:#262626;" transform="translate(88.421 66.714503)scale(0.0833 -0.0833)">
      <use transform="translate(0 0.09375)" xlink:href="#DejaVuSans-Oblique-86"/>
      <use transform="translate(68.408203 -16.3125)scale(0.7)" xlink:href="#DejaVuSans-Oblique-108"/>
      <use transform="translate(87.856445 -16.3125)scale(0.7)" xlink:href="#DejaVuSans-Oblique-101"/>
      <use transform="translate(130.922852 -16.3125)scale(0.7)" xlink:href="#DejaVuSans-Oblique-118"/>
      <use transform="translate(172.348633 -16.3125)scale(0.7)" xlink:href="#DejaVuSans-Oblique-101"/>
      <use transform="translate(215.415039 -16.3125)scale(0.7)" xlink:href="#DejaVuSans-Oblique-108"/>
     </g>
    </g>
    <g id="line2d_28">
     <path d="M 65.097 75.582048 
L 81.757 75.582048 
" style="fill:none;stroke:#800080;"/>
    </g>
    <g id="text_28">
     <!-- $V_{Max}$ -->
     <g style="fill:#262626;" transform="translate(88.421 78.497548)scale(0.0833 -0.0833)">
      <use transform="translate(0 0.09375)" xlink:href="#DejaVuSans-Oblique-86"/>
      <use transform="translate(68.408203 -16.3125)scale(0.7)" xlink:href="#DejaVuSans-Oblique-77"/>
      <use transform="translate(128.803711 -16.3125)scale(0.7)" xlink:href="#DejaVuSans-Oblique-97"/>
      <use transform="translate(171.699219 -16.3125)scale(0.7)" xlink:href="#DejaVuSans-Oblique-120"/>
     </g>
    </g>
    <g id="PathCollection_2">
     <g>
      <use style="stroke:#000000;" x="73.427" xlink:href="#m1dc216b854" y="88.093969"/>
     </g>
    </g>
    <g id="text_29">
     <!-- $V_{Stall}$ -->
     <defs>
      <path d="M 60.296875 70.515625 
L 58.40625 60.890625 
Q 53.46875 63.53125 48.609375 64.875 
Q 43.75 66.21875 39.203125 66.21875 
Q 30.375 66.21875 25.140625 62.359375 
Q 19.921875 58.5 19.921875 52.09375 
Q 19.921875 48.578125 21.84375 46.703125 
Q 23.78125 44.828125 31.78125 42.671875 
L 37.703125 41.21875 
Q 47.703125 38.625 51.609375 34.640625 
Q 55.515625 30.671875 55.515625 23.484375 
Q 55.515625 12.453125 46.84375 5.515625 
Q 38.1875 -1.421875 24.03125 -1.421875 
Q 18.21875 -1.421875 12.359375 -0.265625 
Q 6.5 0.875 0.59375 3.21875 
L 2.59375 13.375 
Q 8.015625 10.015625 13.453125 8.296875 
Q 18.890625 6.59375 24.3125 6.59375 
Q 33.546875 6.59375 39.109375 10.6875 
Q 44.671875 14.796875 44.671875 21.390625 
Q 44.671875 25.78125 42.453125 28.046875 
Q 40.234375 30.328125 32.90625 32.171875 
L 27 33.6875 
Q 16.890625 36.328125 13.203125 39.765625 
Q 9.515625 43.21875 9.515625 49.421875 
Q 9.515625 60.296875 17.890625 67.25 
Q 26.265625 74.21875 39.703125 74.21875 
Q 44.921875 74.21875 50.046875 73.28125 
Q 55.171875 72.359375 60.296875 70.515625 
z
" id="DejaVuSans-Oblique-83"/>
      <path d="M 42.28125 54.6875 
L 40.921875 47.703125 
L 23 47.703125 
L 17.1875 18.015625 
Q 16.890625 16.359375 16.75 15.234375 
Q 16.609375 14.109375 16.609375 13.484375 
Q 16.609375 10.359375 18.484375 8.9375 
Q 20.359375 7.515625 24.515625 7.515625 
L 33.59375 7.515625 
L 32.078125 0 
L 23.484375 0 
Q 15.484375 0 11.546875 3.125 
Q 7.625 6.25 7.625 12.59375 
Q 7.625 13.71875 7.765625 15.0625 
Q 7.90625 16.40625 8.203125 18.015625 
L 14.015625 47.703125 
L 6.390625 47.703125 
L 7.8125 54.6875 
L 15.28125 54.6875 
L 18.3125 70.21875 
L 27.296875 70.21875 
L 24.3125 54.6875 
z
" id="DejaVuSans-Oblique-116"/>
     </defs>
     <g style="fill:#262626;" transform="translate(88.421 90.280594)scale(0.0833 -0.0833)">
      <use transform="translate(0 0.09375)" xlink:href="#DejaVuSans-Oblique-86"/>
      <use transform="translate(68.408203 -16.3125)scale(0.7)" xlink:href="#DejaVuSans-Oblique-83"/>
      <use transform="translate(112.841797 -16.3125)scale(0.7)" xlink:href="#DejaVuSans-Oblique-116"/>
      <use transform="translate(140.288086 -16.3125)scale(0.7)" xlink:href="#DejaVuSans-Oblique-97"/>
      <use transform="translate(183.183594 -16.3125)scale(0.7)" xlink:href="#DejaVuSans-Oblique-108"/>
      <use transform="translate(202.631836 -16.3125)scale(0.7)" xlink:href="#DejaVuSans-Oblique-108"/>
     </g>
    </g>
   </g>
  </g>
 </g>
 <defs>
  <clipPath id="pf6ce808c78">
   <rect height="266.112" width="357.12" x="57.6" y="41.472"/>
  </clipPath>
 </defs>
</svg>
