<?xml version="1.0" encoding="utf-8" standalone="no"?>
<!DOCTYPE svg PUBLIC "-//W3C//DTD SVG 1.1//EN"
  "http://www.w3.org/Graphics/SVG/1.1/DTD/svg11.dtd">
<!-- Created with matplotlib (https://matplotlib.org/) -->
<svg height="345.6pt" version="1.1" viewBox="0 0 460.8 345.6" width="460.8pt" xmlns="http://www.w3.org/2000/svg" xmlns:xlink="http://www.w3.org/1999/xlink">
 <defs>
  <style type="text/css">
*{stroke-linecap:butt;stroke-linejoin:round;}
  </style>
 </defs>
 <g id="figure_1">
  <g id="patch_1">
   <path d="M 0 345.6 
L 460.8 345.6 
L 460.8 0 
L 0 0 
z
" style="fill:#ffffff;"/>
  </g>
  <g id="axes_1">
   <g id="patch_2">
    <path d="M 57.6 307.584 
L 414.72 307.584 
L 414.72 41.472 
L 57.6 41.472 
z
" style="fill:#ffffff;"/>
   </g>
   <g id="matplotlib.axis_1">
    <g id="xtick_1">
     <g id="line2d_1">
      <path clip-path="url(#p55c8b6bfce)" d="M 57.6 307.584 
L 57.6 41.472 
" style="fill:none;stroke:#cccccc;stroke-linecap:round;stroke-width:0.8;"/>
     </g>
     <g id="text_1">
      <!-- 0 -->
      <defs>
       <path d="M 4.15625 35.296875 
Q 4.15625 48 6.765625 55.734375 
Q 9.375 63.484375 14.515625 67.671875 
Q 19.671875 71.875 27.484375 71.875 
Q 33.25 71.875 37.59375 69.546875 
Q 41.9375 67.234375 44.765625 62.859375 
Q 47.609375 58.5 49.21875 52.21875 
Q 50.828125 45.953125 50.828125 35.296875 
Q 50.828125 22.703125 48.234375 14.96875 
Q 45.65625 7.234375 40.5 3 
Q 35.359375 -1.21875 27.484375 -1.21875 
Q 17.140625 -1.21875 11.234375 6.203125 
Q 4.15625 15.140625 4.15625 35.296875 
z
M 13.1875 35.296875 
Q 13.1875 17.671875 17.3125 11.828125 
Q 21.4375 6 27.484375 6 
Q 33.546875 6 37.671875 11.859375 
Q 41.796875 17.71875 41.796875 35.296875 
Q 41.796875 52.984375 37.671875 58.78125 
Q 33.546875 64.59375 27.390625 64.59375 
Q 21.34375 64.59375 17.71875 59.46875 
Q 13.1875 52.9375 13.1875 35.296875 
z
" id="ArialMT-48"/>
      </defs>
      <g style="fill:#262626;" transform="translate(54.819531 321.741812)scale(0.1 -0.1)">
       <use xlink:href="#ArialMT-48"/>
      </g>
     </g>
    </g>
    <g id="xtick_2">
     <g id="line2d_2">
      <path clip-path="url(#p55c8b6bfce)" d="M 129.024 307.584 
L 129.024 41.472 
" style="fill:none;stroke:#cccccc;stroke-linecap:round;stroke-width:0.8;"/>
     </g>
     <g id="text_2">
      <!-- 5 -->
      <defs>
       <path d="M 4.15625 18.75 
L 13.375 19.53125 
Q 14.40625 12.796875 18.140625 9.390625 
Q 21.875 6 27.15625 6 
Q 33.5 6 37.890625 10.78125 
Q 42.28125 15.578125 42.28125 23.484375 
Q 42.28125 31 38.0625 35.34375 
Q 33.84375 39.703125 27 39.703125 
Q 22.75 39.703125 19.328125 37.765625 
Q 15.921875 35.84375 13.96875 32.765625 
L 5.71875 33.84375 
L 12.640625 70.609375 
L 48.25 70.609375 
L 48.25 62.203125 
L 19.671875 62.203125 
L 15.828125 42.96875 
Q 22.265625 47.46875 29.34375 47.46875 
Q 38.71875 47.46875 45.15625 40.96875 
Q 51.609375 34.46875 51.609375 24.265625 
Q 51.609375 14.546875 45.953125 7.46875 
Q 39.0625 -1.21875 27.15625 -1.21875 
Q 17.390625 -1.21875 11.203125 4.25 
Q 5.03125 9.71875 4.15625 18.75 
z
" id="ArialMT-53"/>
      </defs>
      <g style="fill:#262626;" transform="translate(126.243531 321.741812)scale(0.1 -0.1)">
       <use xlink:href="#ArialMT-53"/>
      </g>
     </g>
    </g>
    <g id="xtick_3">
     <g id="line2d_3">
      <path clip-path="url(#p55c8b6bfce)" d="M 200.448 307.584 
L 200.448 41.472 
" style="fill:none;stroke:#cccccc;stroke-linecap:round;stroke-width:0.8;"/>
     </g>
     <g id="text_3">
      <!-- 10 -->
      <defs>
       <path d="M 37.25 0 
L 28.46875 0 
L 28.46875 56 
Q 25.296875 52.984375 20.140625 49.953125 
Q 14.984375 46.921875 10.890625 45.40625 
L 10.890625 53.90625 
Q 18.265625 57.375 23.78125 62.296875 
Q 29.296875 67.234375 31.59375 71.875 
L 37.25 71.875 
z
" id="ArialMT-49"/>
      </defs>
      <g style="fill:#262626;" transform="translate(194.887063 321.741812)scale(0.1 -0.1)">
       <use xlink:href="#ArialMT-49"/>
       <use x="55.615234" xlink:href="#ArialMT-48"/>
      </g>
     </g>
    </g>
    <g id="xtick_4">
     <g id="line2d_4">
      <path clip-path="url(#p55c8b6bfce)" d="M 271.872 307.584 
L 271.872 41.472 
" style="fill:none;stroke:#cccccc;stroke-linecap:round;stroke-width:0.8;"/>
     </g>
     <g id="text_4">
      <!-- 15 -->
      <g style="fill:#262626;" transform="translate(266.311062 321.741812)scale(0.1 -0.1)">
       <use xlink:href="#ArialMT-49"/>
       <use x="55.615234" xlink:href="#ArialMT-53"/>
      </g>
     </g>
    </g>
    <g id="xtick_5">
     <g id="line2d_5">
      <path clip-path="url(#p55c8b6bfce)" d="M 343.296 307.584 
L 343.296 41.472 
" style="fill:none;stroke:#cccccc;stroke-linecap:round;stroke-width:0.8;"/>
     </g>
     <g id="text_5">
      <!-- 20 -->
      <defs>
       <path d="M 50.34375 8.453125 
L 50.34375 0 
L 3.03125 0 
Q 2.9375 3.171875 4.046875 6.109375 
Q 5.859375 10.9375 9.828125 15.625 
Q 13.8125 20.3125 21.34375 26.46875 
Q 33.015625 36.03125 37.109375 41.625 
Q 41.21875 47.21875 41.21875 52.203125 
Q 41.21875 57.421875 37.46875 61 
Q 33.734375 64.59375 27.734375 64.59375 
Q 21.390625 64.59375 17.578125 60.78125 
Q 13.765625 56.984375 13.71875 50.25 
L 4.6875 51.171875 
Q 5.609375 61.28125 11.65625 66.578125 
Q 17.71875 71.875 27.9375 71.875 
Q 38.234375 71.875 44.234375 66.15625 
Q 50.25 60.453125 50.25 52 
Q 50.25 47.703125 48.484375 43.546875 
Q 46.734375 39.40625 42.65625 34.8125 
Q 38.578125 30.21875 29.109375 22.21875 
Q 21.1875 15.578125 18.9375 13.203125 
Q 16.703125 10.84375 15.234375 8.453125 
z
" id="ArialMT-50"/>
      </defs>
      <g style="fill:#262626;" transform="translate(337.735063 321.741812)scale(0.1 -0.1)">
       <use xlink:href="#ArialMT-50"/>
       <use x="55.615234" xlink:href="#ArialMT-48"/>
      </g>
     </g>
    </g>
    <g id="xtick_6">
     <g id="line2d_6">
      <path clip-path="url(#p55c8b6bfce)" d="M 414.72 307.584 
L 414.72 41.472 
" style="fill:none;stroke:#cccccc;stroke-linecap:round;stroke-width:0.8;"/>
     </g>
     <g id="text_6">
      <!-- 25 -->
      <g style="fill:#262626;" transform="translate(409.159063 321.741812)scale(0.1 -0.1)">
       <use xlink:href="#ArialMT-50"/>
       <use x="55.615234" xlink:href="#ArialMT-53"/>
      </g>
     </g>
    </g>
    <g id="text_7">
     <!-- Velocity -->
     <defs>
      <path d="M 71 66.21875 
L 71 64.40625 
Q 67.484375 63.765625 65.671875 62.15625 
Q 63.09375 59.765625 61.078125 54.828125 
L 37.984375 -1.515625 
L 36.1875 -1.515625 
L 11.375 55.5625 
Q 9.46875 59.96875 8.6875 60.9375 
Q 7.46875 62.453125 5.6875 63.296875 
Q 3.90625 64.15625 0.875 64.40625 
L 0.875 66.21875 
L 27.9375 66.21875 
L 27.9375 64.40625 
Q 23.34375 63.96875 21.96875 62.84375 
Q 20.609375 61.71875 20.609375 59.96875 
Q 20.609375 57.515625 22.859375 52.34375 
L 39.703125 13.53125 
L 55.328125 51.859375 
Q 57.625 57.515625 57.625 59.71875 
Q 57.625 61.140625 56.203125 62.421875 
Q 54.78125 63.71875 51.421875 64.265625 
Q 51.171875 64.3125 50.59375 64.40625 
L 50.59375 66.21875 
z
" id="TimesNewRomanPSMT-86"/>
      <path d="M 10.640625 27.875 
Q 10.59375 17.921875 15.484375 12.25 
Q 20.359375 6.59375 26.953125 6.59375 
Q 31.34375 6.59375 34.59375 9 
Q 37.84375 11.421875 40.046875 17.28125 
L 41.546875 16.3125 
Q 40.53125 9.625 35.59375 4.125 
Q 30.671875 -1.375 23.25 -1.375 
Q 15.1875 -1.375 9.453125 4.90625 
Q 3.71875 11.1875 3.71875 21.78125 
Q 3.71875 33.25 9.59375 39.671875 
Q 15.484375 46.09375 24.359375 46.09375 
Q 31.890625 46.09375 36.71875 41.140625 
Q 41.546875 36.1875 41.546875 27.875 
z
M 10.640625 30.71875 
L 31.34375 30.71875 
Q 31.109375 35.015625 30.328125 36.765625 
Q 29.109375 39.5 26.6875 41.0625 
Q 24.265625 42.625 21.625 42.625 
Q 17.578125 42.625 14.375 39.46875 
Q 11.1875 36.328125 10.640625 30.71875 
z
" id="TimesNewRomanPSMT-101"/>
      <path d="M 18.5 69.4375 
L 18.5 10.109375 
Q 18.5 5.90625 19.109375 4.53125 
Q 19.734375 3.171875 21 2.46875 
Q 22.265625 1.765625 25.734375 1.765625 
L 25.734375 0 
L 3.8125 0 
L 3.8125 1.765625 
Q 6.890625 1.765625 8 2.390625 
Q 9.125 3.03125 9.765625 4.484375 
Q 10.40625 5.953125 10.40625 10.109375 
L 10.40625 50.734375 
Q 10.40625 58.296875 10.0625 60.03125 
Q 9.71875 61.765625 8.953125 62.390625 
Q 8.203125 63.03125 7.03125 63.03125 
Q 5.765625 63.03125 3.8125 62.25 
L 2.984375 63.96875 
L 16.3125 69.4375 
z
" id="TimesNewRomanPSMT-108"/>
      <path d="M 25 46.046875 
Q 35.15625 46.046875 41.3125 38.328125 
Q 46.53125 31.734375 46.53125 23.1875 
Q 46.53125 17.1875 43.640625 11.03125 
Q 40.765625 4.890625 35.71875 1.75 
Q 30.671875 -1.375 24.46875 -1.375 
Q 14.359375 -1.375 8.40625 6.6875 
Q 3.375 13.484375 3.375 21.921875 
Q 3.375 28.078125 6.421875 34.15625 
Q 9.46875 40.234375 14.453125 43.140625 
Q 19.4375 46.046875 25 46.046875 
z
M 23.484375 42.875 
Q 20.90625 42.875 18.28125 41.328125 
Q 15.671875 39.796875 14.0625 35.9375 
Q 12.453125 32.078125 12.453125 26.03125 
Q 12.453125 16.265625 16.328125 9.171875 
Q 20.21875 2.09375 26.5625 2.09375 
Q 31.296875 2.09375 34.375 6 
Q 37.453125 9.90625 37.453125 19.4375 
Q 37.453125 31.34375 32.328125 38.1875 
Q 28.859375 42.875 23.484375 42.875 
z
" id="TimesNewRomanPSMT-111"/>
      <path d="M 41.109375 17 
Q 39.3125 8.15625 34.03125 3.390625 
Q 28.765625 -1.375 22.359375 -1.375 
Q 14.75 -1.375 9.078125 5.015625 
Q 3.421875 11.421875 3.421875 22.3125 
Q 3.421875 32.859375 9.6875 39.453125 
Q 15.96875 46.046875 24.75 46.046875 
Q 31.34375 46.046875 35.59375 42.546875 
Q 39.84375 39.0625 39.84375 35.296875 
Q 39.84375 33.453125 38.640625 32.296875 
Q 37.453125 31.15625 35.296875 31.15625 
Q 32.421875 31.15625 30.953125 33.015625 
Q 30.125 34.03125 29.859375 36.90625 
Q 29.59375 39.796875 27.875 41.3125 
Q 26.171875 42.78125 23.140625 42.78125 
Q 18.265625 42.78125 15.28125 39.15625 
Q 11.328125 34.375 11.328125 26.515625 
Q 11.328125 18.5 15.25 12.375 
Q 19.1875 6.25 25.875 6.25 
Q 30.671875 6.25 34.46875 9.515625 
Q 37.15625 11.765625 39.703125 17.671875 
z
" id="TimesNewRomanPSMT-99"/>
      <path d="M 14.5 69.4375 
Q 16.546875 69.4375 17.984375 67.984375 
Q 19.4375 66.546875 19.4375 64.5 
Q 19.4375 62.453125 17.984375 60.984375 
Q 16.546875 59.515625 14.5 59.515625 
Q 12.453125 59.515625 10.984375 60.984375 
Q 9.515625 62.453125 9.515625 64.5 
Q 9.515625 66.546875 10.953125 67.984375 
Q 12.40625 69.4375 14.5 69.4375 
z
M 18.5625 46.046875 
L 18.5625 10.109375 
Q 18.5625 5.90625 19.171875 4.515625 
Q 19.78125 3.125 20.96875 2.4375 
Q 22.171875 1.765625 25.34375 1.765625 
L 25.34375 0 
L 3.609375 0 
L 3.609375 1.765625 
Q 6.890625 1.765625 8 2.390625 
Q 9.125 3.03125 9.78125 4.484375 
Q 10.453125 5.953125 10.453125 10.109375 
L 10.453125 27.34375 
Q 10.453125 34.625 10.015625 36.765625 
Q 9.671875 38.328125 8.9375 38.9375 
Q 8.203125 39.546875 6.9375 39.546875 
Q 5.5625 39.546875 3.609375 38.8125 
L 2.9375 40.578125 
L 16.40625 46.046875 
z
" id="TimesNewRomanPSMT-105"/>
      <path d="M 16.109375 59.421875 
L 16.109375 44.734375 
L 26.5625 44.734375 
L 26.5625 41.3125 
L 16.109375 41.3125 
L 16.109375 12.3125 
Q 16.109375 7.953125 17.359375 6.4375 
Q 18.609375 4.9375 20.5625 4.9375 
Q 22.171875 4.9375 23.6875 5.9375 
Q 25.203125 6.9375 26.03125 8.890625 
L 27.9375 8.890625 
Q 26.21875 4.109375 23.09375 1.6875 
Q 19.96875 -0.734375 16.65625 -0.734375 
Q 14.40625 -0.734375 12.25 0.515625 
Q 10.109375 1.765625 9.078125 4.078125 
Q 8.0625 6.390625 8.0625 11.234375 
L 8.0625 41.3125 
L 0.984375 41.3125 
L 0.984375 42.921875 
Q 3.65625 44 6.46875 46.5625 
Q 9.28125 49.125 11.46875 52.640625 
Q 12.59375 54.5 14.59375 59.421875 
z
" id="TimesNewRomanPSMT-116"/>
      <path d="M 0.59375 44.734375 
L 21.4375 44.734375 
L 21.4375 42.921875 
L 20.40625 42.921875 
Q 18.21875 42.921875 17.109375 41.96875 
Q 16.015625 41.015625 16.015625 39.59375 
Q 16.015625 37.703125 17.625 34.328125 
L 28.515625 11.765625 
L 38.53125 36.46875 
Q 39.359375 38.484375 39.359375 40.4375 
Q 39.359375 41.3125 39.015625 41.75 
Q 38.625 42.28125 37.796875 42.59375 
Q 36.96875 42.921875 34.859375 42.921875 
L 34.859375 44.734375 
L 49.421875 44.734375 
L 49.421875 42.921875 
Q 47.609375 42.71875 46.625 42.125 
Q 45.65625 41.546875 44.484375 39.9375 
Q 44.046875 39.265625 42.828125 36.1875 
L 24.609375 -8.453125 
Q 21.96875 -14.9375 17.6875 -18.25 
Q 13.421875 -21.578125 9.46875 -21.578125 
Q 6.59375 -21.578125 4.734375 -19.921875 
Q 2.875 -18.265625 2.875 -16.109375 
Q 2.875 -14.0625 4.21875 -12.8125 
Q 5.5625 -11.578125 7.90625 -11.578125 
Q 9.515625 -11.578125 12.3125 -12.640625 
Q 14.265625 -13.375 14.75 -13.375 
Q 16.21875 -13.375 17.9375 -11.859375 
Q 19.671875 -10.359375 21.4375 -6 
L 24.609375 1.765625 
L 8.546875 35.5 
Q 7.8125 37.015625 6.203125 39.265625 
Q 4.984375 40.96875 4.203125 41.546875 
Q 3.078125 42.328125 0.59375 42.921875 
z
" id="TimesNewRomanPSMT-121"/>
     </defs>
     <g style="fill:#262626;" transform="translate(212.067969 337.450562)scale(0.14 -0.14)">
      <use xlink:href="#TimesNewRomanPSMT-86"/>
      <use x="72.044922" xlink:href="#TimesNewRomanPSMT-101"/>
      <use x="116.429688" xlink:href="#TimesNewRomanPSMT-108"/>
      <use x="144.212891" xlink:href="#TimesNewRomanPSMT-111"/>
      <use x="194.212891" xlink:href="#TimesNewRomanPSMT-99"/>
      <use x="238.597656" xlink:href="#TimesNewRomanPSMT-105"/>
      <use x="266.380859" xlink:href="#TimesNewRomanPSMT-116"/>
      <use x="294.164062" xlink:href="#TimesNewRomanPSMT-121"/>
     </g>
    </g>
   </g>
   <g id="matplotlib.axis_2">
    <g id="ytick_1">
     <g id="line2d_7">
      <path clip-path="url(#p55c8b6bfce)" d="M 57.6 307.584 
L 414.72 307.584 
" style="fill:none;stroke:#cccccc;stroke-linecap:round;stroke-width:0.8;"/>
     </g>
     <g id="text_8">
      <!-- −5 -->
      <defs>
       <path d="M 52.828125 31.203125 
L 5.5625 31.203125 
L 5.5625 39.40625 
L 52.828125 39.40625 
z
" id="ArialMT-8722"/>
      </defs>
      <g style="fill:#262626;" transform="translate(39.198437 311.162906)scale(0.1 -0.1)">
       <use xlink:href="#ArialMT-8722"/>
       <use x="58.398438" xlink:href="#ArialMT-53"/>
      </g>
     </g>
    </g>
    <g id="ytick_2">
     <g id="line2d_8">
      <path clip-path="url(#p55c8b6bfce)" d="M 57.6 280.9728 
L 414.72 280.9728 
" style="fill:none;stroke:#cccccc;stroke-linecap:round;stroke-width:0.8;"/>
     </g>
     <g id="text_9">
      <!-- −4 -->
      <defs>
       <path d="M 32.328125 0 
L 32.328125 17.140625 
L 1.265625 17.140625 
L 1.265625 25.203125 
L 33.9375 71.578125 
L 41.109375 71.578125 
L 41.109375 25.203125 
L 50.78125 25.203125 
L 50.78125 17.140625 
L 41.109375 17.140625 
L 41.109375 0 
z
M 32.328125 25.203125 
L 32.328125 57.46875 
L 9.90625 25.203125 
z
" id="ArialMT-52"/>
      </defs>
      <g style="fill:#262626;" transform="translate(39.198437 284.551706)scale(0.1 -0.1)">
       <use xlink:href="#ArialMT-8722"/>
       <use x="58.398438" xlink:href="#ArialMT-52"/>
      </g>
     </g>
    </g>
    <g id="ytick_3">
     <g id="line2d_9">
      <path clip-path="url(#p55c8b6bfce)" d="M 57.6 254.3616 
L 414.72 254.3616 
" style="fill:none;stroke:#cccccc;stroke-linecap:round;stroke-width:0.8;"/>
     </g>
     <g id="text_10">
      <!-- −3 -->
      <defs>
       <path d="M 4.203125 18.890625 
L 12.984375 20.0625 
Q 14.5 12.59375 18.140625 9.296875 
Q 21.78125 6 27 6 
Q 33.203125 6 37.46875 10.296875 
Q 41.75 14.59375 41.75 20.953125 
Q 41.75 27 37.796875 30.921875 
Q 33.84375 34.859375 27.734375 34.859375 
Q 25.25 34.859375 21.53125 33.890625 
L 22.515625 41.609375 
Q 23.390625 41.5 23.921875 41.5 
Q 29.546875 41.5 34.03125 44.421875 
Q 38.53125 47.359375 38.53125 53.46875 
Q 38.53125 58.296875 35.25 61.46875 
Q 31.984375 64.65625 26.8125 64.65625 
Q 21.6875 64.65625 18.265625 61.421875 
Q 14.84375 58.203125 13.875 51.765625 
L 5.078125 53.328125 
Q 6.6875 62.15625 12.390625 67.015625 
Q 18.109375 71.875 26.609375 71.875 
Q 32.46875 71.875 37.390625 69.359375 
Q 42.328125 66.84375 44.9375 62.5 
Q 47.5625 58.15625 47.5625 53.265625 
Q 47.5625 48.640625 45.0625 44.828125 
Q 42.578125 41.015625 37.703125 38.765625 
Q 44.046875 37.3125 47.5625 32.6875 
Q 51.078125 28.078125 51.078125 21.140625 
Q 51.078125 11.765625 44.234375 5.25 
Q 37.40625 -1.265625 26.953125 -1.265625 
Q 17.53125 -1.265625 11.296875 4.34375 
Q 5.078125 9.96875 4.203125 18.890625 
z
" id="ArialMT-51"/>
      </defs>
      <g style="fill:#262626;" transform="translate(39.198437 257.940506)scale(0.1 -0.1)">
       <use xlink:href="#ArialMT-8722"/>
       <use x="58.398438" xlink:href="#ArialMT-51"/>
      </g>
     </g>
    </g>
    <g id="ytick_4">
     <g id="line2d_10">
      <path clip-path="url(#p55c8b6bfce)" d="M 57.6 227.7504 
L 414.72 227.7504 
" style="fill:none;stroke:#cccccc;stroke-linecap:round;stroke-width:0.8;"/>
     </g>
     <g id="text_11">
      <!-- −2 -->
      <g style="fill:#262626;" transform="translate(39.198437 231.329306)scale(0.1 -0.1)">
       <use xlink:href="#ArialMT-8722"/>
       <use x="58.398438" xlink:href="#ArialMT-50"/>
      </g>
     </g>
    </g>
    <g id="ytick_5">
     <g id="line2d_11">
      <path clip-path="url(#p55c8b6bfce)" d="M 57.6 201.1392 
L 414.72 201.1392 
" style="fill:none;stroke:#cccccc;stroke-linecap:round;stroke-width:0.8;"/>
     </g>
     <g id="text_12">
      <!-- −1 -->
      <g style="fill:#262626;" transform="translate(39.198437 204.718106)scale(0.1 -0.1)">
       <use xlink:href="#ArialMT-8722"/>
       <use x="58.398438" xlink:href="#ArialMT-49"/>
      </g>
     </g>
    </g>
    <g id="ytick_6">
     <g id="line2d_12">
      <path clip-path="url(#p55c8b6bfce)" d="M 57.6 174.528 
L 414.72 174.528 
" style="fill:none;stroke:#cccccc;stroke-linecap:round;stroke-width:0.8;"/>
     </g>
     <g id="text_13">
      <!-- 0 -->
      <g style="fill:#262626;" transform="translate(45.039062 178.106906)scale(0.1 -0.1)">
       <use xlink:href="#ArialMT-48"/>
      </g>
     </g>
    </g>
    <g id="ytick_7">
     <g id="line2d_13">
      <path clip-path="url(#p55c8b6bfce)" d="M 57.6 147.9168 
L 414.72 147.9168 
" style="fill:none;stroke:#cccccc;stroke-linecap:round;stroke-width:0.8;"/>
     </g>
     <g id="text_14">
      <!-- 1 -->
      <g style="fill:#262626;" transform="translate(45.039062 151.495706)scale(0.1 -0.1)">
       <use xlink:href="#ArialMT-49"/>
      </g>
     </g>
    </g>
    <g id="ytick_8">
     <g id="line2d_14">
      <path clip-path="url(#p55c8b6bfce)" d="M 57.6 121.3056 
L 414.72 121.3056 
" style="fill:none;stroke:#cccccc;stroke-linecap:round;stroke-width:0.8;"/>
     </g>
     <g id="text_15">
      <!-- 2 -->
      <g style="fill:#262626;" transform="translate(45.039062 124.884506)scale(0.1 -0.1)">
       <use xlink:href="#ArialMT-50"/>
      </g>
     </g>
    </g>
    <g id="ytick_9">
     <g id="line2d_15">
      <path clip-path="url(#p55c8b6bfce)" d="M 57.6 94.6944 
L 414.72 94.6944 
" style="fill:none;stroke:#cccccc;stroke-linecap:round;stroke-width:0.8;"/>
     </g>
     <g id="text_16">
      <!-- 3 -->
      <g style="fill:#262626;" transform="translate(45.039062 98.273306)scale(0.1 -0.1)">
       <use xlink:href="#ArialMT-51"/>
      </g>
     </g>
    </g>
    <g id="ytick_10">
     <g id="line2d_16">
      <path clip-path="url(#p55c8b6bfce)" d="M 57.6 68.0832 
L 414.72 68.0832 
" style="fill:none;stroke:#cccccc;stroke-linecap:round;stroke-width:0.8;"/>
     </g>
     <g id="text_17">
      <!-- 4 -->
      <g style="fill:#262626;" transform="translate(45.039062 71.662106)scale(0.1 -0.1)">
       <use xlink:href="#ArialMT-52"/>
      </g>
     </g>
    </g>
    <g id="ytick_11">
     <g id="line2d_17">
      <path clip-path="url(#p55c8b6bfce)" d="M 57.6 41.472 
L 414.72 41.472 
" style="fill:none;stroke:#cccccc;stroke-linecap:round;stroke-width:0.8;"/>
     </g>
     <g id="text_18">
      <!-- 5 -->
      <g style="fill:#262626;" transform="translate(45.039062 45.050906)scale(0.1 -0.1)">
       <use xlink:href="#ArialMT-53"/>
      </g>
     </g>
    </g>
    <g id="text_19">
     <!-- Load Factor -->
     <defs>
      <path d="M 57.328125 18.3125 
L 58.9375 17.96875 
L 53.265625 0 
L 2 0 
L 2 1.8125 
L 4.5 1.8125 
Q 8.6875 1.8125 10.5 4.546875 
Q 11.53125 6.109375 11.53125 11.765625 
L 11.53125 54.5 
Q 11.53125 60.6875 10.15625 62.25 
Q 8.25 64.40625 4.5 64.40625 
L 2 64.40625 
L 2 66.21875 
L 31.984375 66.21875 
L 31.984375 64.40625 
Q 26.703125 64.453125 24.578125 63.421875 
Q 22.46875 62.40625 21.6875 60.84375 
Q 20.90625 59.28125 20.90625 53.375 
L 20.90625 11.765625 
Q 20.90625 7.71875 21.6875 6.203125 
Q 22.265625 5.171875 23.484375 4.6875 
Q 24.703125 4.203125 31.109375 4.203125 
L 35.9375 4.203125 
Q 43.5625 4.203125 46.625 5.328125 
Q 49.703125 6.453125 52.234375 9.296875 
Q 54.78125 12.15625 57.328125 18.3125 
z
" id="TimesNewRomanPSMT-76"/>
      <path d="M 28.46875 6.453125 
Q 21.578125 1.125 19.828125 0.296875 
Q 17.1875 -0.921875 14.203125 -0.921875 
Q 9.578125 -0.921875 6.5625 2.25 
Q 3.5625 5.421875 3.5625 10.59375 
Q 3.5625 13.875 5.03125 16.265625 
Q 7.03125 19.578125 11.984375 22.5 
Q 16.9375 25.4375 28.46875 29.640625 
L 28.46875 31.390625 
Q 28.46875 38.09375 26.34375 40.578125 
Q 24.21875 43.0625 20.171875 43.0625 
Q 17.09375 43.0625 15.28125 41.40625 
Q 13.421875 39.75 13.421875 37.59375 
L 13.53125 34.765625 
Q 13.53125 32.515625 12.375 31.296875 
Q 11.234375 30.078125 9.375 30.078125 
Q 7.5625 30.078125 6.421875 31.34375 
Q 5.28125 32.625 5.28125 34.8125 
Q 5.28125 39.015625 9.578125 42.53125 
Q 13.875 46.046875 21.625 46.046875 
Q 27.59375 46.046875 31.390625 44.046875 
Q 34.28125 42.53125 35.640625 39.3125 
Q 36.53125 37.203125 36.53125 30.71875 
L 36.53125 15.53125 
Q 36.53125 9.125 36.765625 7.6875 
Q 37.015625 6.25 37.578125 5.765625 
Q 38.140625 5.28125 38.875 5.28125 
Q 39.65625 5.28125 40.234375 5.609375 
Q 41.265625 6.25 44.1875 9.1875 
L 44.1875 6.453125 
Q 38.71875 -0.875 33.734375 -0.875 
Q 31.34375 -0.875 29.921875 0.78125 
Q 28.515625 2.4375 28.46875 6.453125 
z
M 28.46875 9.625 
L 28.46875 26.65625 
Q 21.09375 23.734375 18.953125 22.515625 
Q 15.09375 20.359375 13.421875 18.015625 
Q 11.765625 15.671875 11.765625 12.890625 
Q 11.765625 9.375 13.859375 7.046875 
Q 15.96875 4.734375 18.703125 4.734375 
Q 22.40625 4.734375 28.46875 9.625 
z
" id="TimesNewRomanPSMT-97"/>
      <path d="M 34.71875 5.03125 
Q 31.453125 1.609375 28.328125 0.109375 
Q 25.203125 -1.375 21.578125 -1.375 
Q 14.265625 -1.375 8.796875 4.75 
Q 3.328125 10.890625 3.328125 20.515625 
Q 3.328125 30.125 9.375 38.109375 
Q 15.4375 46.09375 24.953125 46.09375 
Q 30.859375 46.09375 34.71875 42.328125 
L 34.71875 50.59375 
Q 34.71875 58.25 34.34375 60 
Q 33.984375 61.765625 33.203125 62.390625 
Q 32.421875 63.03125 31.25 63.03125 
Q 29.984375 63.03125 27.875 62.25 
L 27.25 63.96875 
L 40.578125 69.4375 
L 42.78125 69.4375 
L 42.78125 17.71875 
Q 42.78125 9.859375 43.140625 8.125 
Q 43.5 6.390625 44.3125 5.703125 
Q 45.125 5.03125 46.1875 5.03125 
Q 47.515625 5.03125 49.703125 5.859375 
L 50.25 4.15625 
L 36.96875 -1.375 
L 34.71875 -1.375 
z
M 34.71875 8.453125 
L 34.71875 31.5 
Q 34.421875 34.8125 32.953125 37.546875 
Q 31.5 40.28125 29.078125 41.671875 
Q 26.65625 43.0625 24.359375 43.0625 
Q 20.0625 43.0625 16.703125 39.203125 
Q 12.25 34.125 12.25 24.359375 
Q 12.25 14.5 16.546875 9.25 
Q 20.84375 4 26.125 4 
Q 30.5625 4 34.71875 8.453125 
z
" id="TimesNewRomanPSMT-100"/>
      <path id="TimesNewRomanPSMT-32"/>
      <path d="M 20.453125 62.59375 
L 20.453125 36.578125 
L 32.515625 36.578125 
Q 36.671875 36.578125 38.59375 38.40625 
Q 40.53125 40.234375 41.15625 45.65625 
L 42.96875 45.65625 
L 42.96875 23.25 
L 41.15625 23.25 
Q 41.109375 27.09375 40.15625 28.90625 
Q 39.203125 30.71875 37.515625 31.609375 
Q 35.84375 32.515625 32.515625 32.515625 
L 20.453125 32.515625 
L 20.453125 11.71875 
Q 20.453125 6.6875 21.09375 5.078125 
Q 21.578125 3.859375 23.140625 2.984375 
Q 25.296875 1.8125 27.640625 1.8125 
L 30.03125 1.8125 
L 30.03125 0 
L 1.609375 0 
L 1.609375 1.8125 
L 3.953125 1.8125 
Q 8.0625 1.8125 9.90625 4.203125 
Q 11.078125 5.765625 11.078125 11.71875 
L 11.078125 54.5 
Q 11.078125 59.515625 10.453125 61.140625 
Q 9.96875 62.359375 8.453125 63.234375 
Q 6.34375 64.40625 3.953125 64.40625 
L 1.609375 64.40625 
L 1.609375 66.21875 
L 50.875 66.21875 
L 51.515625 51.65625 
L 49.8125 51.65625 
Q 48.53125 56.296875 46.84375 58.46875 
Q 45.171875 60.640625 42.703125 61.609375 
Q 40.234375 62.59375 35.0625 62.59375 
z
" id="TimesNewRomanPSMT-70"/>
      <path d="M 16.21875 46.046875 
L 16.21875 35.984375 
Q 21.828125 46.046875 27.734375 46.046875 
Q 30.421875 46.046875 32.171875 44.40625 
Q 33.9375 42.78125 33.9375 40.625 
Q 33.9375 38.71875 32.65625 37.390625 
Q 31.390625 36.078125 29.640625 36.078125 
Q 27.9375 36.078125 25.8125 37.765625 
Q 23.6875 39.453125 22.65625 39.453125 
Q 21.78125 39.453125 20.75 38.484375 
Q 18.5625 36.46875 16.21875 31.890625 
L 16.21875 10.453125 
Q 16.21875 6.734375 17.140625 4.828125 
Q 17.78125 3.515625 19.390625 2.640625 
Q 21 1.765625 24.03125 1.765625 
L 24.03125 0 
L 1.125 0 
L 1.125 1.765625 
Q 4.546875 1.765625 6.203125 2.828125 
Q 7.421875 3.609375 7.90625 5.328125 
Q 8.15625 6.15625 8.15625 10.0625 
L 8.15625 27.390625 
Q 8.15625 35.203125 7.828125 36.6875 
Q 7.515625 38.1875 6.65625 38.859375 
Q 5.8125 39.546875 4.546875 39.546875 
Q 3.03125 39.546875 1.125 38.8125 
L 0.640625 40.578125 
L 14.15625 46.046875 
z
" id="TimesNewRomanPSMT-114"/>
     </defs>
     <g style="fill:#262626;" transform="translate(32.20375 208.543625)rotate(-90)scale(0.14 -0.14)">
      <use xlink:href="#TimesNewRomanPSMT-76"/>
      <use x="61.083984" xlink:href="#TimesNewRomanPSMT-111"/>
      <use x="111.083984" xlink:href="#TimesNewRomanPSMT-97"/>
      <use x="155.46875" xlink:href="#TimesNewRomanPSMT-100"/>
      <use x="205.46875" xlink:href="#TimesNewRomanPSMT-32"/>
      <use x="230.46875" xlink:href="#TimesNewRomanPSMT-70"/>
      <use x="286.083984" xlink:href="#TimesNewRomanPSMT-97"/>
      <use x="330.46875" xlink:href="#TimesNewRomanPSMT-99"/>
      <use x="374.853516" xlink:href="#TimesNewRomanPSMT-116"/>
      <use x="402.636719" xlink:href="#TimesNewRomanPSMT-111"/>
      <use x="452.636719" xlink:href="#TimesNewRomanPSMT-114"/>
     </g>
    </g>
   </g>
   <g id="LineCollection_1">
    <path clip-path="url(#p55c8b6bfce)" d="M 57.6 174.528 
L 461.8 174.528 
" style="fill:none;stroke:#000000;stroke-width:0.5;"/>
   </g>
   <g id="line2d_18">
    <path clip-path="url(#p55c8b6bfce)" d="M 57.6 174.528 
L 62.763181 174.414719 
L 67.926361 174.074878 
L 73.089542 173.508475 
L 78.252723 172.715511 
L 83.415904 171.695987 
L 88.579084 170.449901 
L 93.742265 168.977254 
L 98.905446 167.278046 
L 104.068627 165.352277 
L 109.231807 163.199947 
L 114.394988 160.821055 
L 119.558169 158.215603 
L 124.721349 155.38359 
L 129.88453 152.325015 
L 135.047711 149.03988 
L 140.210892 145.528183 
L 145.374072 141.789926 
L 150.537253 137.825107 
L 155.700434 133.633727 
L 160.863614 129.215787 
L 166.026795 124.571285 
L 172.911036 118.026187 
L 179.795277 111.078314 
L 186.679518 103.727666 
L 193.563759 95.974243 
L 200.448 87.818045 
L 207.332241 79.259071 
L 214.216482 70.297322 
L 221.100723 60.932798 
L 227.984964 51.165499 
L 234.869205 40.995424 
L 241.753446 30.422574 
L 248.637687 19.446949 
L 255.521928 8.068549 
L 260.84113 -1 
L 260.84113 -1 
" style="fill:none;stroke:#03071e;stroke-linecap:round;"/>
   </g>
   <g id="line2d_19">
    <path clip-path="url(#p55c8b6bfce)" d="M 57.6 174.528 
L 62.763181 174.426048 
L 67.926361 174.12019 
L 73.089542 173.610428 
L 78.252723 172.89676 
L 83.415904 171.979188 
L 88.579084 170.857711 
L 93.742265 169.532328 
L 98.905446 168.003041 
L 104.068627 166.269849 
L 109.231807 164.332752 
L 114.394988 162.19175 
L 119.558169 159.846843 
L 124.721349 157.298031 
L 129.88453 154.545314 
L 135.047711 151.588692 
L 140.210892 148.428165 
L 145.374072 145.063733 
L 150.537253 141.495396 
L 157.421494 136.420428 
L 164.305735 130.982963 
L 171.189976 125.183 
L 178.074217 119.020538 
L 184.958458 112.49558 
L 191.842699 105.608123 
L 198.72694 98.358169 
L 205.611181 90.745717 
L 212.495422 82.770768 
L 219.379663 74.43332 
L 226.263904 65.733375 
L 233.148145 56.670933 
L 240.032386 47.245992 
L 246.916627 37.458554 
L 253.800867 27.308618 
L 260.685108 16.796185 
L 267.569349 5.921254 
L 271.833871 -1 
L 271.833871 -1 
" style="fill:none;stroke:#370617;stroke-linecap:round;"/>
   </g>
   <g id="line2d_20">
    <path clip-path="url(#p55c8b6bfce)" d="M 57.6 174.528 
L 62.763181 174.437376 
L 67.926361 174.165502 
L 73.089542 173.71238 
L 78.252723 173.078009 
L 83.415904 172.262389 
L 88.579084 171.265521 
L 93.742265 170.087403 
L 98.905446 168.728037 
L 104.068627 167.187421 
L 109.231807 165.465557 
L 114.394988 163.562444 
L 119.558169 161.478083 
L 124.721349 159.212472 
L 131.60559 155.909715 
L 138.489831 152.284738 
L 145.374072 148.337541 
L 152.258313 144.068123 
L 159.142554 139.476486 
L 166.026795 134.562628 
L 172.911036 129.32655 
L 179.795277 123.768252 
L 186.679518 117.887733 
L 193.563759 111.684995 
L 200.448 105.160036 
L 207.332241 98.312857 
L 214.216482 91.143458 
L 221.100723 83.651839 
L 227.984964 75.837999 
L 234.869205 67.701939 
L 241.753446 59.24366 
L 248.637687 50.463159 
L 255.521928 41.360439 
L 262.406169 31.935499 
L 269.29041 22.188338 
L 276.174651 12.118957 
L 283.058892 1.727357 
L 284.830976 -1 
L 284.830976 -1 
" style="fill:none;stroke:#6a040f;stroke-linecap:round;"/>
   </g>
   <g id="line2d_21">
    <path clip-path="url(#p55c8b6bfce)" d="M 57.6 174.528 
L 64.484241 174.387029 
L 71.368482 173.964115 
L 78.252723 173.259258 
L 85.136964 172.272459 
L 92.021205 171.003717 
L 98.905446 169.453032 
L 105.789687 167.620405 
L 112.673928 165.505835 
L 119.558169 163.109322 
L 126.44241 160.430867 
L 133.326651 157.470469 
L 140.210892 154.228128 
L 147.095133 150.703845 
L 153.979373 146.897619 
L 160.863614 142.809451 
L 167.747855 138.439339 
L 174.632096 133.787285 
L 181.516337 128.853289 
L 188.400578 123.63735 
L 195.284819 118.139468 
L 202.16906 112.359643 
L 209.053301 106.297876 
L 215.937542 99.954166 
L 222.821783 93.328513 
L 229.706024 86.420918 
L 236.590265 79.23138 
L 243.474506 71.7599 
L 250.358747 64.006477 
L 257.242988 55.971111 
L 264.127229 47.653802 
L 272.73253 36.860685 
L 281.337831 25.627032 
L 289.943133 13.952843 
L 298.548434 1.83812 
L 300.519575 -1 
L 300.519575 -1 
" style="fill:none;stroke:#9d0208;stroke-linecap:round;"/>
   </g>
   <g id="line2d_22">
    <path clip-path="url(#p55c8b6bfce)" d="M 57.6 174.528 
L 64.484241 174.407167 
L 71.368482 174.04467 
L 78.252723 173.440507 
L 85.136964 172.594679 
L 92.021205 171.507186 
L 98.905446 170.178028 
L 105.789687 168.607204 
L 112.673928 166.794716 
L 119.558169 164.740562 
L 126.44241 162.444743 
L 133.326651 159.907259 
L 140.210892 157.12811 
L 147.095133 154.107296 
L 153.979373 150.844816 
L 160.863614 147.340672 
L 167.747855 143.594862 
L 174.632096 139.607387 
L 181.516337 135.378248 
L 188.400578 130.907442 
L 195.284819 126.194972 
L 202.16906 121.240837 
L 209.053301 116.045036 
L 215.937542 110.607571 
L 222.821783 104.92844 
L 229.706024 99.007644 
L 236.590265 92.845183 
L 243.474506 86.441057 
L 252.079807 78.096058 
L 260.685108 69.373457 
L 269.29041 60.273254 
L 277.895711 50.795449 
L 286.501012 40.940043 
L 295.106313 30.707034 
L 303.711614 20.096424 
L 312.316916 9.108213 
L 319.982548 -1 
L 319.982548 -1 
" style="fill:none;stroke:#d00000;stroke-linecap:round;"/>
   </g>
   <g id="line2d_23">
    <path clip-path="url(#p55c8b6bfce)" style="fill:none;stroke:#ff0000;stroke-dasharray:14.8,6.4;stroke-dashoffset:0;stroke-width:4;"/>
   </g>
   <g id="line2d_24">
    <path clip-path="url(#p55c8b6bfce)" style="fill:none;stroke:#ff0000;stroke-dasharray:14.8,6.4;stroke-dashoffset:0;stroke-width:4;"/>
   </g>
   <g id="patch_3">
    <path d="M 57.6 307.584 
L 57.6 41.472 
" style="fill:none;stroke:#cccccc;stroke-linecap:square;stroke-linejoin:miter;stroke-width:0.8;"/>
   </g>
   <g id="patch_4">
    <path d="M 414.72 307.584 
L 414.72 41.472 
" style="fill:none;stroke:#cccccc;stroke-linecap:square;stroke-linejoin:miter;stroke-width:0.8;"/>
   </g>
   <g id="patch_5">
    <path d="M 57.6 307.584 
L 414.72 307.584 
" style="fill:none;stroke:#cccccc;stroke-linecap:square;stroke-linejoin:miter;stroke-width:0.8;"/>
   </g>
   <g id="patch_6">
    <path d="M 57.6 41.472 
L 414.72 41.472 
" style="fill:none;stroke:#cccccc;stroke-linecap:square;stroke-linejoin:miter;stroke-width:0.8;"/>
   </g>
   <g id="text_20">
    <!-- Load Factor vs. Velocity -->
    <defs>
     <path d="M 0.828125 44.734375 
L 21.875 44.734375 
L 21.875 42.921875 
L 20.515625 42.921875 
Q 18.609375 42.921875 17.609375 41.984375 
Q 16.609375 41.0625 16.609375 39.5 
Q 16.609375 37.796875 17.625 35.453125 
L 28.03125 10.75 
L 38.484375 36.375 
Q 39.59375 39.109375 39.59375 40.53125 
Q 39.59375 41.21875 39.203125 41.65625 
Q 38.671875 42.390625 37.84375 42.65625 
Q 37.015625 42.921875 34.46875 42.921875 
L 34.46875 44.734375 
L 49.078125 44.734375 
L 49.078125 42.921875 
Q 46.53125 42.71875 45.5625 41.890625 
Q 43.84375 40.4375 42.484375 37.015625 
L 26.609375 -1.375 
L 24.609375 -1.375 
L 8.640625 36.375 
Q 7.5625 39.015625 6.578125 40.15625 
Q 5.609375 41.3125 4.109375 42.09375 
Q 3.265625 42.53125 0.828125 42.921875 
z
" id="TimesNewRomanPSMT-118"/>
     <path d="M 32.03125 46.046875 
L 32.03125 30.8125 
L 30.421875 30.8125 
Q 28.5625 37.984375 25.65625 40.578125 
Q 22.75 43.171875 18.265625 43.171875 
Q 14.84375 43.171875 12.734375 41.359375 
Q 10.640625 39.546875 10.640625 37.359375 
Q 10.640625 34.625 12.203125 32.671875 
Q 13.71875 30.671875 18.359375 28.421875 
L 25.484375 24.953125 
Q 35.40625 20.125 35.40625 12.203125 
Q 35.40625 6.109375 30.78125 2.359375 
Q 26.171875 -1.375 20.453125 -1.375 
Q 16.359375 -1.375 11.078125 0.09375 
Q 9.46875 0.59375 8.453125 0.59375 
Q 7.328125 0.59375 6.6875 -0.6875 
L 5.078125 -0.6875 
L 5.078125 15.28125 
L 6.6875 15.28125 
Q 8.0625 8.453125 11.90625 4.984375 
Q 15.765625 1.515625 20.5625 1.515625 
Q 23.921875 1.515625 26.046875 3.484375 
Q 28.171875 5.46875 28.171875 8.25 
Q 28.171875 11.625 25.796875 13.921875 
Q 23.4375 16.21875 16.359375 19.734375 
Q 9.28125 23.25 7.078125 26.078125 
Q 4.890625 28.859375 4.890625 33.109375 
Q 4.890625 38.625 8.671875 42.328125 
Q 12.453125 46.046875 18.453125 46.046875 
Q 21.09375 46.046875 24.859375 44.921875 
Q 27.34375 44.1875 28.171875 44.1875 
Q 28.953125 44.1875 29.390625 44.53125 
Q 29.828125 44.875 30.421875 46.046875 
z
" id="TimesNewRomanPSMT-115"/>
     <path d="M 12.5 9.46875 
Q 14.796875 9.46875 16.359375 7.875 
Q 17.921875 6.296875 17.921875 4.046875 
Q 17.921875 1.8125 16.328125 0.21875 
Q 14.75 -1.375 12.5 -1.375 
Q 10.25 -1.375 8.65625 0.21875 
Q 7.078125 1.8125 7.078125 4.046875 
Q 7.078125 6.34375 8.65625 7.90625 
Q 10.25 9.46875 12.5 9.46875 
z
" id="TimesNewRomanPSMT-46"/>
    </defs>
    <g style="fill:#262626;" transform="translate(156.63875 35.472)scale(0.16 -0.16)">
     <use xlink:href="#TimesNewRomanPSMT-76"/>
     <use x="61.083984" xlink:href="#TimesNewRomanPSMT-111"/>
     <use x="111.083984" xlink:href="#TimesNewRomanPSMT-97"/>
     <use x="155.46875" xlink:href="#TimesNewRomanPSMT-100"/>
     <use x="205.46875" xlink:href="#TimesNewRomanPSMT-32"/>
     <use x="230.46875" xlink:href="#TimesNewRomanPSMT-70"/>
     <use x="286.083984" xlink:href="#TimesNewRomanPSMT-97"/>
     <use x="330.46875" xlink:href="#TimesNewRomanPSMT-99"/>
     <use x="374.853516" xlink:href="#TimesNewRomanPSMT-116"/>
     <use x="402.636719" xlink:href="#TimesNewRomanPSMT-111"/>
     <use x="452.636719" xlink:href="#TimesNewRomanPSMT-114"/>
     <use x="485.9375" xlink:href="#TimesNewRomanPSMT-32"/>
     <use x="510.9375" xlink:href="#TimesNewRomanPSMT-118"/>
     <use x="560.9375" xlink:href="#TimesNewRomanPSMT-115"/>
     <use x="599.853516" xlink:href="#TimesNewRomanPSMT-46"/>
     <use x="624.853516" xlink:href="#TimesNewRomanPSMT-32"/>
     <use x="649.837891" xlink:href="#TimesNewRomanPSMT-86"/>
     <use x="721.882812" xlink:href="#TimesNewRomanPSMT-101"/>
     <use x="766.267578" xlink:href="#TimesNewRomanPSMT-108"/>
     <use x="794.050781" xlink:href="#TimesNewRomanPSMT-111"/>
     <use x="844.050781" xlink:href="#TimesNewRomanPSMT-99"/>
     <use x="888.435547" xlink:href="#TimesNewRomanPSMT-105"/>
     <use x="916.21875" xlink:href="#TimesNewRomanPSMT-116"/>
     <use x="944.001953" xlink:href="#TimesNewRomanPSMT-121"/>
    </g>
   </g>
   <g id="legend_1">
    <g id="patch_7">
     <path d="M 341.416 108.112 
L 408.889 108.112 
Q 410.555 108.112 410.555 106.446 
L 410.555 47.303 
Q 410.555 45.637 408.889 45.637 
L 341.416 45.637 
Q 339.75 45.637 339.75 47.303 
L 339.75 106.446 
Q 339.75 108.112 341.416 108.112 
z
" style="fill:#ffffff;opacity:0.8;stroke:#cccccc;stroke-linejoin:miter;"/>
    </g>
    <g id="line2d_25">
     <path d="M 343.082 52.228113 
L 359.742 52.228113 
" style="fill:none;stroke:#03071e;stroke-linecap:round;"/>
    </g>
    <g id="line2d_26"/>
    <g id="text_21">
     <!-- $Cl_{Max}$ -->
     <defs>
      <path d="M 69.484375 67.28125 
L 67.484375 56.890625 
Q 62.796875 61.625 57.546875 63.921875 
Q 52.296875 66.21875 46.1875 66.21875 
Q 37.84375 66.21875 31.515625 62.203125 
Q 25.203125 58.203125 20.609375 50 
Q 17.671875 44.734375 16.125 38.84375 
Q 14.59375 32.953125 14.59375 27 
Q 14.59375 17.046875 19.75 11.8125 
Q 24.90625 6.59375 34.71875 6.59375 
Q 41.5 6.59375 47.75 8.765625 
Q 54 10.9375 59.90625 15.28125 
L 57.625 3.609375 
Q 51.8125 1.125 45.875 -0.140625 
Q 39.9375 -1.421875 33.984375 -1.421875 
Q 19.96875 -1.421875 12.078125 6.1875 
Q 4.203125 13.8125 4.203125 27.390625 
Q 4.203125 36.078125 7.203125 44.46875 
Q 10.203125 52.875 15.828125 59.8125 
Q 21.78125 67.1875 29.421875 70.703125 
Q 37.0625 74.21875 47.21875 74.21875 
Q 53.46875 74.21875 59.0625 72.484375 
Q 64.65625 70.75 69.484375 67.28125 
z
" id="DejaVuSans-Oblique-67"/>
      <path d="M 18.3125 75.984375 
L 27.296875 75.984375 
L 12.5 0 
L 3.515625 0 
z
" id="DejaVuSans-Oblique-108"/>
      <path d="M 16.890625 72.90625 
L 31.6875 72.90625 
L 40.1875 23.78125 
L 68.40625 72.90625 
L 83.59375 72.90625 
L 69.390625 0 
L 59.8125 0 
L 72.21875 63.921875 
L 43.609375 14.015625 
L 33.984375 14.015625 
L 24.703125 64.109375 
L 12.3125 0 
L 2.6875 0 
z
" id="DejaVuSans-Oblique-77"/>
      <path d="M 53.71875 31.203125 
L 47.609375 0 
L 38.625 0 
L 40.28125 8.296875 
Q 36.328125 3.421875 31.265625 1 
Q 26.21875 -1.421875 20.015625 -1.421875 
Q 13.03125 -1.421875 8.5625 2.84375 
Q 4.109375 7.125 4.109375 13.8125 
Q 4.109375 23.390625 11.75 28.953125 
Q 19.390625 34.515625 32.8125 34.515625 
L 45.3125 34.515625 
L 45.796875 36.921875 
Q 45.90625 37.3125 45.953125 37.765625 
Q 46 38.234375 46 39.203125 
Q 46 43.5625 42.453125 45.96875 
Q 38.921875 48.390625 32.515625 48.390625 
Q 28.125 48.390625 23.5 47.265625 
Q 18.890625 46.140625 14.015625 43.890625 
L 15.578125 52.203125 
Q 20.65625 54.109375 25.515625 55.046875 
Q 30.375 56 34.90625 56 
Q 44.578125 56 49.625 51.796875 
Q 54.6875 47.609375 54.6875 39.59375 
Q 54.6875 37.984375 54.4375 35.8125 
Q 54.203125 33.640625 53.71875 31.203125 
z
M 44 27.484375 
L 35.015625 27.484375 
Q 23.96875 27.484375 18.671875 24.53125 
Q 13.375 21.578125 13.375 15.375 
Q 13.375 11.078125 16.078125 8.640625 
Q 18.796875 6.203125 23.578125 6.203125 
Q 30.90625 6.203125 36.375 11.453125 
Q 41.84375 16.703125 43.609375 25.484375 
z
" id="DejaVuSans-Oblique-97"/>
      <path d="M 60.015625 54.6875 
L 34.90625 27.875 
L 50.296875 0 
L 39.984375 0 
L 28.421875 21.6875 
L 8.296875 0 
L -2.59375 0 
L 24.3125 28.8125 
L 10.015625 54.6875 
L 20.3125 54.6875 
L 30.8125 34.90625 
L 49.125 54.6875 
z
" id="DejaVuSans-Oblique-120"/>
     </defs>
     <g style="fill:#262626;" transform="translate(366.406 55.143613)scale(0.0833 -0.0833)">
      <use transform="translate(0 0.015625)" xlink:href="#DejaVuSans-Oblique-67"/>
      <use transform="translate(69.824219 0.015625)" xlink:href="#DejaVuSans-Oblique-108"/>
      <use transform="translate(97.607422 -16.390625)scale(0.7)" xlink:href="#DejaVuSans-Oblique-77"/>
      <use transform="translate(158.00293 -16.390625)scale(0.7)" xlink:href="#DejaVuSans-Oblique-97"/>
      <use transform="translate(200.898438 -16.390625)scale(0.7)" xlink:href="#DejaVuSans-Oblique-120"/>
     </g>
    </g>
    <g id="line2d_27">
     <path d="M 343.082 64.223313 
L 359.742 64.223313 
" style="fill:none;stroke:#370617;stroke-linecap:round;"/>
    </g>
    <g id="line2d_28"/>
    <g id="text_22">
     <!-- $Cl_{Max}$ ⋅ 0.9 -->
     <defs>
      <path id="ArialMT-32"/>
      <path d="M 52.203125 4 
L 47.40625 -1 
L 37.59375 8.796875 
Q 31.703125 4.703125 25.09375 4.703125 
Q 18.296875 4.703125 12.40625 8.796875 
L 2.796875 -1 
L -2.203125 4 
L 7.59375 13.59375 
Q 3.5 19.5 3.5 26.203125 
Q 3.5 33.09375 7.59375 38.796875 
L -2.203125 48.59375 
L 2.796875 53.40625 
L 12.40625 43.796875 
Q 18.5 47.703125 25.09375 47.703125 
Q 32 47.703125 37.59375 43.796875 
L 47.40625 53.40625 
L 52.203125 48.59375 
L 42.59375 38.796875 
Q 46.5 33 46.5 26.296875 
Q 46.5 19.703125 42.59375 13.59375 
z
M 39.703125 26.40625 
Q 39.703125 32.59375 35.390625 36.9375 
Q 31.09375 41.296875 24.90625 41.296875 
Q 18.90625 41.296875 14.59375 36.890625 
Q 10.296875 32.5 10.296875 26.296875 
Q 10.296875 20 14.640625 15.546875 
Q 19 11.09375 25.09375 11.09375 
Q 31.296875 11.09375 35.5 15.546875 
Q 39.703125 20 39.703125 26.40625 
z
" id="STIXGeneral-Regular-164"/>
      <path d="M 9.078125 0 
L 9.078125 10.015625 
L 19.09375 10.015625 
L 19.09375 0 
z
" id="ArialMT-46"/>
      <path d="M 5.46875 16.546875 
L 13.921875 17.328125 
Q 14.984375 11.375 18.015625 8.6875 
Q 21.046875 6 25.78125 6 
Q 29.828125 6 32.875 7.859375 
Q 35.9375 9.71875 37.890625 12.8125 
Q 39.84375 15.921875 41.15625 21.1875 
Q 42.484375 26.46875 42.484375 31.9375 
Q 42.484375 32.515625 42.4375 33.6875 
Q 39.796875 29.5 35.234375 26.875 
Q 30.671875 24.265625 25.34375 24.265625 
Q 16.453125 24.265625 10.296875 30.703125 
Q 4.15625 37.15625 4.15625 47.703125 
Q 4.15625 58.59375 10.578125 65.234375 
Q 17 71.875 26.65625 71.875 
Q 33.640625 71.875 39.421875 68.109375 
Q 45.21875 64.359375 48.21875 57.390625 
Q 51.21875 50.4375 51.21875 37.25 
Q 51.21875 23.53125 48.234375 15.40625 
Q 45.265625 7.28125 39.375 3.03125 
Q 33.5 -1.21875 25.59375 -1.21875 
Q 17.1875 -1.21875 11.859375 3.4375 
Q 6.546875 8.109375 5.46875 16.546875 
z
M 41.453125 48.140625 
Q 41.453125 55.71875 37.421875 60.15625 
Q 33.40625 64.59375 27.734375 64.59375 
Q 21.875 64.59375 17.53125 59.8125 
Q 13.1875 55.03125 13.1875 47.40625 
Q 13.1875 40.578125 17.3125 36.296875 
Q 21.4375 32.03125 27.484375 32.03125 
Q 33.59375 32.03125 37.515625 36.296875 
Q 41.453125 40.578125 41.453125 48.140625 
z
" id="ArialMT-57"/>
     </defs>
     <g style="fill:#262626;" transform="translate(366.406 67.138813)scale(0.0833 -0.0833)">
      <use transform="translate(0 0.015625)" xlink:href="#DejaVuSans-Oblique-67"/>
      <use transform="translate(69.824219 0.015625)" xlink:href="#DejaVuSans-Oblique-108"/>
      <use transform="translate(97.607422 -16.390625)scale(0.7)" xlink:href="#DejaVuSans-Oblique-77"/>
      <use transform="translate(158.00293 -16.390625)scale(0.7)" xlink:href="#DejaVuSans-Oblique-97"/>
      <use transform="translate(200.898438 -16.390625)scale(0.7)" xlink:href="#DejaVuSans-Oblique-120"/>
      <use transform="translate(245.058594 0.015625)" xlink:href="#ArialMT-32"/>
      <use transform="translate(272.841797 0.015625)" xlink:href="#STIXGeneral-Regular-164"/>
      <use transform="translate(322.841782 0.015625)" xlink:href="#ArialMT-32"/>
      <use transform="translate(350.624985 0.015625)" xlink:href="#ArialMT-48"/>
      <use transform="translate(406.240219 0.015625)" xlink:href="#ArialMT-46"/>
      <use transform="translate(434.023422 0.015625)" xlink:href="#ArialMT-57"/>
     </g>
    </g>
    <g id="line2d_29">
     <path d="M 343.082 76.218513 
L 359.742 76.218513 
" style="fill:none;stroke:#6a040f;stroke-linecap:round;"/>
    </g>
    <g id="line2d_30"/>
    <g id="text_23">
     <!-- $Cl_{Max}$ ⋅ 0.8 -->
     <defs>
      <path d="M 17.671875 38.8125 
Q 12.203125 40.828125 9.5625 44.53125 
Q 6.9375 48.25 6.9375 53.421875 
Q 6.9375 61.234375 12.546875 66.546875 
Q 18.171875 71.875 27.484375 71.875 
Q 36.859375 71.875 42.578125 66.421875 
Q 48.296875 60.984375 48.296875 53.171875 
Q 48.296875 48.1875 45.671875 44.5 
Q 43.0625 40.828125 37.75 38.8125 
Q 44.34375 36.671875 47.78125 31.875 
Q 51.21875 27.09375 51.21875 20.453125 
Q 51.21875 11.28125 44.71875 5.03125 
Q 38.234375 -1.21875 27.640625 -1.21875 
Q 17.046875 -1.21875 10.546875 5.046875 
Q 4.046875 11.328125 4.046875 20.703125 
Q 4.046875 27.6875 7.59375 32.390625 
Q 11.140625 37.109375 17.671875 38.8125 
z
M 15.921875 53.71875 
Q 15.921875 48.640625 19.1875 45.40625 
Q 22.46875 42.1875 27.6875 42.1875 
Q 32.765625 42.1875 36.015625 45.375 
Q 39.265625 48.578125 39.265625 53.21875 
Q 39.265625 58.0625 35.90625 61.359375 
Q 32.5625 64.65625 27.59375 64.65625 
Q 22.5625 64.65625 19.234375 61.421875 
Q 15.921875 58.203125 15.921875 53.71875 
z
M 13.09375 20.65625 
Q 13.09375 16.890625 14.875 13.375 
Q 16.65625 9.859375 20.171875 7.921875 
Q 23.6875 6 27.734375 6 
Q 34.03125 6 38.125 10.046875 
Q 42.234375 14.109375 42.234375 20.359375 
Q 42.234375 26.703125 38.015625 30.859375 
Q 33.796875 35.015625 27.4375 35.015625 
Q 21.234375 35.015625 17.15625 30.90625 
Q 13.09375 26.8125 13.09375 20.65625 
z
" id="ArialMT-56"/>
     </defs>
     <g style="fill:#262626;" transform="translate(366.406 79.134013)scale(0.0833 -0.0833)">
      <use transform="translate(0 0.015625)" xlink:href="#DejaVuSans-Oblique-67"/>
      <use transform="translate(69.824219 0.015625)" xlink:href="#DejaVuSans-Oblique-108"/>
      <use transform="translate(97.607422 -16.390625)scale(0.7)" xlink:href="#DejaVuSans-Oblique-77"/>
      <use transform="translate(158.00293 -16.390625)scale(0.7)" xlink:href="#DejaVuSans-Oblique-97"/>
      <use transform="translate(200.898438 -16.390625)scale(0.7)" xlink:href="#DejaVuSans-Oblique-120"/>
      <use transform="translate(245.058594 0.015625)" xlink:href="#ArialMT-32"/>
      <use transform="translate(272.841797 0.015625)" xlink:href="#STIXGeneral-Regular-164"/>
      <use transform="translate(322.841782 0.015625)" xlink:href="#ArialMT-32"/>
      <use transform="translate(350.624985 0.015625)" xlink:href="#ArialMT-48"/>
      <use transform="translate(406.240219 0.015625)" xlink:href="#ArialMT-46"/>
      <use transform="translate(434.023422 0.015625)" xlink:href="#ArialMT-56"/>
     </g>
    </g>
    <g id="line2d_31">
     <path d="M 343.082 88.213713 
L 359.742 88.213713 
" style="fill:none;stroke:#9d0208;stroke-linecap:round;"/>
    </g>
    <g id="line2d_32"/>
    <g id="text_24">
     <!-- $Cl_{Max}$ ⋅ 0.7 -->
     <defs>
      <path d="M 4.734375 62.203125 
L 4.734375 70.65625 
L 51.078125 70.65625 
L 51.078125 63.8125 
Q 44.234375 56.546875 37.515625 44.484375 
Q 30.8125 32.421875 27.15625 19.671875 
Q 24.515625 10.6875 23.78125 0 
L 14.75 0 
Q 14.890625 8.453125 18.0625 20.40625 
Q 21.234375 32.375 27.171875 43.484375 
Q 33.109375 54.59375 39.796875 62.203125 
z
" id="ArialMT-55"/>
     </defs>
     <g style="fill:#262626;" transform="translate(366.406 91.129213)scale(0.0833 -0.0833)">
      <use transform="translate(0 0.015625)" xlink:href="#DejaVuSans-Oblique-67"/>
      <use transform="translate(69.824219 0.015625)" xlink:href="#DejaVuSans-Oblique-108"/>
      <use transform="translate(97.607422 -16.390625)scale(0.7)" xlink:href="#DejaVuSans-Oblique-77"/>
      <use transform="translate(158.00293 -16.390625)scale(0.7)" xlink:href="#DejaVuSans-Oblique-97"/>
      <use transform="translate(200.898438 -16.390625)scale(0.7)" xlink:href="#DejaVuSans-Oblique-120"/>
      <use transform="translate(245.058594 0.015625)" xlink:href="#ArialMT-32"/>
      <use transform="translate(272.841797 0.015625)" xlink:href="#STIXGeneral-Regular-164"/>
      <use transform="translate(322.841782 0.015625)" xlink:href="#ArialMT-32"/>
      <use transform="translate(350.624985 0.015625)" xlink:href="#ArialMT-48"/>
      <use transform="translate(406.240219 0.015625)" xlink:href="#ArialMT-46"/>
      <use transform="translate(434.023422 0.015625)" xlink:href="#ArialMT-55"/>
     </g>
    </g>
    <g id="line2d_33">
     <path d="M 343.082 100.208913 
L 359.742 100.208913 
" style="fill:none;stroke:#d00000;stroke-linecap:round;"/>
    </g>
    <g id="line2d_34"/>
    <g id="text_25">
     <!-- $Cl_{Max}$ ⋅ 0.6 -->
     <defs>
      <path d="M 49.75 54.046875 
L 41.015625 53.375 
Q 39.84375 58.546875 37.703125 60.890625 
Q 34.125 64.65625 28.90625 64.65625 
Q 24.703125 64.65625 21.53125 62.3125 
Q 17.390625 59.28125 14.984375 53.46875 
Q 12.59375 47.65625 12.5 36.921875 
Q 15.671875 41.75 20.265625 44.09375 
Q 24.859375 46.4375 29.890625 46.4375 
Q 38.671875 46.4375 44.84375 39.96875 
Q 51.03125 33.5 51.03125 23.25 
Q 51.03125 16.5 48.125 10.71875 
Q 45.21875 4.9375 40.140625 1.859375 
Q 35.0625 -1.21875 28.609375 -1.21875 
Q 17.625 -1.21875 10.6875 6.859375 
Q 3.765625 14.9375 3.765625 33.5 
Q 3.765625 54.25 11.421875 63.671875 
Q 18.109375 71.875 29.4375 71.875 
Q 37.890625 71.875 43.28125 67.140625 
Q 48.6875 62.40625 49.75 54.046875 
z
M 13.875 23.1875 
Q 13.875 18.65625 15.796875 14.5 
Q 17.71875 10.359375 21.1875 8.171875 
Q 24.65625 6 28.46875 6 
Q 34.03125 6 38.03125 10.484375 
Q 42.046875 14.984375 42.046875 22.703125 
Q 42.046875 30.125 38.078125 34.390625 
Q 34.125 38.671875 28.125 38.671875 
Q 22.171875 38.671875 18.015625 34.390625 
Q 13.875 30.125 13.875 23.1875 
z
" id="ArialMT-54"/>
     </defs>
     <g style="fill:#262626;" transform="translate(366.406 103.124413)scale(0.0833 -0.0833)">
      <use transform="translate(0 0.015625)" xlink:href="#DejaVuSans-Oblique-67"/>
      <use transform="translate(69.824219 0.015625)" xlink:href="#DejaVuSans-Oblique-108"/>
      <use transform="translate(97.607422 -16.390625)scale(0.7)" xlink:href="#DejaVuSans-Oblique-77"/>
      <use transform="translate(158.00293 -16.390625)scale(0.7)" xlink:href="#DejaVuSans-Oblique-97"/>
      <use transform="translate(200.898438 -16.390625)scale(0.7)" xlink:href="#DejaVuSans-Oblique-120"/>
      <use transform="translate(245.058594 0.015625)" xlink:href="#ArialMT-32"/>
      <use transform="translate(272.841797 0.015625)" xlink:href="#STIXGeneral-Regular-164"/>
      <use transform="translate(322.841782 0.015625)" xlink:href="#ArialMT-32"/>
      <use transform="translate(350.624985 0.015625)" xlink:href="#ArialMT-48"/>
      <use transform="translate(406.240219 0.015625)" xlink:href="#ArialMT-46"/>
      <use transform="translate(434.023422 0.015625)" xlink:href="#ArialMT-54"/>
     </g>
    </g>
   </g>
  </g>
 </g>
 <defs>
  <clipPath id="p55c8b6bfce">
   <rect height="266.112" width="357.12" x="57.6" y="41.472"/>
  </clipPath>
 </defs>
</svg>
